<?xml version="1.0" encoding="utf-8"?>
<!-- Generator: Adobe Illustrator 27.8.1, SVG Export Plug-In . SVG Version: 6.00 Build 0)  -->
<svg version="1.1" id="Layer_1" xmlns="http://www.w3.org/2000/svg" xmlns:xlink="http://www.w3.org/1999/xlink" x="0px" y="0px"
	 viewBox="0 0 20 20" style="enable-background:new 0 0 20 20;" xml:space="preserve">
<style type="text/css">
	.st0{fill:#FFFFFF;}
	.st1{fill:none;}
</style>
<g id="그룹_4870" transform="translate(20.353 -0.353) rotate(90)">
	<path id="Icon_ionic-ios-arrow-down" class="st0" d="M9.1,10.4l3.8-3.8c0.3-0.3,0.3-0.7,0-1c0,0,0,0,0,0c-0.3-0.3-0.7-0.3-1,0
		L7.6,9.9c-0.3,0.3-0.3,0.7,0,1l4.3,4.3c0.3,0.3,0.7,0.2,1-0.1c0.2-0.3,0.2-0.7,0-0.9L9.1,10.4z"/>
	
		<rect id="사각형_457" x="0.4" y="0.4" transform="matrix(2.535182e-06 1 -1 2.535182e-06 20.706 -2.590235e-05)" class="st1" width="20" height="20"/>
</g>
</svg>
