<?xml version="1.0" encoding="utf-8"?>
<!-- Generator: Adobe Illustrator 27.4.1, SVG Export Plug-In . SVG Version: 6.00 Build 0)  -->
<svg version="1.1" id="Layer_1" xmlns="http://www.w3.org/2000/svg" xmlns:xlink="http://www.w3.org/1999/xlink" x="0px" y="0px"
	 viewBox="0 0 36 36" style="enable-background:new 0 0 36 36;" xml:space="preserve">
<style type="text/css">
	.st0{fill:none;}
	.st1{fill:#FFFFFF;}
</style>
<g id="그룹_52" transform="translate(-10 -237)">
	<rect id="사각형_13" x="10" y="237" class="st0" width="36" height="36"/>
	<path id="inventory_2_FILL1_wght500_GRAD0_opsz48" class="st1" d="M20.5,262v-10.2c-0.2-0.1-0.4-0.2-0.6-0.4
		c-0.2-0.3-0.3-0.6-0.3-0.9v-2.5c0-0.4,0.2-0.7,0.4-1c0.3-0.3,0.6-0.4,1-0.4h14c0.8,0,1.4,0.6,1.4,1.4v2.5c0,0.3-0.1,0.6-0.3,0.9
		c-0.1,0.2-0.3,0.4-0.6,0.4V262c0,0.4-0.2,0.7-0.4,1s-0.6,0.4-1,0.5H21.9c-0.4,0-0.7-0.2-1-0.5C20.7,262.7,20.5,262.3,20.5,262z
		 M35.1,250.4v-2.5h-14v2.5H35.1z M25.5,256.2h5.1v-1.3h-5.1V256.2z"/>
</g>
</svg>
