<?xml version="1.0" encoding="utf-8"?>
<!-- Generator: Adobe Illustrator 27.4.1, SVG Export Plug-In . SVG Version: 6.00 Build 0)  -->
<svg version="1.1" id="Layer_1" xmlns="http://www.w3.org/2000/svg" xmlns:xlink="http://www.w3.org/1999/xlink" x="0px" y="0px"
	 viewBox="0 0 36 36" style="enable-background:new 0 0 36 36;" xml:space="preserve">
<style type="text/css">
	.st0{fill:none;}
	.st1{fill:#FFFFFF;}
</style>
<g id="그룹_51" transform="translate(-10 -180)">
	<rect id="사각형_13" x="10" y="180" class="st0" width="36" height="36"/>
	<path id="design_services_FILL1_wght500_GRAD0_opsz48" class="st1" d="M35,195.2l-4.1-4.1l1.7-1.7c0.7-0.7,1.7-0.7,2.4,0l1.7,1.7
		c0.7,0.7,0.7,1.7,0,2.4L35,195.2L35,195.2z M18.9,207.2v-4.1l4.8-4.8l-5.6-5.6l4.6-4.6l5.6,5.6l1.4-1.4l4.1,4.1l-1.4,1.4l5.6,5.6
		l-4.6,4.6l-5.6-5.6l-4.9,4.9L18.9,207.2L18.9,207.2z M24.9,197.1l2.3-2.3l-1.8-1.8l-1.2,1.2l-1.1-1.1l1.2-1.2l-1.6-1.6l-2.3,2.3
		L24.9,197.1z M33.4,205.6l2.3-2.3l-1.6-1.6l-1.2,1.2l-1.1-1.1l1.2-1.2l-1.8-1.8l-2.3,2.3L33.4,205.6z"/>
</g>
</svg>
