<?xml version="1.0" encoding="utf-8"?>
<!-- Generator: Adobe Illustrator 27.4.1, SVG Export Plug-In . SVG Version: 6.00 Build 0)  -->
<svg version="1.1" id="Layer_1" xmlns="http://www.w3.org/2000/svg" xmlns:xlink="http://www.w3.org/1999/xlink" x="0px" y="0px"
	 viewBox="0 0 36 36" style="enable-background:new 0 0 36 36;" xml:space="preserve">
<style type="text/css">
	.st0{fill:none;}
	.st1{fill:#FFFFFF;}
</style>
<g id="그룹_54" transform="translate(-10 -351)">
	<rect id="사각형_13" x="10" y="351" class="st0" width="36" height="36"/>
	<path id="person_FILL1_wght500_GRAD0_opsz48" class="st1" d="M28,368.5c-2.4-0.1-4.3-2.1-4.2-4.5c0.1-2.4,2.1-4.3,4.5-4.2
		c2.4,0.1,4.3,2.1,4.2,4.5c0,1.1-0.5,2.1-1.3,2.9C30.4,368.1,29.2,368.5,28,368.5z M18.5,378.2v-2.9c0-0.7,0.2-1.4,0.6-2
		c0.4-0.5,0.9-1,1.5-1.3c1.2-0.6,2.5-1,3.8-1.3c1.2-0.3,2.4-0.4,3.6-0.4s2.4,0.2,3.6,0.5c1.3,0.3,2.5,0.8,3.8,1.3
		c0.6,0.3,1.1,0.7,1.5,1.3c0.4,0.6,0.6,1.3,0.6,2v2.9L18.5,378.2z"/>
</g>
</svg>
