<?xml version="1.0" encoding="utf-8"?>
<!-- Generator: Adobe Illustrator 27.4.1, SVG Export Plug-In . SVG Version: 6.00 Build 0)  -->
<svg version="1.1" id="Layer_1" xmlns="http://www.w3.org/2000/svg" xmlns:xlink="http://www.w3.org/1999/xlink" x="0px" y="0px"
	 viewBox="0 0 36 36" style="enable-background:new 0 0 36 36;" xml:space="preserve">
<style type="text/css">
	.st0{fill:none;}
	.st1{fill:#FFFFFF;}
</style>
<g id="그룹_58" transform="translate(-10 -579)">
	<rect id="사각형_13" x="10" y="579" class="st0" width="36" height="36"/>
	<path id="insert_chart_FILL1_wght500_GRAD0_opsz48" class="st1" d="M23,602.2h1.5v-7.1H23V602.2z M27.2,602.2h1.5v-10.4h-1.5V602.2
		z M31.5,602.2H33v-3.8h-1.5C31.5,598.4,31.5,602.2,31.5,602.2z M20.4,606.4c-1,0-1.7-0.8-1.7-1.7v-15.3c0-1,0.8-1.7,1.7-1.8h15.2
		c1,0,1.7,0.8,1.8,1.8v15.3c0,1-0.8,1.7-1.8,1.7H20.4z"/>
</g>
</svg>
