<?xml version="1.0" encoding="utf-8"?>
<!-- Generator: Adobe Illustrator 27.4.1, SVG Export Plug-In . SVG Version: 6.00 Build 0)  -->
<svg version="1.1" id="Layer_1" xmlns="http://www.w3.org/2000/svg" xmlns:xlink="http://www.w3.org/1999/xlink" x="0px" y="0px"
	 viewBox="0 0 36 36" style="enable-background:new 0 0 36 36;" xml:space="preserve">
<style type="text/css">
	.st0{fill:none;}
	.st1{fill:#FFFFFF;}
</style>
<g id="그룹_56" transform="translate(-10 -465)">
	<rect id="사각형_13" x="10" y="465" class="st0" width="36" height="36"/>
	<path id="folder_special_FILL1_wght400_GRAD0_opsz48" class="st1" d="M28.7,486.8l2-1.4l2,1.4l-0.7-2.4l2-1.6h-2.4l-0.8-2.3
		l-0.8,2.3h-2.4l2,1.6L28.7,486.8z M20.4,490c-0.4,0-0.7-0.2-0.9-0.4c-0.3-0.2-0.4-0.6-0.4-0.9V477c0-0.4,0.1-0.7,0.4-0.9
		c0.2-0.3,0.6-0.4,0.9-0.4h6.3l1.3,1.4h7.7c0.7,0,1.3,0.6,1.3,1.4v10.4c0,0.7-0.6,1.3-1.3,1.4L20.4,490z"/>
</g>
</svg>
