<svg xmlns="http://www.w3.org/2000/svg" width="330.453" height="378.496" viewBox="0 0 330.453 378.496">
  <g id="그룹_91" data-name="그룹 91" transform="translate(0 48.043)" opacity="0.1" style="mix-blend-mode: soft-light;isolation: isolate">
    <rect id="사각형_6" data-name="사각형 6" width="330.453" height="330.453" transform="translate(0 0)" fill="none"/>
    <g id="그룹_12" data-name="그룹 12" transform="translate(10 40.427)">
      <path id="합치기_1" data-name="합치기 1" d="M44.519,241.165C26.755,237.128,13.2,226.2,5.33,209.55A55.369,55.369,0,0,1,.046,191.174a10,10,0,1,1,19.912-1.892A36.076,36.076,0,0,0,23.411,201c5.226,11.048,13.819,18,25.542,20.665,17.086,3.883,39.049-2.016,54.649-14.68,13.525-10.981,23.631-27.188,27.032-43.352a10,10,0,0,1,19.574,4.117c-4.315,20.511-17.024,40.984-34,54.764a93.024,93.024,0,0,1-33.645,17.16,85.16,85.16,0,0,1-22.615,3.172A69.667,69.667,0,0,1,44.519,241.165Zm191.612-1.495a93.02,93.02,0,0,1-33.644-17.16c-16.976-13.782-29.687-34.254-34-54.764a10,10,0,1,1,19.573-4.118c3.4,16.164,13.505,32.371,27.034,43.353,15.6,12.663,37.56,18.563,54.648,14.679C281.464,219,290.057,212.044,295.284,201a36.04,36.04,0,0,0,3.454-11.713,10,10,0,1,1,19.912,1.891,55.393,55.393,0,0,1-5.285,18.375c-7.875,16.646-21.426,27.579-39.19,31.616a69.712,69.712,0,0,1-15.428,1.676A85.16,85.16,0,0,1,236.131,239.67Zm20.62-44.142c-32.027-9.489-43.416-45.635-43.886-47.168a10,10,0,0,1,1.975-9.438,72.036,72.036,0,1,0-109.382,0,10,10,0,0,1,1.974,9.438c-.469,1.534-11.859,37.679-43.886,47.168a10,10,0,0,1-5.682-19.178c8.941-2.649,16.759-9.08,23.237-19.113a71.923,71.923,0,0,0,5.375-10.03,92.038,92.038,0,1,1,147.351-.007c3.562,8.12,12.514,24.383,28.607,29.15a10,10,0,1,1-5.683,19.178ZM173.845,81a10.469,10.469,0,1,1,10.469,10.469A10.469,10.469,0,0,1,173.845,81Zm-49.191,0a10.469,10.469,0,1,1,10.469,10.469A10.469,10.469,0,0,1,124.654,81ZM222.546-25.5A20.968,20.968,0,0,1,243.514-46.47,20.969,20.969,0,0,1,264.483-25.5,20.969,20.969,0,0,1,243.514-4.532,20.969,20.969,0,0,1,222.546-25.5Zm0-52A10.969,10.969,0,0,1,233.514-88.47,10.969,10.969,0,0,1,244.483-77.5a10.969,10.969,0,0,1-10.969,10.968A10.968,10.968,0,0,1,222.546-77.5Z" transform="translate(0 0)" fill="#fff"/>
    </g>
  </g>
</svg>
