<?xml version="1.0" encoding="utf-8"?>
<!-- Generator: Adobe Illustrator 27.4.1, SVG Export Plug-In . SVG Version: 6.00 Build 0)  -->
<svg version="1.1" id="Layer_1" xmlns="http://www.w3.org/2000/svg" xmlns:xlink="http://www.w3.org/1999/xlink" x="0px" y="0px"
	 viewBox="0 0 36 36" style="enable-background:new 0 0 36 36;" xml:space="preserve">
<style type="text/css">
	.st0{fill:none;}
	.st1{fill:#FFFFFF;}
</style>
<g id="그룹_50" transform="translate(-10 -123)">
	<rect id="사각형_13" x="10" y="123" class="st0" width="36" height="36"/>
	<path id="settings_FILL1_wght500_GRAD0_opsz48" class="st1" d="M25.6,150.9l-0.5-3.1c-0.3-0.1-0.6-0.3-0.9-0.4
		c-0.3-0.2-0.6-0.4-0.8-0.6l-2.9,1.3l-2.4-4.2l2.6-1.9c0-0.2,0-0.3-0.1-0.5c0-0.2,0-0.3,0-0.5c0-0.1,0-0.3,0-0.5s0-0.3,0.1-0.5
		l-2.6-1.9l2.4-4.2l2.9,1.3c0.3-0.2,0.5-0.4,0.8-0.6c0.3-0.2,0.6-0.3,0.9-0.4l0.5-3.1h4.7l0.5,3.1c0.3,0.1,0.6,0.3,0.9,0.4
		c0.3,0.2,0.6,0.3,0.8,0.6l2.9-1.3l2.4,4.2l-2.6,1.9c0,0.2,0,0.3,0.1,0.5c0,0.2,0,0.3,0,0.5s0,0.3,0,0.5s0,0.3-0.1,0.5l2.6,1.9
		l-2.4,4.2l-2.9-1.3c-0.3,0.2-0.5,0.4-0.8,0.6c-0.3,0.2-0.6,0.3-0.9,0.4l-0.5,3.1H25.6L25.6,150.9z M28,144.3c1.7,0,3.1-1.4,3.1-3.1
		c0-1.7-1.4-3.1-3.1-3.1s-3.1,1.4-3.1,3.1c0,0.8,0.3,1.6,0.9,2.2C26.3,144,27.1,144.3,28,144.3L28,144.3z"/>
</g>
</svg>
