<?xml version="1.0" encoding="utf-8"?>
<!-- Generator: Adobe Illustrator 27.4.1, SVG Export Plug-In . SVG Version: 6.00 Build 0)  -->
<svg version="1.1" id="Layer_1" xmlns="http://www.w3.org/2000/svg" xmlns:xlink="http://www.w3.org/1999/xlink" x="0px" y="0px"
	 viewBox="0 0 36 36" style="enable-background:new 0 0 36 36;" xml:space="preserve">
<style type="text/css">
	.st0{fill:none;}
	.st1{fill:#FFFFFF;}
</style>
<g id="그룹_55" transform="translate(-10 -408)">
	<rect id="사각형_13" x="10" y="408" class="st0" width="36" height="36"/>
	<path id="sell_FILL1_wght400_GRAD0_opsz48" class="st1" d="M29.7,434.4c-0.5,0.5-1.4,0.5-1.9,0l-8.2-8.2c-0.1-0.1-0.2-0.3-0.3-0.5
		c-0.1-0.2-0.1-0.3-0.1-0.5v-6.7c0-0.7,0.5-1.3,1.2-1.3h0.1h6.7c0.2,0,0.4,0,0.5,0.1c0.2,0.1,0.4,0.2,0.5,0.3l8.2,8.2
		c0.5,0.5,0.6,1.4,0,1.9l0,0L29.7,434.4z M22.8,421.9c0.6,0,1.2-0.5,1.2-1.1s-0.5-1.2-1.1-1.2s-1.2,0.5-1.2,1.1
		c0,0.3,0.1,0.6,0.3,0.8C22.2,421.8,22.5,421.9,22.8,421.9L22.8,421.9z"/>
</g>
</svg>
