<?xml version="1.0" encoding="utf-8"?>
<!-- Generator: Adobe Illustrator 27.4.1, SVG Export Plug-In . SVG Version: 6.00 Build 0)  -->
<svg version="1.1" id="Layer_1" xmlns="http://www.w3.org/2000/svg" xmlns:xlink="http://www.w3.org/1999/xlink" x="0px" y="0px"
	 viewBox="0 0 36 36" style="enable-background:new 0 0 36 36;" xml:space="preserve">
<style type="text/css">
	.st0{fill:none;}
	.st1{fill:#FFFFFF;}
</style>
<g id="그룹_57" transform="translate(-10 -522)">
	<rect id="사각형_13" x="10" y="522" class="st0" width="36" height="36"/>
	<path id="campaign_FILL1_wght500_GRAD0_opsz48" class="st1" d="M34.8,540.9v-1.8h4.3v1.8H34.8z M36.3,548.8l-3.4-2.6l1.1-1.4
		l3.4,2.6L36.3,548.8z M34,535.1l-1.1-1.4l3.4-2.5l1.1,1.4L34,535.1L34,535.1z M20.4,547.7v-4.3h-1.7c-0.5,0-0.9-0.2-1.3-0.6
		c-0.3-0.3-0.5-0.8-0.5-1.3v-3.1c0-1,0.8-1.8,1.8-1.8l0,0h4.8l5.6-3.4v13.6l-5.6-3.4h-1.2v4.3L20.4,547.7z M30.2,543.8v-7.6
		c0.5,0.5,1,1,1.3,1.6c0.6,1.4,0.6,2.9,0,4.3C31.2,542.8,30.7,543.3,30.2,543.8z"/>
</g>
</svg>
