<svg xmlns="http://www.w3.org/2000/svg" width="30" height="30" viewBox="0 0 30 30">
  <g id="그룹_225" data-name="그룹 225" transform="translate(-5639 -2906.823)">
    <rect id="사각형_187" data-name="사각형 187" width="30" height="30" transform="translate(5639 2906.823)" fill="none"/>
    <path id="forum_FILL1_wght400_GRAD0_opsz48" d="M80-866.264v-12.713a1.013,1.013,0,0,1,.317-.682.907.907,0,0,1,.658-.341h12.64a.939.939,0,0,1,.682.329.994.994,0,0,1,.317.694v8.67a1.013,1.013,0,0,1-.317.682.926.926,0,0,1-.682.341H83.9l-3.264,3.264a.348.348,0,0,1-.414.1A.345.345,0,0,1,80-866.264Zm4.9,1.851a.943.943,0,0,1-.67-.341,1,1,0,0,1-.329-.682v-2.387H96.074V-876.1H98.51a.906.906,0,0,1,.658.341,1.035,1.035,0,0,1,.317.706v13.639a.345.345,0,0,1-.219.341.347.347,0,0,1-.414-.1l-3.239-3.239Z" transform="translate(5564.362 3792.351)" fill="#757497"/>
  </g>
</svg>
