<svg xmlns="http://www.w3.org/2000/svg" width="18" height="18" viewBox="0 0 18 18">
  <g id="그룹_263" data-name="그룹 263" transform="translate(-1328 -614)">
    <rect id="사각형_213" data-name="사각형 213" width="18" height="18" transform="translate(1328 614)" fill="none"/>
    <path id="Icon_simple-microsoftexcel" data-name="Icon simple-microsoftexcel" d="M10.827,1.654h-3.7v.684H8.22V3.42H7.131v.345H8.22V4.848H7.131V5.2H8.22V6.227H7.131v.41H8.22V7.664H7.131v.41H8.22V9.108H7.131v.753h3.7c.058-.017.107-.086.146-.206a1.008,1.008,0,0,0,.059-.292V1.779c0-.059-.02-.094-.059-.107A.506.506,0,0,0,10.827,1.654Zm-.479,7.453H8.574V8.075h1.773V9.108Zm0-1.442H8.574V6.637h1.773Zm0-1.438H8.574V5.207h1.773V6.228Zm0-1.379H8.574V3.765h1.773V4.848h0Zm0-1.434H8.574V2.338h1.773V3.414ZM0,1.483v8.55l6.509,1.126V.328L0,1.487ZM3.858,7.951q-.037-.1-.348-.856c-.206-.5-.331-.8-.367-.881H3.131l-.7,1.662L1.5,7.813,2.606,5.744,1.593,3.676l.952-.05.629,1.619h.012L3.9,3.552l.983-.062L3.708,5.729,4.915,8.012,3.858,7.95Z" transform="translate(1331.484 617.256)" fill="#359873"/>
  </g>
</svg>
