<svg xmlns="http://www.w3.org/2000/svg" width="16" height="16" viewBox="0 0 16 16">
  <g id="그룹_76" data-name="그룹 76" transform="translate(-503 -421)">
    <rect id="사각형_48" data-name="사각형 48" width="16" height="16" transform="translate(503 421)" fill="none"/>
    <path id="error_FILL0_wght400_GRAD0_opsz48" d="M85.866,184.8a.476.476,0,1,0-.345-.139A.469.469,0,0,0,85.866,184.8Zm-.4-2.244h.88v-3.711h-.88Zm.4,5.177a5.679,5.679,0,0,1-2.281-.462,5.926,5.926,0,0,1-3.128-3.129,5.872,5.872,0,0,1,0-4.566,5.87,5.87,0,0,1,1.261-1.86,6.021,6.021,0,0,1,1.868-1.254,5.872,5.872,0,0,1,4.566,0,5.864,5.864,0,0,1,3.114,3.117,5.869,5.869,0,0,1,0,4.565,5.992,5.992,0,0,1-1.254,1.864,5.922,5.922,0,0,1-1.863,1.261A5.674,5.674,0,0,1,85.871,187.733Zm0-.88a4.983,4.983,0,1,0-3.535-1.459A4.79,4.79,0,0,0,85.874,186.853ZM85.867,181.867Z" transform="translate(425.133 247.133)" fill="#aaa"/>
  </g>
</svg>
