<svg xmlns="http://www.w3.org/2000/svg" width="30" height="30" viewBox="0 0 30 30">
  <g id="그룹_223" data-name="그룹 223" transform="translate(-5705 -2907.404)">
    <rect id="사각형_190" data-name="사각형 190" width="30" height="30" transform="translate(5705 2907.404)" fill="none"/>
    <path id="receipt_long_FILL1_wght400_GRAD0_opsz48" d="M119.607-854.287a2.514,2.514,0,0,1-1.847-.76,2.514,2.514,0,0,1-.76-1.847v-1.117a.721.721,0,0,1,.214-.531.721.721,0,0,1,.531-.214h2.408V-873.5q0-.248.2-.248a.572.572,0,0,1,.4.2l.894.894,1.217-1.217a.356.356,0,0,1,.269-.124.384.384,0,0,1,.278.124l1.192,1.217,1.217-1.217a.356.356,0,0,1,.269-.124.384.384,0,0,1,.278.124l1.217,1.217,1.217-1.217a.356.356,0,0,1,.269-.124.384.384,0,0,1,.278.124l1.217,1.217,1.217-1.217a.356.356,0,0,1,.269-.124.384.384,0,0,1,.278.124l1.217,1.217.894-.894a.572.572,0,0,1,.4-.2q.2,0,.2.255v16.6a2.514,2.514,0,0,1-.76,1.847,2.514,2.514,0,0,1-1.847.76Zm12.771-1.49a1.039,1.039,0,0,0,.782-.31,1.112,1.112,0,0,0,.3-.807v-15.17H121.717v13.307h8.937a.722.722,0,0,1,.532.214.721.721,0,0,1,.214.531v1.113a1.259,1.259,0,0,0,.248.811A.879.879,0,0,0,132.378-855.777Zm-8.625-12.463a.675.675,0,0,1-.509-.223.751.751,0,0,1-.211-.534.7.7,0,0,1,.214-.521.726.726,0,0,1,.531-.211h4.469a.718.718,0,0,1,.531.215.727.727,0,0,1,.214.534.712.712,0,0,1-.214.529.726.726,0,0,1-.531.211Zm0,3.327a.675.675,0,0,1-.509-.224.75.75,0,0,1-.211-.534.7.7,0,0,1,.214-.521.726.726,0,0,1,.531-.211h4.469a.719.719,0,0,1,.531.215.727.727,0,0,1,.214.534.713.713,0,0,1-.214.529.727.727,0,0,1-.531.211Zm7.548-3.327a.715.715,0,0,1-.521-.223.715.715,0,0,1-.223-.521.714.714,0,0,1,.223-.521.714.714,0,0,1,.521-.224.714.714,0,0,1,.521.224.714.714,0,0,1,.223.521.715.715,0,0,1-.223.521A.715.715,0,0,1,131.3-868.24Zm0,3.2a.714.714,0,0,1-.521-.224.714.714,0,0,1-.223-.521.714.714,0,0,1,.223-.521.714.714,0,0,1,.521-.224.714.714,0,0,1,.521.224.714.714,0,0,1,.223.521.714.714,0,0,1-.223.521A.714.714,0,0,1,131.3-865.037Z" transform="translate(5594.334 3786.067)" fill="#757497"/>
  </g>
</svg>
