<?xml version="1.0" encoding="utf-8"?>
<!-- Generator: Adobe Illustrator 27.4.0, SVG Export Plug-In . SVG Version: 6.00 Build 0)  -->
<svg version="1.1" id="레이어_1" xmlns="http://www.w3.org/2000/svg" xmlns:xlink="http://www.w3.org/1999/xlink" x="0px"
	 y="0px" viewBox="0 0 249 249" style="enable-background:new 0 0 249 249;" xml:space="preserve">
<style type="text/css">
	.st0{fill:none;}
	.st1{fill:#AAAAAA;}
</style>
<g id="그룹_1281" transform="translate(-756 -524)">
	<path id="사각형_425" class="st0" d="M757.4,524.1h247c0.6,0,1,0.4,1,1v247c0,0.6-0.4,1-1,1h-247c-0.6,0-1-0.4-1-1v-247
		C756.4,524.5,756.8,524.1,757.4,524.1z"/>
	<path id="Icon_ionic-ios-checkmark" class="st1" d="M939.1,614.5l-10.3-10.6c-0.4-0.5-1-0.7-1.6-0.7l0,0c-0.6,0-1.2,0.2-1.6,0.7
		l-71.3,71.8l-25.9-25.9c-0.9-0.9-2.3-0.9-3.2-0.1l-0.1,0.1l-10.4,10.4c-0.9,0.9-0.9,2.4,0,3.3l0,0l32.7,32.7
		c1.8,1.9,4.2,3.1,6.8,3.3c3.1,0,5.8-2.3,6.8-3.2h0.1l78.1-78.5C940,616.9,940,615.4,939.1,614.5z"/>
</g>
</svg>
