<svg xmlns="http://www.w3.org/2000/svg" width="30" height="30" viewBox="0 0 30 30">
  <g id="그룹_224" data-name="그룹 224" transform="translate(-5671 -2907.475)">
    <rect id="사각형_188" data-name="사각형 188" width="30" height="30" transform="translate(5671 2907.475)" fill="none"/>
    <path id="inventory_FILL0_wght400_GRAD0_opsz48" d="M132.593-900.834l-4.03-4.03,1.083-1.083L132.593-903l6.019-6.019,1.083,1.083Zm5.541-10.427h-1.511v-5.214h-1.511v2.267H123.022v-2.267h-1.511v15.111h6.321v1.511h-6.321a1.468,1.468,0,0,1-1.083-.428,1.468,1.468,0,0,1-.428-1.083v-15.111a1.467,1.467,0,0,1,.428-1.083,1.468,1.468,0,0,1,1.083-.428H126.6a2.434,2.434,0,0,1,.869-1.448,2.453,2.453,0,0,1,1.6-.567,2.453,2.453,0,0,1,1.6.567,2.434,2.434,0,0,1,.869,1.448h5.087a1.468,1.468,0,0,1,1.083.428,1.467,1.467,0,0,1,.428,1.083Zm-9.067-5.214a.974.974,0,0,0,.718-.29.975.975,0,0,0,.29-.718.975.975,0,0,0-.29-.718.975.975,0,0,0-.718-.29.975.975,0,0,0-.718.29.975.975,0,0,0-.29.718.975.975,0,0,0,.29.718A.974.974,0,0,0,129.067-916.474Z" transform="translate(5556.079 3832.079)" fill="#757497"/>
  </g>
</svg>
