<svg xmlns="http://www.w3.org/2000/svg" xmlns:xlink="http://www.w3.org/1999/xlink" width="16.137" height="14.902" viewBox="0 0 16.137 14.902"><defs><style>.a,.c{fill:#666;}.b{clip-path:url(#a);}.c{fill-rule:evenodd;}</style><clipPath id="a"><rect class="a" width="16.137" height="14.902"/></clipPath></defs><g transform="translate(0 0)"><g class="b" transform="translate(0 0)"><path class="c" d="M8.068,0C3.613,0,0,2.853,0,6.373a6.212,6.212,0,0,0,3.743,5.381l-.76,2.838a.235.235,0,0,0,.058.242.224.224,0,0,0,.3.015L6.615,12.64a10.275,10.275,0,0,0,1.453.106c4.456,0,8.068-2.853,8.068-6.373S12.524,0,8.068,0" transform="translate(0 0)"/></g></g></svg>