<svg xmlns="http://www.w3.org/2000/svg" width="30" height="30" viewBox="0 0 30 30">
  <g id="그룹_33" data-name="그룹 33" transform="translate(-4152 32)">
    <rect id="사각형_18" data-name="사각형 18" width="30" height="30" transform="translate(4152 -32)" fill="none"/>
    <path id="Icon_awesome-user-circle" data-name="Icon awesome-user-circle" d="M10.385.563A10.385,10.385,0,1,0,20.769,10.947,10.383,10.383,0,0,0,10.385.563Zm0,4.02A3.685,3.685,0,1,1,6.7,8.267,3.685,3.685,0,0,1,10.385,4.582Zm0,14.4A8.024,8.024,0,0,1,4.25,16.131a4.669,4.669,0,0,1,4.125-2.5,1.025,1.025,0,0,1,.3.046,5.544,5.544,0,0,0,1.713.289,5.523,5.523,0,0,0,1.713-.289,1.025,1.025,0,0,1,.3-.046,4.669,4.669,0,0,1,4.125,2.5A8.024,8.024,0,0,1,10.385,18.987Z" transform="translate(4156.615 -27.947)" fill="#777"/>
  </g>
</svg>
