<svg xmlns="http://www.w3.org/2000/svg" width="36" height="36" viewBox="0 0 36 36">
  <g id="그룹_222" data-name="그룹 222" transform="translate(-5736.919 -2906.919)">
    <rect id="사각형_189" data-name="사각형 189" width="36" height="36" transform="translate(5736.919 2906.919)" fill="none"/>
    <path id="today_FILL1_wght400_GRAD0_opsz48" d="M126.686-863.63a2.678,2.678,0,0,1-1.976-.809,2.7,2.7,0,0,1-.8-1.982,2.678,2.678,0,0,1,.809-1.976,2.7,2.7,0,0,1,1.982-.8,2.678,2.678,0,0,1,1.976.809,2.7,2.7,0,0,1,.8,1.982,2.677,2.677,0,0,1-.809,1.976A2.7,2.7,0,0,1,126.686-863.63Zm-4.963,6.606a1.653,1.653,0,0,1-1.206-.517,1.653,1.653,0,0,1-.517-1.206v-17.806a1.653,1.653,0,0,1,.517-1.206,1.653,1.653,0,0,1,1.206-.517h1.867v-.8a.889.889,0,0,1,.264-.655.889.889,0,0,1,.655-.264.932.932,0,0,1,.675.264.876.876,0,0,1,.272.655v.8h9.765v-.8a.889.889,0,0,1,.264-.655.889.889,0,0,1,.655-.264.932.932,0,0,1,.675.264.876.876,0,0,1,.272.655v.8h1.867a1.653,1.653,0,0,1,1.206.517,1.653,1.653,0,0,1,.517,1.206v17.806a1.653,1.653,0,0,1-.517,1.206,1.653,1.653,0,0,1-1.206.517Zm0-1.723h17.232V-871.1H121.723Z" transform="translate(5624.317 3792.973)" fill="#fff"/>
  </g>
</svg>
