<svg xmlns="http://www.w3.org/2000/svg" xmlns:xlink="http://www.w3.org/1999/xlink" width="18" height="18" viewBox="0 0 18 18"><defs><style>.a{fill:none;}.b{clip-path:url(#a);}.c{fill:#767676;}</style><clipPath id="a"><rect class="a" width="18" height="18"/></clipPath></defs><g class="b"><rect class="a" width="18" height="18"/></g><path class="c" d="M53.463,263.013a2.525,2.525,0,1,0-1.8-.739A2.442,2.442,0,0,0,53.463,263.013Zm-.005-.865a1.6,1.6,0,0,1-1.183-.488,1.621,1.621,0,0,1-.485-1.186,1.6,1.6,0,0,1,.488-1.183,1.621,1.621,0,0,1,1.186-.485,1.6,1.6,0,0,1,1.183.488,1.621,1.621,0,0,1,.485,1.186,1.6,1.6,0,0,1-.488,1.183A1.621,1.621,0,0,1,53.457,262.148Zm0,2.805a6.662,6.662,0,0,1-3.753-1.119,7.534,7.534,0,0,1-2.617-2.956.538.538,0,0,1-.069-.181,1.1,1.1,0,0,1,0-.442.538.538,0,0,1,.069-.18,7.534,7.534,0,0,1,2.617-2.956,6.852,6.852,0,0,1,7.506,0,7.534,7.534,0,0,1,2.617,2.956.538.538,0,0,1,.069.18,1.1,1.1,0,0,1,0,.442.537.537,0,0,1-.069.181,7.534,7.534,0,0,1-2.617,2.956A6.662,6.662,0,0,1,53.461,264.953Z" transform="translate(-44.688 -251.476)"/></svg>