<svg xmlns="http://www.w3.org/2000/svg" xmlns:xlink="http://www.w3.org/1999/xlink" width="30" height="30" viewBox="0 0 30 30"><defs><style>.a{fill:none;}.b{fill:#627ad0;}.c{clip-path:url(#a);}.d{clip-path:url(#b);}</style><clipPath id="a"><rect class="a" width="30" height="30"/></clipPath><clipPath id="b"><rect class="b" width="12" height="21.817"/></clipPath></defs><g class="c"><g transform="translate(-3218 5807)"><g transform="translate(3246.817 -5798) rotate(90)"><g class="d" transform="translate(0 3)"><path class="b" d="M1.088,44.939A1.087,1.087,0,1,1,0,46.026a1.087,1.087,0,0,1,1.088-1.087" transform="translate(-0.001 -41.645)"/><path class="b" d="M1.088,88.98A1.087,1.087,0,1,1,0,90.067,1.087,1.087,0,0,1,1.088,88.98" transform="translate(-0.001 -82.457)"/><path class="b" d="M1.088,0A1.087,1.087,0,1,1,0,1.087,1.087,1.087,0,0,1,1.088,0" transform="translate(-0.001)"/><path class="b" d="M45.129,44.939a1.087,1.087,0,1,1-1.087,1.087,1.087,1.087,0,0,1,1.087-1.087" transform="translate(-40.813 -41.645)"/><path class="b" d="M45.129,88.98a1.087,1.087,0,1,1-1.087,1.087,1.087,1.087,0,0,1,1.087-1.087" transform="translate(-40.813 -82.457)"/><path class="b" d="M1.088,133.022A1.087,1.087,0,1,1,0,134.109a1.087,1.087,0,0,1,1.088-1.087" transform="translate(-0.001 -123.27)"/><path class="b" d="M45.129,133.022a1.087,1.087,0,1,1-1.087,1.087,1.087,1.087,0,0,1,1.087-1.087" transform="translate(-40.813 -123.27)"/><path class="b" d="M1.087,177.959A1.087,1.087,0,1,1,0,179.046a1.087,1.087,0,0,1,1.087-1.087" transform="translate(0 -164.913)"/><path class="b" d="M45.128,177.959a1.087,1.087,0,1,1-1.087,1.087,1.087,1.087,0,0,1,1.087-1.087" transform="translate(-40.812 -164.913)"/><path class="b" d="M1.088,222.057A1.087,1.087,0,1,1,0,223.144a1.087,1.087,0,0,1,1.088-1.087" transform="translate(-0.001 -205.778)"/><path class="b" d="M45.129,222.057a1.087,1.087,0,1,1-1.087,1.087,1.087,1.087,0,0,1,1.087-1.087" transform="translate(-40.813 -205.778)"/><path class="b" d="M91.025,88.98a1.087,1.087,0,1,1-1.087,1.087,1.087,1.087,0,0,1,1.087-1.087" transform="translate(-83.345 -82.457)"/><path class="b" d="M91.025,133.022a1.087,1.087,0,1,1-1.087,1.087,1.087,1.087,0,0,1,1.087-1.087" transform="translate(-83.345 -123.27)"/><path class="b" d="M91.024,177.959a1.087,1.087,0,1,1-1.087,1.087,1.087,1.087,0,0,1,1.087-1.087" transform="translate(-83.344 -164.913)"/><path class="b" d="M1.087,267.951A1.087,1.087,0,1,1,0,269.038a1.087,1.087,0,0,1,1.087-1.087" transform="translate(0 -248.308)"/><path class="b" d="M135.12,133.022a1.087,1.087,0,1,1-1.087,1.087,1.087,1.087,0,0,1,1.087-1.087" transform="translate(-124.207 -123.27)"/></g><rect class="a" width="30" height="30" transform="translate(-9 28.817) rotate(-90)"/></g></g></g></svg>