<svg xmlns="http://www.w3.org/2000/svg" width="16" height="16" viewBox="0 0 16 16">
  <g id="그룹_255" data-name="그룹 255" transform="translate(-861 -691)">
    <rect id="사각형_199" data-name="사각형 199" width="16" height="16" transform="translate(861 691)" fill="none"/>
    <path id="Icon_material-update" data-name="Icon material-update" d="M15.036,8.667H11.068l1.6-1.651a4.12,4.12,0,0,0-5.783-.059,4.024,4.024,0,0,0,0,5.73,4.108,4.108,0,0,0,5.783,0,3.812,3.812,0,0,0,1.194-2.862h1.171a5.467,5.467,0,0,1-1.545,3.681,5.3,5.3,0,0,1-7.445,0,5.174,5.174,0,0,1-.012-7.363,5.26,5.26,0,0,1,7.4,0l1.6-1.645ZM10.061,7.426V9.914l2.049,1.217-.421.708L9.183,10.353V7.426Z" transform="translate(859.167 689.169)" fill="#999"/>
  </g>
</svg>
