<svg xmlns="http://www.w3.org/2000/svg" width="30" height="30" viewBox="0 0 30 30">
  <g id="그룹_35" data-name="그룹 35" transform="translate(-1762 -15)">
    <g id="그룹_34" data-name="그룹 34" transform="translate(1762 15)">
      <rect id="사각형_19" data-name="사각형 19" width="30" height="30" fill="none"/>
      <path id="Icon_awesome-bell" data-name="Icon awesome-bell" d="M9.231,21.1a2.637,2.637,0,0,0,2.636-2.637H6.595A2.637,2.637,0,0,0,9.231,21.1Zm8.876-6.169c-.8-.855-2.286-2.142-2.286-6.358a6.508,6.508,0,0,0-5.272-6.394V1.319a1.318,1.318,0,1,0-2.636,0v.859A6.508,6.508,0,0,0,2.641,8.571c0,4.216-1.49,5.5-2.286,6.358A1.288,1.288,0,0,0,0,15.824a1.32,1.32,0,0,0,1.323,1.319H17.139a1.32,1.32,0,0,0,1.323-1.319A1.287,1.287,0,0,0,18.107,14.929Z" transform="translate(5.769 4.615)" fill="#777"/>
    </g>
  </g>
</svg>
