<svg xmlns="http://www.w3.org/2000/svg" xmlns:xlink="http://www.w3.org/1999/xlink" width="18" height="18" viewBox="0 0 18 18"><defs><style>.a{fill:none;}.b{clip-path:url(#a);}.c{fill:#627ad0;}</style><clipPath id="a"><rect class="a" width="18" height="18"/></clipPath></defs><g class="b"><g transform="translate(-1675 -92)"><rect class="a" width="18" height="18" transform="translate(1675 92)"/><g transform="translate(1676.5 93.5)"><path class="c" d="M13.674,12H18.7a1.676,1.676,0,0,1,1.674,1.674V18.7A1.676,1.676,0,0,1,18.7,20.37H13.674A1.676,1.676,0,0,1,12,18.7V13.674A1.676,1.676,0,0,1,13.674,12ZM18.7,19.254a.559.559,0,0,0,.558-.558V13.674a.559.559,0,0,0-.558-.558H13.674a.559.559,0,0,0-.558.558V18.7a.559.559,0,0,0,.558.558Z" transform="translate(-6.594 -6.594)"/><path class="c" d="M3.732,9.87H3.174A1.676,1.676,0,0,1,1.5,8.2V3.174A1.676,1.676,0,0,1,3.174,1.5H8.2A1.676,1.676,0,0,1,9.87,3.174v.558a.558.558,0,0,1-1.116,0V3.174A.559.559,0,0,0,8.2,2.616H3.174a.559.559,0,0,0-.558.558V8.2a.559.559,0,0,0,.558.558h.558a.558.558,0,0,1,0,1.116Z"/></g></g></g></svg>