<svg xmlns="http://www.w3.org/2000/svg" width="869.94" height="390.38" viewBox="0 0 869.94 390.38">
  <g id="그룹_314" data-name="그룹 314" transform="translate(179.489 -854.239)" opacity="0.04">
    <path id="패스_1" data-name="패스 1" d="M641.035,209.822l13.411-29.289L343.5,287.789l17.531-36.915L0,390.38l271.146-68.754-22.721,44,336.27-125.869-19.828,38.94L869.636,121.9ZM238.859,92.738l-3.433,27.029,27.644-5.028,3.284-27Zm47.723-29.133L270.777,202.093l-14.27,18.582-5.666-5.506,10.279-84.416L233.4,135.8,220.86,234.522,245.366,253.1l23.895-32.489,25.052,20.4,23.832-32.782,26.173,23.292,24.915-34.657,20.946,18.418,35.55-39.023,10.385-81.579-21.805,4.349-10.775,84.727-6.6,8.247-9.352-8.792,9.782-80.8-27.72,5.525-10.758,84.6-8.349,10.439-8.031-7.548,10.181-84.113-28.6,5.7-7.838,76.021L304.42,209.807l-7.824-6.866L314.176,58.5ZM462.791,163.93l8.233-70.671,15.791,7.89-7.035,53.69-11.5,13.895ZM719.953,52.924l13.967,15.334-15.687,9.822Zm70.345-13.1L801.85,53.95l-14.482,8.787ZM628.1,3.192,614.145,117.707l-15.633,17-3.063-3.061,9.415-72.982-27.855,7.176-8.036,64.176-12.243,15.5-5.061-4.642L560.3,68.831l-27.621,6.06-7.98,66.835-12.727,16.293-5.468-5.151,9.334-74.746L488.221,84.09l-.54,6.094L468.945,80.65,441.673,115.1l-7.7,61.206,26.605,22.746,23.257-31.44L504.8,185.478l21.608-28.759,19.708,16.987,21.07-28,20.2,17.743,26.454-29.623,21.6,17.1L640.58,99.2l22.242,45.416,28.9-28.233,18.5,16.246,55.41-31.444,14.329,13.037,52.294-30.95.569-11.471L792.163,95.158l-7.822-6.218,1.065-12.5,37.665-21.967-30.649-36.9-27.1,24.318-5.988,51.322L723.6,113.042l-8.941-7.664,1.456-13.105,40.489-22.615L723.461,30.246l-29.3,25.178-5.419,48.058-13.436,13.6L654.5,76.588l46.552-42.523L679.747,36.1l-34.038,30.13L653.719,0Z" transform="translate(-179.185 854.239)" fill="#db011c"/>
    <path id="패스_6" data-name="패스 6" d="M0,98.7,79.334,59.915,58.648,231.939,85.5,252.3l22.26-182.824L131.452,49.3l3.778,4.546L116.211,211.977l26.854,20.36L164.921,52.849l22.788-19.411,4.025,4.843L173.388,190.839,200.245,211.2,222.916,25,202.361,2,163.232,36.782,145.894,16.856l-35.449,30.58L116.224,0Z" transform="translate(-179.489 904.969)" fill="#db011c"/>
  </g>
</svg>
