<?xml version="1.0" encoding="utf-8"?>
<!-- Generator: Adobe Illustrator 27.7.0, SVG Export Plug-In . SVG Version: 6.00 Build 0)  -->
<svg version="1.1" id="Layer_1" xmlns="http://www.w3.org/2000/svg" xmlns:xlink="http://www.w3.org/1999/xlink" x="0px" y="0px"
	 viewBox="0 0 50 50" style="enable-background:new 0 0 50 50;" xml:space="preserve">
<style type="text/css">
	.st0{fill:none;}
	.st1{fill:#624EA4;}
</style>
<g id="그룹_13" transform="translate(-1377 -781.35)">
	<rect id="사각형_6" x="1377" y="781.3" class="st0" width="50" height="50"/>
	<g id="그룹_12">
		<path id="합치기_1" class="st1" d="M1413.9,823.8c-1.8-0.5-3.6-1.4-5-2.6c-2.6-2.1-4.4-5-5.1-8.2c-0.2-0.8,0.3-1.6,1.2-1.8
			c0,0,0,0,0,0c0.8-0.2,1.6,0.3,1.8,1.2c0,0,0,0,0,0c0.6,2.6,2,4.8,4.1,6.5c2.3,1.9,5.3,2.7,8.2,2.2c1.7-0.4,3.1-1.5,3.8-3.1
			c0.3-0.6,0.4-1.1,0.5-1.8c0.1-0.8,0.8-1.4,1.6-1.4c0,0,0,0,0,0c0.8,0.1,1.4,0.8,1.4,1.6c-0.1,1-0.4,1.9-0.8,2.8
			c-1.1,2.4-3.3,4.2-5.9,4.7c-0.8,0.2-1.5,0.3-2.3,0.3C1416.2,824.3,1415,824.1,1413.9,823.8z M1385.2,824c-2.6-0.6-4.8-2.3-5.9-4.7
			c-0.4-0.9-0.7-1.8-0.8-2.8c-0.1-0.8,0.5-1.6,1.4-1.6c0,0,0,0,0,0c0.8-0.1,1.6,0.5,1.6,1.4c0.1,0.6,0.2,1.2,0.5,1.8
			c0.7,1.6,2.1,2.7,3.8,3.1c2.9,0.5,5.9-0.3,8.2-2.2c2-1.7,3.5-3.9,4.1-6.5c0.2-0.8,1-1.3,1.8-1.2c0,0,0,0,0,0
			c0.8,0.2,1.3,1,1.2,1.8c-0.7,3.2-2.5,6.1-5.1,8.2c-1.5,1.2-3.2,2.1-5,2.6c-1.1,0.3-2.2,0.5-3.4,0.5
			C1386.7,824.3,1385.9,824.2,1385.2,824L1385.2,824z M1417,817.2c-4.8-1.4-6.5-6.8-6.6-7.1c-0.1-0.5,0-1,0.3-1.4
			c1.7-2,2.6-4.5,2.6-7c0-6-4.8-10.8-10.8-10.8c-6,0-10.8,4.8-10.8,10.8c0,2.6,0.9,5.1,2.6,7c0.3,0.4,0.4,0.9,0.3,1.4
			c-0.1,0.2-1.8,5.7-6.6,7.1c-0.8,0.2-1.6-0.2-1.9-1c0,0,0,0,0,0c-0.2-0.8,0.2-1.6,1-1.9c1.5-0.5,2.7-1.5,3.5-2.9
			c0.3-0.5,0.6-1,0.8-1.5c-1.8-2.4-2.8-5.3-2.8-8.3c0-3.7,1.4-7.2,4-9.8c2.6-2.6,6.1-4.1,9.8-4c3.7,0,7.2,1.4,9.8,4
			c2.6,2.6,4.1,6.1,4,9.8c0,3-1,5.9-2.8,8.3c0.5,1.2,1.9,3.7,4.3,4.4c0.8,0.2,1.2,1.1,1,1.9c0,0,0,0,0,0c-0.2,0.6-0.8,1.1-1.4,1.1
			C1417.3,817.2,1417.2,817.2,1417,817.2L1417,817.2z M1404.6,800c0-0.9,0.7-1.6,1.6-1.6l0,0c0.9,0,1.6,0.7,1.6,1.6l0,0
			c0,0.9-0.7,1.6-1.6,1.6l0,0C1405.3,801.6,1404.6,800.9,1404.6,800L1404.6,800z M1397.2,800c0-0.9,0.7-1.6,1.6-1.6l0,0
			c0.9,0,1.6,0.7,1.6,1.6l0,0c0,0.9-0.7,1.6-1.6,1.6l0,0C1397.9,801.6,1397.2,800.9,1397.2,800L1397.2,800z"/>
	</g>
</g>
</svg>
