<?xml version="1.0" encoding="UTF-8"?>
<svg id="_레이어_2" data-name="레이어 2" xmlns="http://www.w3.org/2000/svg" viewBox="0 0 157.07 66.77">
  <defs>
    <style>
      .cls-1 {
        fill: #fff;
        stroke-width: 0px;
      }
    </style>
  </defs>
  <g id="Layer_1" data-name="Layer 1">
    <g>
      <g>
        <path class="cls-1" d="M17.42,26.85c0-1.7-1.1-2.54-3.3-2.54-1.73,0-2.7.54-2.93,1.62-.08.67.12,1.22.6,1.67.53.42,1.29.79,2.29,1.12l2.89.79c2.53.67,4.47,1.59,5.82,2.77,1.35,1.18,2.03,2.74,2.03,4.68l-.11,1.79c-.6,3.61-2.25,6.22-4.94,7.85-2.69,1.62-5.79,2.43-9.29,2.43-3.3,0-5.94-.93-7.92-2.79-1.7-1.64-2.55-3.74-2.55-6.3l.04-1.04h8.52c0,1.17.39,1.99,1.16,2.48.77.49,1.61.73,2.52.73,2.15,0,3.41-.68,3.79-2.04v-.54c0-.58-.3-1.05-.9-1.39-.6-.35-1.89-.84-3.87-1.48-2.85-.75-5.04-1.69-6.57-2.81-1.53-1.12-2.29-2.85-2.29-5.18l.11-1.17.11-1c.3-1.69,1.01-3.24,2.14-4.64,1.13-1.4,2.64-2.5,4.54-3.29,1.9-.79,4.07-1.19,6.49-1.19,2.98,0,5.44.75,7.39,2.24,1.78,1.38,2.67,3.79,2.67,7.22h-8.45Z"/>
        <path class="cls-1" d="M48.04,26.31h7.17l-.6,3.5c2.18-2.72,4.63-4.09,7.36-4.09,1.95,0,3.5.51,4.65,1.54,1.15,1.03,1.73,2.74,1.73,5.13,0,.83-.08,1.71-.23,2.63l-2.14,13.18h-7.77l1.84-11.64.04-.67.04-.75c0-1.72-.74-2.59-2.21-2.59-1,0-1.8.32-2.4.96-.53.5-.96,1.67-1.31,3.5l-1.76,11.18h-7.84l3.45-21.9Z"/>
        <path class="cls-1" d="M86.48,26.31h6.87l-2.93,18.53c-.43,2.67-1.09,4.75-1.99,6.25-.83,1.55-2.06,2.69-3.72,3.42-1.65.72-3.8,1.08-6.46,1.08-2.23,0-4.31-.45-6.25-1.33-1.94-.89-2.91-2.54-2.91-4.96h7.85c0,1,.65,1.5,1.95,1.5.98,0,1.76-.29,2.36-.87.6-.52,1.06-1.58,1.39-3.18l.3-1.96c-1.63,1.58-3.68,2.38-6.16,2.38-1.95,0-3.62-.71-4.99-2.13-1.38-1.42-2.06-3.35-2.06-5.8l.11-.96.11-1.17c.6-3.92,1.91-6.8,3.94-8.63,2.03-1.84,4.25-2.75,6.68-2.75,1.3,0,2.39.32,3.27.96.9.58,1.63,1.43,2.18,2.54l.45-2.92ZM81.71,31.9c-1.35,0-2.28.54-2.8,1.63-.51,1.08-.93,2.56-1.26,4.42,0,2.11.93,3.17,2.78,3.17,1.33,0,2.31-.61,2.95-1.84.64-1.22.96-2.6.96-4.13,0-2.17-.88-3.25-2.63-3.25Z"/>
        <path class="cls-1" d="M108.85,26.69h8.72l-3.88,21.85h-8.63l3.8-21.85ZM110.39,17.72h8.72l-1.04,6.17h-8.72l1.04-6.17Z"/>
        <path class="cls-1" d="M120.68,26.64h3.3s1.21-6.8,1.21-6.8h8.56l-1.22,6.8h4.15s-.91,5.05-.91,5.05h-4.15s-1.46,8.14-1.46,8.14l-.17,1.04c0,.67.26,1.1.79,1.29.44.11.93.17,1.46.19.53.01,1.06.02,1.58.02l-1.04,6.17h-2l-2.92.17c-2.61,0-4.44-.28-5.46-.83-1.03-.56-1.54-1.64-1.54-3.25,0-.5.14-1.64.42-3.42l1.63-9.51h-3.05s.82-5.05.82-5.05Z"/>
      </g>
      <path class="cls-1" d="M36.06,29.37c-2.98-.64-5.25-2.41-5.25-2.41l-1.58,20.27s1.08,1.66,2.22,1.91c2.15.49,3.81-.27,3.81-.27l6.5-19.58s-3.24.6-5.69.08ZM34.38,47.7l-1.35-.03,4.79-16.14,1.56-.03-5,16.2Z"/>
      <path class="cls-1" d="M31.05,47.1c-1.06,2.23-1.88,4.62-2.44,7.03-.76,3.22-1.38,7.76,1.39,10.25,3.26,2.94,8.22,2.77,12.16,1.58,5.1-1.55,9.78-4.9,13-9.14,1.69-2.22,2.98-4.72,3.91-7.35.4-1.12.76-2.29.95-3.46.13-.77-1.05-1.1-1.18-.33-.47,2.9-1.73,5.78-3.23,8.28-2.68,4.46-6.9,8.03-11.69,10.05-3.68,1.55-8.39,2.4-12.02.24-1.44-.86-2.25-2.08-2.55-3.72-.31-1.7-.1-3.5.24-5.18.52-2.62,1.4-5.29,2.52-7.64.34-.71-.72-1.33-1.06-.62h0Z"/>
      <path class="cls-1" d="M123.68,30.58c2.01-3.23,3.71-6.72,5.11-10.25,1.09-2.74,1.98-5.6,2.31-8.54.27-2.42.11-5.14-1.37-7.18-1.71-2.35-4.62-3.72-7.41-4.26-3.44-.67-7.03-.29-10.41.59-8.39,2.17-16.24,7.35-21.91,13.85-3.94,4.51-7.22,9.87-9.16,15.55-.03.1-.07.19-.1.29-.24.75.95,1.08,1.18.33.41-1.3.96-2.57,1.53-3.8,1.44-3.09,3.19-6.05,5.22-8.79,5.1-6.86,12.36-12.37,20.42-15.27,5.69-2.05,13.52-3.35,18.51,1.03,4.04,3.54,2.14,9.96.59,14.28-1.42,3.98-3.36,7.72-5.47,11.37-.04.06-.08.12-.11.19-.42.67.64,1.29,1.06.62h0Z"/>
      <path class="cls-1" d="M154.68,24.36c-1.51,1.06-2.95,2.22-4.36,3.41-2.95,2.48-5.77,5.16-8.2,8.16-2.31,2.84-4.1,5.92-5.15,9.44-1.18,3.96-1.32,8.22.03,12.16,1.43,4.16,4.3,8.4,8.95,9.12,3.19.49,6.67-.56,8.79-3.05,2.48-2.9,2.87-7.08,1.6-10.6-1.36-3.76-4.51-6.33-8.05-7.97-5.31-2.46-11.55-3.23-17.37-2.89-.11,0-.22.01-.33.02-.78.06-.79,1.29,0,1.22,4.6-.38,9.49.15,13.89,1.49,3.37,1.03,6.93,2.74,9.13,5.59,2.14,2.78,2.89,6.72,1.6,10.03-1.16,2.97-3.98,4.81-7.11,5.02-1.68.11-3.35-.25-4.8-1.11-2-1.2-3.33-3.24-4.33-5.29-3.34-6.86-1.44-14.92,2.89-20.87,2.22-3.05,4.93-5.75,7.74-8.25,1.73-1.54,3.53-3.01,5.41-4.38.09-.07.18-.13.28-.2.64-.45.03-1.51-.62-1.06h0Z"/>
      <path class="cls-1" d="M45.55,14.68c-1.96-4.31-7.04-6.22-11.35-4.26-4.31,1.96-6.22,7.04-4.26,11.35,1.96,4.31,7.04,6.22,11.35,4.26,4.31-1.96,6.22-7.04,4.26-11.35ZM31.99,17.94c-.29-.02-.52-.04-.74-.06-.05-1.32.02-1.43.98-1.29-.08.47-.16.89-.24,1.34ZM32.95,16.18c.27.07.48.12.78.2-.13.77-.25,1.52-.37,2.25-1.01.18-.98-.1-.4-2.45ZM33.4,21.65c.47-2.67.93-5.33,1.41-8.04.32.06.54.1.87.16-.47,2.7-.94,5.36-1.41,8.06-.3-.07-.54-.12-.87-.19ZM35.08,20.5c.31-1.75.56-3.23.85-4.7.02-.1.3-.25.41-.22.16.05.41.26.4.37-.21,1.39-.43,2.77-.72,4.15-.03.15-.48.21-.94.4ZM35.99,23.63c.65-3.71,1.3-7.35,1.94-11.03.31.07.54.12.86.19-.64,3.68-1.28,7.32-1.94,11.04-.31-.07-.57-.13-.87-.2ZM37.83,21.62c.37-2.16.74-4.25,1.12-6.43.29.05.54.09.88.14-.38,2.14-.74,4.23-1.12,6.36-.31-.02-.54-.04-.88-.07ZM39.51,20.46c.21-1.2.4-2.36.61-3.59h.9c-.23,1.3-.45,2.55-.68,3.86-.33-.11-.55-.18-.83-.28ZM40.54,22.95c.48-2.72.94-5.37,1.42-8.06.47.04.93-.06.81.62-.45,2.48-.89,4.95-1.34,7.5-.29-.02-.54-.04-.88-.07ZM43.23,21.19c-.31-.07-.57-.13-.87-.19.19-1.11.37-2.14.54-3.17.09-.56.39-.64.96-.36-.2,1.19-.4,2.4-.62,3.72ZM44.86,20.23c-.31-.04-.56-.08-.87-.13.08-.46.14-.85.23-1.35.3.02.53.04.86.07-.08.47-.15.91-.23,1.41Z"/>
    </g>
  </g>
</svg>