<svg xmlns="http://www.w3.org/2000/svg" width="101.69" height="24.533" viewBox="0 0 101.69 24.533">
  <g id="그룹_14" data-name="그룹 14" transform="translate(-1166 -284.826)">
    <text id="OCTOPUS" transform="translate(1196.69 301.826)" fill="#fff" font-size="15" font-family="Pretendard-ExtraBold, Pretendard" font-weight="800" letter-spacing="-0.025em"><tspan x="0" y="0">OCTOPUS</tspan></text>
    <g id="그룹_13" data-name="그룹 13" transform="translate(1166 284.826)">
      <rect id="사각형_6" data-name="사각형 6" width="24.533" height="24.533" transform="translate(0 0)" fill="none"/>
      <g id="그룹_12" data-name="그룹 12" transform="translate(0.742 3.001)">
        <path id="합치기_1" data-name="합치기 1" d="M17.531,17.794a6.9,6.9,0,0,1-2.5-1.274,7.384,7.384,0,0,1-2.524-4.066.742.742,0,0,1,1.453-.306,5.852,5.852,0,0,0,2.007,3.218,5.062,5.062,0,0,0,4.057,1.09,2.843,2.843,0,0,0,2.153-2.4.742.742,0,1,1,1.478.14,4.323,4.323,0,0,1-3.3,3.711,5.161,5.161,0,0,1-1.145.125A6.314,6.314,0,0,1,17.531,17.794ZM3.305,17.9A4.139,4.139,0,0,1,.4,15.558,4.116,4.116,0,0,1,0,14.193a.742.742,0,1,1,1.478-.14,2.843,2.843,0,0,0,2.153,2.4,5.063,5.063,0,0,0,4.058-1.09A5.852,5.852,0,0,0,9.7,12.148a.742.742,0,1,1,1.453.306,7.384,7.384,0,0,1-2.524,4.066,6.9,6.9,0,0,1-2.5,1.274,6.319,6.319,0,0,1-1.679.236A5.155,5.155,0,0,1,3.305,17.9Zm15.756-3.388c-2.378-.7-3.223-3.388-3.258-3.5a.743.743,0,0,1,.147-.7,5.348,5.348,0,1,0-8.121,0,.743.743,0,0,1,.147.7c-.035.114-.88,2.8-3.258,3.5A.742.742,0,1,1,4.3,13.093a3.169,3.169,0,0,0,1.725-1.419,5.338,5.338,0,0,0,.4-.744,6.833,6.833,0,1,1,10.94,0,3.767,3.767,0,0,0,2.124,2.164.742.742,0,1,1-.422,1.424Zm-6.155-8.5a.777.777,0,1,1,.777.777A.777.777,0,0,1,12.907,6.014Zm-3.652,0a.777.777,0,1,1,.777.777A.777.777,0,0,1,9.255,6.014Z" transform="translate(0 0)" fill="#fff"/>
      </g>
    </g>
  </g>
</svg>
