<?xml version="1.0" encoding="UTF-8"?>
<svg id="_레이어_2" data-name="레이어 2" xmlns="http://www.w3.org/2000/svg" viewBox="0 0 87.68 87.68">
  <defs>
    <style>
      .cls-1 {
        fill: #fff;
        fill-rule: evenodd;
      }

      .cls-1, .cls-2 {
        stroke-width: 0px;
      }

      .cls-2 {
        fill: #ea2125;
      }
    </style>
  </defs>
  <g id="Layer_1" data-name="Layer 1">
    <g>
      <path class="cls-2" d="M13.64,0h60.4c7.53,0,13.64,6.11,13.64,13.64v60.4c0,7.53-6.11,13.64-13.64,13.64H13.64c-7.53,0-13.64-6.11-13.64-13.64V13.64C0,6.11,6.11,0,13.64,0Z"/>
      <g>
        <path class="cls-1" d="M28.09,30.68c-.29-1.55-1.34-2.58-2.71-3.17-1.46-.63-3.01-1.03-4.52-1.57-.66-.23-1.33-.48-1.91-.85-.78-.49-.71-1.52.05-2,1.46-.92,3.44-.18,3.87,1.46h6.05c.11-3.86-1.47-5.63-4.41-6.48-1.92-.55-3.87-.49-5.79-.06-3.1.69-6.35,2.75-6.67,7.41-.14,2,.44,3.66,2.3,4.62,1.14.58,2.36,1,3.56,1.46,1.05.41,2.14.72,3.17,1.18.83.36.98,1.33.37,2-.2.22-.48.41-.76.52-2,.82-3.67.02-4.23-2.01-.05-.02-.11-.05-.16-.05-1.86,0-3.71,0-5.57-.02-.39,0-.43.22-.44.53-.12,3.16,1.7,5.72,4.8,6.5,3.48.88,6.79.33,9.82-1.6,2.7-1.72,3.66-5.31,3.18-7.87Z"/>
        <path class="cls-1" d="M42.32,39.89h5.72c.36-2.26.68-4.5,1.08-6.73.2-1.11.43-2.22.81-3.28.34-.94,1.48-1.38,2.44-1.13.81.22,1.18.77,1.05,1.95-.21,1.9-.51,3.78-.78,5.67-.17,1.15-.36,2.3-.55,3.55,1.71,0,3.31-.03,4.91.02.62.02.83-.19.91-.79.3-2.08.67-4.16.99-6.24.27-1.75.66-3.49.53-5.28-.15-2.09-1.26-3.42-3.31-3.82-1.82-.36-3.49.02-4.96,1.18-.5.4-.95.85-1.48,1.33.12-.76.23-1.45.33-2.14-.12-.04-.17-.07-.23-.07-1.54,0-3.09,0-4.63-.01-.35,0-.4.2-.44.48-.65,4.14-1.31,8.28-1.97,12.42-.15.95-.28,1.91-.43,2.9Z"/>
        <path class="cls-1" d="M31.49,50.73c-.25,1.38-.48,2.76-.73,4.18h6.37c.25-1.5.5-2.96.75-4.49-2.1,0-4.08,0-6.07.01-.11,0-.3.18-.32.3Z"/>
        <path class="cls-1" d="M72.69,24.12c-.13,0-.33.28-.37.47-.11.42-.15.87-.23,1.41-.21-.29-.34-.48-.49-.66-.85-1.04-1.91-1.63-3.28-1.63-2.82,0-4.91,1.34-6.3,3.69-1.3,2.2-1.79,4.65-1.56,7.2.25,2.84,2.77,4.83,5.58,4.57,1.41-.13,2.65-.6,3.82-1.47-.22.99-.43,1.99-.84,2.89-.42.92-1.31,1.14-2.28,1.08-.67-.04-1.02-.4-1.13-1.02h-5.68c0,1.15.19,2.25,1.12,2.93.85.62,1.87,1.02,2.87,1.54-.02.01-.1.04-.16.09-4.19,3.62-7.92,7.6-10.06,12.83-.05.11-.21.25-.32.26-1.01.02-2.02.01-3.08.01.06-.44.13-.93.21-1.5h-2.94c.29-1.65.56-3.21.84-4.79-.11-.03-.19-.07-.26-.07-1.88,0-3.75-.02-5.63.01-.15,0-.39.28-.43.47-.23,1.17-.4,2.35-.64,3.51-.2.99.06.84-.98.86-.27,0-.55.04-.82,0-.58-.09-.83.16-.84.72,0,.17-.03.35-.07.52-.09.37-.08.86-.31,1.09-.68.68-1.47,1.26-2.21,1.88-.04-.03-.08-.05-.12-.08.23-1.33.46-2.66.68-3.99-.11-.04-.17-.07-.22-.07-1.91,0-3.83,0-5.74-.02-.4,0-.42.25-.47.53-.4,2.31-.8,4.61-1.18,6.92-.06.36-.25.49-.56.55-2.32.44-4.27-.51-5.38-2.6-1.09-2.08-1.34-4.3-.88-6.55,1.3-6.39,4.72-11.35,10.27-14.8.27-.17.65-.19.98-.24.59-.09,1.19-.13,1.78-.25.43-.09.72-.36.87-.84,1.31-4.35,2.65-8.69,3.98-13.03.05-.18.09-.36.17-.69-2.94,1.13-5.5.44-7.94-1.31-.1,1.29-.18,2.44-.27,3.58-.26,3.37-.5,6.73-.81,10.1-.07.74.06,1.29.67,1.7.02.01,0,.07.02.12-.07.05-.15.11-.23.16-2.59,1.61-4.73,3.7-6.51,6.17-2.27,3.14-3.79,6.59-4.03,10.51-.15,2.43.24,4.75,1.63,6.82.78,1.17,1.85,1.99,3.26,2.17.86.11,1.74.02,2.69.02-.38,2.24-.76,4.46-1.16,6.76h.65c1.68,0,3.36-.02,5.04.01.52.01.65-.19.73-.65.46-2.73.99-5.45,1.41-8.18.15-.96.5-1.66,1.36-2.14.42-.23.77-.6,1.16-.89.12-.09.26-.22.39-.23.67-.02,1.35-.01,2.03-.01-.01.16-.01.22-.02.27-.46,2.89-.94,5.77-1.37,8.66-.24,1.63.55,2.68,2.13,3.03,2.15.47,4.31.07,6.51.1.25-1.51.5-2.98.75-4.51-.37,0-.62,0-.87,0-.25-.01-.51-.04-.76-.06-.98-.09-1.23-.43-1.06-1.38.3-1.67.6-3.34.89-5.01.19-1.09.18-1.09,1.27-1.09h.94q.92,0,1.13-.85c.03-.11.08-.21.14-.37h3.05s.03.05.02.09c-.03.15-.06.31-.1.46-.68,3.15-.63,6.28.42,9.35.84,2.45,2.26,4.45,4.67,5.6,4.12,1.96,8.91-.3,9.82-4.74.65-3.18-.54-5.85-2.81-8.04-2.34-2.26-5.32-3.09-8.44-3.51-.67-.09-1.35-.14-2.18-.23.51-1,.92-1.92,1.43-2.78,2.33-3.98,5.52-7.21,9.04-10.14.16-.13.42-.16.64-.17,1.26-.09,2.54-.07,3.79-.26,1.87-.29,3.4-1.19,4.37-2.91.74-1.31,1.15-2.73,1.39-4.2.63-3.87,1.24-7.74,1.85-11.61.11-.68.2-1.37.3-2.13-1.64,0-3.17-.01-4.71.02ZM36.96,29.79c.12-.39.23-.79.35-1.18.22-.73.37-.81,1.24-.64-.06.24-.12.48-.19.72-1.04,3.37-2.08,6.74-3.12,10.11-.23.76-.23.76-1.13.59.96-3.22,1.9-6.42,2.85-9.61ZM64.1,62.5c2.28,1.8,3.29,4.21,3.01,7.12-.24,2.5-2.64,4.66-5.32,4.88-2.37.19-4.26-.68-5.65-2.56-2.09-2.83-2.86-6.04-2.51-9.51.1-1.03.37-2.05.58-3.12,3.62.34,7.03.95,9.88,3.19ZM70.14,33.46c-.25.67-.82,1.07-1.53,1.23-1.44.32-2.65-.68-2.42-2.14.17-1.07.49-2.12.87-3.13.41-1.06,1.77-1.5,2.81-1.03.66.3,1.17,1.15,1.15,2.25-.29.94-.52,1.9-.87,2.81Z"/>
        <path class="cls-1" d="M37.46,24.57c3.4,0,6.16-2.78,6.17-6.2,0-3.46-2.74-6.23-6.18-6.24-3.4,0-6.19,2.76-6.21,6.16-.02,3.47,2.76,6.28,6.22,6.27ZM41.88,19.04c.21.02.38.03.62.05-.05.34-.1.65-.16,1.01-.22-.03-.4-.06-.62-.09.06-.33.1-.61.16-.97ZM41.62,18.12c-.14.85-.29,1.72-.45,2.67-.22-.05-.41-.09-.62-.14.13-.79.26-1.53.38-2.28.07-.4.28-.46.69-.26ZM40.84,16.71c-.32,1.78-.64,3.55-.96,5.38-.21-.02-.39-.03-.63-.05.34-1.95.68-3.85,1.02-5.78.34.03.67-.05.58.45ZM39.59,17.69c-.16.93-.32,1.83-.49,2.77-.24-.08-.39-.13-.6-.2.15-.86.29-1.7.44-2.57h.65ZM38.73,16.59c-.27,1.53-.53,3.03-.8,4.56-.22-.02-.39-.03-.63-.05.27-1.55.53-3.05.8-4.61.21.03.39.06.63.1ZM37.99,14.76c-.46,2.64-.92,5.25-1.39,7.92-.22-.05-.41-.1-.62-.15.47-2.66.93-5.27,1.39-7.91.22.05.39.09.62.14ZM36.23,16.76c.12.04.3.19.29.27-.15,1-.31,1.99-.51,2.97-.02.11-.34.15-.68.29.22-1.26.4-2.32.61-3.37.01-.07.22-.18.3-.16ZM35.75,15.47c-.34,1.94-.67,3.85-1.01,5.78-.22-.05-.39-.08-.62-.14.34-1.92.67-3.82,1.01-5.76.23.04.39.07.62.12ZM33.8,17.19c.19.05.34.09.56.14-.09.55-.18,1.09-.27,1.62-.72.13-.7-.07-.29-1.76ZM33.28,17.49c-.06.34-.11.64-.17.96-.21-.02-.37-.03-.53-.04-.04-.95.01-1.02.7-.92Z"/>
      </g>
    </g>
  </g>
</svg>