<?xml version="1.0" encoding="utf-8"?>
<!-- Generator: Adobe Illustrator 27.6.1, SVG Export Plug-In . SVG Version: 6.00 Build 0)  -->
<svg version="1.1" id="Layer_1" xmlns="http://www.w3.org/2000/svg" xmlns:xlink="http://www.w3.org/1999/xlink" x="0px" y="0px"
	 viewBox="0 0 80 92" style="enable-background:new 0 0 80 92;" xml:space="preserve">
<style type="text/css">
	.st0{fill:none;}
	.st1{fill:#826BCC;}
	.st2{fill:#DDDDDD;}
</style>
<g>
	<rect id="사각형_609" class="st0" width="16" height="16"/>
	<path id="Icon_ionic-ios-star" class="st1" d="M14.5,6H9.9L8.5,1.9C8.4,1.7,8.1,1.5,7.8,1.6C7.7,1.7,7.6,1.8,7.5,1.9L6.1,6H1.5
		C1.2,6,1,6.2,1,6.5c0,0,0,0.1,0,0.1c0,0.1,0.1,0.3,0.2,0.3L5,9.6l-1.4,4.2c-0.1,0.2,0,0.4,0.2,0.6c0.1,0.1,0.2,0.1,0.3,0.1
		c0.1,0,0.2,0,0.3-0.1L8,11.7l3.7,2.6c0.1,0.1,0.2,0.1,0.3,0.1c0.1,0,0.2,0,0.3-0.1c0.2-0.1,0.2-0.4,0.2-0.6L11,9.6l3.7-2.6l0.1-0.1
		c0.2-0.2,0.2-0.5,0-0.7C14.8,6.1,14.6,6,14.5,6L14.5,6z"/>
</g>
<g>
	<rect id="사각형_609_00000155105509039486211890000010860307481448114617_" x="16" class="st0" width="16" height="16"/>
	<path id="Icon_ionic-ios-star_00000000919963370060597060000010278389153761393043_" class="st1" d="M30.5,6h-4.6l-1.4-4.1
		c-0.1-0.3-0.4-0.4-0.7-0.3c-0.1,0.1-0.2,0.2-0.3,0.3L22.1,6h-4.6C17.2,6,17,6.2,17,6.5c0,0,0,0.1,0,0.1c0,0.1,0.1,0.3,0.2,0.3
		L21,9.6l-1.4,4.2c-0.1,0.2,0,0.4,0.2,0.6c0.1,0.1,0.2,0.1,0.3,0.1c0.1,0,0.2,0,0.3-0.1l3.7-2.6l3.7,2.6c0.1,0.1,0.2,0.1,0.3,0.1
		c0.1,0,0.2,0,0.3-0.1c0.2-0.1,0.2-0.4,0.2-0.6L27,9.6l3.7-2.6l0.1-0.1c0.2-0.2,0.2-0.5,0-0.7C30.8,6.1,30.6,6,30.5,6L30.5,6z"/>
</g>
<g>
	<rect id="사각형_609_00000079471826747301413460000016558971809412013475_" x="48" class="st0" width="16" height="16"/>
	<path id="Icon_ionic-ios-star_00000152964592673578640860000004160578022319369397_" class="st1" d="M62.5,6h-4.6l-1.4-4.1
		c-0.1-0.3-0.4-0.4-0.7-0.3c-0.1,0.1-0.2,0.2-0.3,0.3L54.1,6h-4.6C49.2,6,49,6.2,49,6.5c0,0,0,0.1,0,0.1c0,0.1,0.1,0.3,0.2,0.3
		L53,9.6l-1.4,4.2c-0.1,0.2,0,0.4,0.2,0.6c0.1,0.1,0.2,0.1,0.3,0.1c0.1,0,0.2,0,0.3-0.1l3.7-2.6l3.7,2.6c0.1,0.1,0.2,0.1,0.3,0.1
		c0.1,0,0.2,0,0.3-0.1c0.2-0.1,0.2-0.4,0.2-0.6L59,9.6l3.7-2.6l0.1-0.1c0.2-0.2,0.2-0.5,0-0.7C62.8,6.1,62.6,6,62.5,6L62.5,6z"/>
</g>
<g>
	<rect id="사각형_609_00000132777858520245547750000001913593795565176449_" x="32" class="st0" width="16" height="16"/>
	<path id="Icon_ionic-ios-star_00000109031853091613668400000013801555271203930550_" class="st1" d="M46.5,6h-4.6l-1.4-4.1
		c-0.1-0.3-0.4-0.4-0.7-0.3c-0.1,0.1-0.2,0.2-0.3,0.3L38.1,6h-4.6C33.2,6,33,6.2,33,6.5c0,0,0,0.1,0,0.1c0,0.1,0.1,0.3,0.2,0.3
		L37,9.6l-1.4,4.2c-0.1,0.2,0,0.4,0.2,0.6c0.1,0.1,0.2,0.1,0.3,0.1c0.1,0,0.2,0,0.3-0.1l3.7-2.6l3.7,2.6c0.1,0.1,0.2,0.1,0.3,0.1
		c0.1,0,0.2,0,0.3-0.1c0.2-0.1,0.2-0.4,0.2-0.6L43,9.6l3.7-2.6l0.1-0.1c0.2-0.2,0.2-0.5,0-0.7C46.8,6.1,46.6,6,46.5,6L46.5,6z"/>
</g>
<g>
	<rect id="사각형_609_00000018204509129320030150000013828236012543080859_" x="64" class="st0" width="16" height="16"/>
	<path id="Icon_ionic-ios-star_00000058579338394760572050000013979668742418292884_" class="st1" d="M78.5,6h-4.6l-1.4-4.1
		c-0.1-0.3-0.4-0.4-0.7-0.3c-0.1,0.1-0.2,0.2-0.3,0.3L70.1,6h-4.6C65.2,6,65,6.2,65,6.5c0,0,0,0.1,0,0.1c0,0.1,0.1,0.3,0.2,0.3
		L69,9.6l-1.4,4.2c-0.1,0.2,0,0.4,0.2,0.6c0.1,0.1,0.2,0.1,0.3,0.1c0.1,0,0.2,0,0.3-0.1l3.7-2.6l3.7,2.6c0.1,0.1,0.2,0.1,0.3,0.1
		c0.1,0,0.2,0,0.3-0.1c0.2-0.1,0.2-0.4,0.2-0.6L75,9.6l3.7-2.6l0.1-0.1c0.2-0.2,0.2-0.5,0-0.7C78.8,6.1,78.6,6,78.5,6L78.5,6z"/>
</g>
<g>
	<rect id="사각형_609_00000183940676578437075800000003473903732375213246_" y="76" class="st0" width="16" height="16"/>
	<path id="Icon_ionic-ios-star_00000144308314878181647150000002195530943141662864_" class="st1" d="M14.5,82H9.9l-1.4-4.1
		c-0.1-0.3-0.4-0.4-0.7-0.3c-0.1,0.1-0.2,0.2-0.3,0.3L6.1,82H1.5C1.2,82,1,82.2,1,82.5c0,0,0,0.1,0,0.1c0,0.1,0.1,0.3,0.2,0.3
		L5,85.6l-1.4,4.2c-0.1,0.2,0,0.4,0.2,0.6c0.1,0.1,0.2,0.1,0.3,0.1c0.1,0,0.2,0,0.3-0.1L8,87.7l3.7,2.6c0.1,0.1,0.2,0.1,0.3,0.1
		c0.1,0,0.2,0,0.3-0.1c0.2-0.1,0.2-0.4,0.2-0.6L11,85.6l3.7-2.7l0.1-0.1c0.2-0.2,0.2-0.5,0-0.7C14.8,82.1,14.6,82,14.5,82L14.5,82z"
		/>
</g>
<g>
	<rect id="사각형_609_00000115497606434536255730000013342837213335392439_" x="16" y="76" class="st0" width="16" height="16"/>
	<path id="Icon_ionic-ios-star_00000175309804211219004680000006061102126107021193_" class="st2" d="M30.5,82h-4.6l-1.4-4.1
		c-0.1-0.3-0.4-0.4-0.7-0.3c-0.1,0.1-0.2,0.2-0.3,0.3L22.1,82h-4.6c-0.3,0-0.5,0.2-0.5,0.5c0,0,0,0.1,0,0.1c0,0.1,0.1,0.3,0.2,0.3
		l3.8,2.6l-1.4,4.2c-0.1,0.2,0,0.4,0.2,0.6c0.1,0.1,0.2,0.1,0.3,0.1c0.1,0,0.2,0,0.3-0.1l3.7-2.6l3.7,2.6c0.1,0.1,0.2,0.1,0.3,0.1
		c0.1,0,0.2,0,0.3-0.1c0.2-0.1,0.2-0.4,0.2-0.6L27,85.6l3.7-2.7l0.1-0.1c0.2-0.2,0.2-0.5,0-0.7C30.8,82.1,30.6,82,30.5,82L30.5,82z"
		/>
</g>
<g>
	<rect id="사각형_609_00000110469206873234847750000000089719227292415909_" x="48" y="76" class="st0" width="16" height="16"/>
	<path id="Icon_ionic-ios-star_00000060000091706344018280000011871969491828251796_" class="st2" d="M62.5,82h-4.6l-1.4-4.1
		c-0.1-0.3-0.4-0.4-0.7-0.3c-0.1,0.1-0.2,0.2-0.3,0.3L54.1,82h-4.6c-0.3,0-0.5,0.2-0.5,0.5c0,0,0,0.1,0,0.1c0,0.1,0.1,0.3,0.2,0.3
		l3.8,2.6l-1.4,4.2c-0.1,0.2,0,0.4,0.2,0.6c0.1,0.1,0.2,0.1,0.3,0.1c0.1,0,0.2,0,0.3-0.1l3.7-2.6l3.7,2.6c0.1,0.1,0.2,0.1,0.3,0.1
		c0.1,0,0.2,0,0.3-0.1c0.2-0.1,0.2-0.4,0.2-0.6L59,85.6l3.7-2.7l0.1-0.1c0.2-0.2,0.2-0.5,0-0.7C62.8,82.1,62.6,82,62.5,82L62.5,82z"
		/>
</g>
<g>
	<rect id="사각형_609_00000078754354247719876930000002496280679940255625_" x="32" y="76" class="st0" width="16" height="16"/>
	<path id="Icon_ionic-ios-star_00000111180662776574759860000018217848465429352353_" class="st2" d="M46.5,82h-4.6l-1.4-4.1
		c-0.1-0.3-0.4-0.4-0.7-0.3c-0.1,0.1-0.2,0.2-0.3,0.3L38.1,82h-4.6c-0.3,0-0.5,0.2-0.5,0.5c0,0,0,0.1,0,0.1c0,0.1,0.1,0.3,0.2,0.3
		l3.8,2.6l-1.4,4.2c-0.1,0.2,0,0.4,0.2,0.6c0.1,0.1,0.2,0.1,0.3,0.1c0.1,0,0.2,0,0.3-0.1l3.7-2.6l3.7,2.6c0.1,0.1,0.2,0.1,0.3,0.1
		c0.1,0,0.2,0,0.3-0.1c0.2-0.1,0.2-0.4,0.2-0.6L43,85.6l3.7-2.7l0.1-0.1c0.2-0.2,0.2-0.5,0-0.7C46.8,82.1,46.6,82,46.5,82L46.5,82z"
		/>
</g>
<g>
	<rect id="사각형_609_00000112617648994850821090000014022128461655521935_" x="64" y="76" class="st0" width="16" height="16"/>
	<path id="Icon_ionic-ios-star_00000008130127215891016590000003496277549125591710_" class="st2" d="M78.5,82h-4.6l-1.4-4.1
		c-0.1-0.3-0.4-0.4-0.7-0.3c-0.1,0.1-0.2,0.2-0.3,0.3L70.1,82h-4.6c-0.3,0-0.5,0.2-0.5,0.5c0,0,0,0.1,0,0.1c0,0.1,0.1,0.3,0.2,0.3
		l3.8,2.6l-1.4,4.2c-0.1,0.2,0,0.4,0.2,0.6c0.1,0.1,0.2,0.1,0.3,0.1c0.1,0,0.2,0,0.3-0.1l3.7-2.6l3.7,2.6c0.1,0.1,0.2,0.1,0.3,0.1
		c0.1,0,0.2,0,0.3-0.1c0.2-0.1,0.2-0.4,0.2-0.6L75,85.6l3.7-2.7l0.1-0.1c0.2-0.2,0.2-0.5,0-0.7C78.8,82.1,78.6,82,78.5,82L78.5,82z"
		/>
</g>
<g>
	<rect id="사각형_609_00000163755781620130762980000016415537210501749674_" y="19" class="st0" width="16" height="16"/>
	<path id="Icon_ionic-ios-star_00000117670862008346894210000017970238739928299138_" class="st1" d="M14.5,25H9.9l-1.4-4.1
		c-0.1-0.3-0.4-0.4-0.7-0.3c-0.1,0.1-0.2,0.2-0.3,0.3L6.1,25H1.5C1.2,25,1,25.2,1,25.5c0,0,0,0.1,0,0.1c0,0.1,0.1,0.3,0.2,0.3
		L5,28.6l-1.4,4.2c-0.1,0.2,0,0.4,0.2,0.6c0.1,0.1,0.2,0.1,0.3,0.1c0.1,0,0.2,0,0.3-0.1L8,30.7l3.7,2.6c0.1,0.1,0.2,0.1,0.3,0.1
		c0.1,0,0.2,0,0.3-0.1c0.2-0.1,0.2-0.4,0.2-0.6L11,28.6l3.7-2.6l0.1-0.1c0.2-0.2,0.2-0.5,0-0.7C14.8,25.1,14.6,25,14.5,25L14.5,25z"
		/>
</g>
<g>
	<rect id="사각형_609_00000132083700218165246700000009022431360958264227_" x="16" y="19" class="st0" width="16" height="16"/>
	<path id="Icon_ionic-ios-star_00000101822404588376474500000004536028185205220760_" class="st1" d="M30.5,25h-4.6l-1.4-4.1
		c-0.1-0.3-0.4-0.4-0.7-0.3c-0.1,0.1-0.2,0.2-0.3,0.3L22.1,25h-4.6c-0.3,0-0.5,0.2-0.5,0.5c0,0,0,0.1,0,0.1c0,0.1,0.1,0.3,0.2,0.3
		l3.8,2.6l-1.4,4.2c-0.1,0.2,0,0.4,0.2,0.6c0.1,0.1,0.2,0.1,0.3,0.1c0.1,0,0.2,0,0.3-0.1l3.7-2.6l3.7,2.6c0.1,0.1,0.2,0.1,0.3,0.1
		c0.1,0,0.2,0,0.3-0.1c0.2-0.1,0.2-0.4,0.2-0.6L27,28.6l3.7-2.6l0.1-0.1c0.2-0.2,0.2-0.5,0-0.7C30.8,25.1,30.6,25,30.5,25L30.5,25z"
		/>
</g>
<g>
	<rect id="사각형_609_00000101823365358570967040000006645580618506379674_" x="48" y="19" class="st0" width="16" height="16"/>
	<path id="Icon_ionic-ios-star_00000140002479687687463260000011212789184969087661_" class="st1" d="M62.5,25h-4.6l-1.4-4.1
		c-0.1-0.3-0.4-0.4-0.7-0.3c-0.1,0.1-0.2,0.2-0.3,0.3L54.1,25h-4.6c-0.3,0-0.5,0.2-0.5,0.5c0,0,0,0.1,0,0.1c0,0.1,0.1,0.3,0.2,0.3
		l3.8,2.6l-1.4,4.2c-0.1,0.2,0,0.4,0.2,0.6c0.1,0.1,0.2,0.1,0.3,0.1c0.1,0,0.2,0,0.3-0.1l3.7-2.6l3.7,2.6c0.1,0.1,0.2,0.1,0.3,0.1
		c0.1,0,0.2,0,0.3-0.1c0.2-0.1,0.2-0.4,0.2-0.6L59,28.6l3.7-2.6l0.1-0.1c0.2-0.2,0.2-0.5,0-0.7C62.8,25.1,62.6,25,62.5,25L62.5,25z"
		/>
</g>
<g>
	<rect id="사각형_609_00000109004044637719747670000002137844101838543760_" x="32" y="19" class="st0" width="16" height="16"/>
	<path id="Icon_ionic-ios-star_00000076583300188579902730000004502781020194011552_" class="st1" d="M46.5,25h-4.6l-1.4-4.1
		c-0.1-0.3-0.4-0.4-0.7-0.3c-0.1,0.1-0.2,0.2-0.3,0.3L38.1,25h-4.6c-0.3,0-0.5,0.2-0.5,0.5c0,0,0,0.1,0,0.1c0,0.1,0.1,0.3,0.2,0.3
		l3.8,2.6l-1.4,4.2c-0.1,0.2,0,0.4,0.2,0.6c0.1,0.1,0.2,0.1,0.3,0.1c0.1,0,0.2,0,0.3-0.1l3.7-2.6l3.7,2.6c0.1,0.1,0.2,0.1,0.3,0.1
		c0.1,0,0.2,0,0.3-0.1c0.2-0.1,0.2-0.4,0.2-0.6L43,28.6l3.7-2.6l0.1-0.1c0.2-0.2,0.2-0.5,0-0.7C46.8,25.1,46.6,25,46.5,25L46.5,25z"
		/>
</g>
<g>
	<rect id="사각형_609_00000048487045457838039910000003602859362864027318_" x="64" y="19" class="st0" width="16" height="16"/>
	<path id="Icon_ionic-ios-star_00000135685798186912333430000002423040117836330909_" class="st2" d="M78.5,25h-4.6l-1.4-4.1
		c-0.1-0.3-0.4-0.4-0.7-0.3c-0.1,0.1-0.2,0.2-0.3,0.3L70.1,25h-4.6c-0.3,0-0.5,0.2-0.5,0.5c0,0,0,0.1,0,0.1c0,0.1,0.1,0.3,0.2,0.3
		l3.8,2.6l-1.4,4.2c-0.1,0.2,0,0.4,0.2,0.6c0.1,0.1,0.2,0.1,0.3,0.1c0.1,0,0.2,0,0.3-0.1l3.7-2.6l3.7,2.6c0.1,0.1,0.2,0.1,0.3,0.1
		c0.1,0,0.2,0,0.3-0.1c0.2-0.1,0.2-0.4,0.2-0.6L75,28.6l3.7-2.6l0.1-0.1c0.2-0.2,0.2-0.5,0-0.7C78.8,25.1,78.6,25,78.5,25L78.5,25z"
		/>
</g>
<g>
	<rect id="사각형_609_00000175297889708927644780000004667293867231422360_" y="38" class="st0" width="16" height="16"/>
	<path id="Icon_ionic-ios-star_00000091723138825465178390000017299416196864890543_" class="st1" d="M14.5,44H9.9l-1.4-4.1
		c-0.1-0.3-0.4-0.4-0.7-0.3c-0.1,0.1-0.2,0.2-0.3,0.3L6.1,44H1.5C1.2,44,1,44.2,1,44.5c0,0,0,0.1,0,0.1c0,0.1,0.1,0.3,0.2,0.3
		L5,47.6l-1.4,4.2c-0.1,0.2,0,0.4,0.2,0.6c0.1,0.1,0.2,0.1,0.3,0.1c0.1,0,0.2,0,0.3-0.1L8,49.7l3.7,2.6c0.1,0.1,0.2,0.1,0.3,0.1
		c0.1,0,0.2,0,0.3-0.1c0.2-0.1,0.2-0.4,0.2-0.6L11,47.6l3.7-2.6l0.1-0.1c0.2-0.2,0.2-0.5,0-0.7C14.8,44.1,14.6,44,14.5,44L14.5,44z"
		/>
</g>
<g>
	<rect id="사각형_609_00000175301794870560257440000006400583735999247237_" x="16" y="38" class="st0" width="16" height="16"/>
	<path id="Icon_ionic-ios-star_00000061462621518608365930000001475298993772570500_" class="st1" d="M30.5,44h-4.6l-1.4-4.1
		c-0.1-0.3-0.4-0.4-0.7-0.3c-0.1,0.1-0.2,0.2-0.3,0.3L22.1,44h-4.6c-0.3,0-0.5,0.2-0.5,0.5c0,0,0,0.1,0,0.1c0,0.1,0.1,0.3,0.2,0.3
		l3.8,2.6l-1.4,4.2c-0.1,0.2,0,0.4,0.2,0.6c0.1,0.1,0.2,0.1,0.3,0.1c0.1,0,0.2,0,0.3-0.1l3.7-2.6l3.7,2.6c0.1,0.1,0.2,0.1,0.3,0.1
		c0.1,0,0.2,0,0.3-0.1c0.2-0.1,0.2-0.4,0.2-0.6L27,47.6l3.7-2.6l0.1-0.1c0.2-0.2,0.2-0.5,0-0.7C30.8,44.1,30.6,44,30.5,44L30.5,44z"
		/>
</g>
<g>
	<rect id="사각형_609_00000152254470935646449300000006346927418114569611_" x="48" y="38" class="st0" width="16" height="16"/>
	<path id="Icon_ionic-ios-star_00000060732069084017255490000003450748423036789677_" class="st2" d="M62.5,44h-4.6l-1.4-4.1
		c-0.1-0.3-0.4-0.4-0.7-0.3c-0.1,0.1-0.2,0.2-0.3,0.3L54.1,44h-4.6c-0.3,0-0.5,0.2-0.5,0.5c0,0,0,0.1,0,0.1c0,0.1,0.1,0.3,0.2,0.3
		l3.8,2.6l-1.4,4.2c-0.1,0.2,0,0.4,0.2,0.6c0.1,0.1,0.2,0.1,0.3,0.1c0.1,0,0.2,0,0.3-0.1l3.7-2.6l3.7,2.6c0.1,0.1,0.2,0.1,0.3,0.1
		c0.1,0,0.2,0,0.3-0.1c0.2-0.1,0.2-0.4,0.2-0.6L59,47.6l3.7-2.6l0.1-0.1c0.2-0.2,0.2-0.5,0-0.7C62.8,44.1,62.6,44,62.5,44L62.5,44z"
		/>
</g>
<g>
	<rect id="사각형_609_00000160157964156336155530000013658338761488212900_" x="32" y="38" class="st0" width="16" height="16"/>
	<path id="Icon_ionic-ios-star_00000123417159098973465450000009729999965406936214_" class="st1" d="M46.5,44h-4.6l-1.4-4.1
		c-0.1-0.3-0.4-0.4-0.7-0.3c-0.1,0.1-0.2,0.2-0.3,0.3L38.1,44h-4.6c-0.3,0-0.5,0.2-0.5,0.5c0,0,0,0.1,0,0.1c0,0.1,0.1,0.3,0.2,0.3
		l3.8,2.6l-1.4,4.2c-0.1,0.2,0,0.4,0.2,0.6c0.1,0.1,0.2,0.1,0.3,0.1c0.1,0,0.2,0,0.3-0.1l3.7-2.6l3.7,2.6c0.1,0.1,0.2,0.1,0.3,0.1
		c0.1,0,0.2,0,0.3-0.1c0.2-0.1,0.2-0.4,0.2-0.6L43,47.6l3.7-2.6l0.1-0.1c0.2-0.2,0.2-0.5,0-0.7C46.8,44.1,46.6,44,46.5,44L46.5,44z"
		/>
</g>
<g>
	<rect id="사각형_609_00000098209768921701445510000018320385011784188347_" x="64" y="38" class="st0" width="16" height="16"/>
	<path id="Icon_ionic-ios-star_00000142139298223130522810000014296012898616202632_" class="st2" d="M78.5,44h-4.6l-1.4-4.1
		c-0.1-0.3-0.4-0.4-0.7-0.3c-0.1,0.1-0.2,0.2-0.3,0.3L70.1,44h-4.6c-0.3,0-0.5,0.2-0.5,0.5c0,0,0,0.1,0,0.1c0,0.1,0.1,0.3,0.2,0.3
		l3.8,2.6l-1.4,4.2c-0.1,0.2,0,0.4,0.2,0.6c0.1,0.1,0.2,0.1,0.3,0.1c0.1,0,0.2,0,0.3-0.1l3.7-2.6l3.7,2.6c0.1,0.1,0.2,0.1,0.3,0.1
		c0.1,0,0.2,0,0.3-0.1c0.2-0.1,0.2-0.4,0.2-0.6L75,47.6l3.7-2.6l0.1-0.1c0.2-0.2,0.2-0.5,0-0.7C78.8,44.1,78.6,44,78.5,44L78.5,44z"
		/>
</g>
<g>
	<rect id="사각형_609_00000183251135321268709520000004773090822689731468_" y="57" class="st0" width="16" height="16"/>
	<path id="Icon_ionic-ios-star_00000134246597442500547280000015446201549487548295_" class="st1" d="M14.5,63H9.9l-1.4-4.1
		c-0.1-0.3-0.4-0.4-0.7-0.3c-0.1,0.1-0.2,0.2-0.3,0.3L6.1,63H1.5C1.2,63,1,63.2,1,63.5c0,0,0,0.1,0,0.1c0,0.1,0.1,0.3,0.2,0.3
		L5,66.6l-1.4,4.2c-0.1,0.2,0,0.4,0.2,0.6c0.1,0.1,0.2,0.1,0.3,0.1c0.1,0,0.2,0,0.3-0.1L8,68.7l3.7,2.6c0.1,0.1,0.2,0.1,0.3,0.1
		c0.1,0,0.2,0,0.3-0.1c0.2-0.1,0.2-0.4,0.2-0.6L11,66.6l3.7-2.6l0.1-0.1c0.2-0.2,0.2-0.5,0-0.7C14.8,63.1,14.6,63,14.5,63L14.5,63z"
		/>
</g>
<g>
	<rect id="사각형_609_00000027591679083368667400000015249703259856895408_" x="16" y="57" class="st0" width="16" height="16"/>
	<path id="Icon_ionic-ios-star_00000143592494681116198760000014446336470977724597_" class="st1" d="M30.5,63h-4.6l-1.4-4.1
		c-0.1-0.3-0.4-0.4-0.7-0.3c-0.1,0.1-0.2,0.2-0.3,0.3L22.1,63h-4.6c-0.3,0-0.5,0.2-0.5,0.5c0,0,0,0.1,0,0.1c0,0.1,0.1,0.3,0.2,0.3
		l3.8,2.6l-1.4,4.2c-0.1,0.2,0,0.4,0.2,0.6c0.1,0.1,0.2,0.1,0.3,0.1c0.1,0,0.2,0,0.3-0.1l3.7-2.6l3.7,2.6c0.1,0.1,0.2,0.1,0.3,0.1
		c0.1,0,0.2,0,0.3-0.1c0.2-0.1,0.2-0.4,0.2-0.6L27,66.6l3.7-2.6l0.1-0.1c0.2-0.2,0.2-0.5,0-0.7C30.8,63.1,30.6,63,30.5,63L30.5,63z"
		/>
</g>
<g>
	<rect id="사각형_609_00000172418781637310654480000012763301352190263430_" x="48" y="57" class="st0" width="16" height="16"/>
	<path id="Icon_ionic-ios-star_00000059271937956179885940000003582560935610881689_" class="st2" d="M62.5,63h-4.6l-1.4-4.1
		c-0.1-0.3-0.4-0.4-0.7-0.3c-0.1,0.1-0.2,0.2-0.3,0.3L54.1,63h-4.6c-0.3,0-0.5,0.2-0.5,0.5c0,0,0,0.1,0,0.1c0,0.1,0.1,0.3,0.2,0.3
		l3.8,2.6l-1.4,4.2c-0.1,0.2,0,0.4,0.2,0.6c0.1,0.1,0.2,0.1,0.3,0.1c0.1,0,0.2,0,0.3-0.1l3.7-2.6l3.7,2.6c0.1,0.1,0.2,0.1,0.3,0.1
		c0.1,0,0.2,0,0.3-0.1c0.2-0.1,0.2-0.4,0.2-0.6L59,66.6l3.7-2.6l0.1-0.1c0.2-0.2,0.2-0.5,0-0.7C62.8,63.1,62.6,63,62.5,63L62.5,63z"
		/>
</g>
<g>
	<rect id="사각형_609_00000177453352291506817880000009908099316816885138_" x="32" y="57" class="st0" width="16" height="16"/>
	<path id="Icon_ionic-ios-star_00000150794538476203267980000007466018099570661010_" class="st2" d="M46.5,63h-4.6l-1.4-4.1
		c-0.1-0.3-0.4-0.4-0.7-0.3c-0.1,0.1-0.2,0.2-0.3,0.3L38.1,63h-4.6c-0.3,0-0.5,0.2-0.5,0.5c0,0,0,0.1,0,0.1c0,0.1,0.1,0.3,0.2,0.3
		l3.8,2.6l-1.4,4.2c-0.1,0.2,0,0.4,0.2,0.6c0.1,0.1,0.2,0.1,0.3,0.1c0.1,0,0.2,0,0.3-0.1l3.7-2.6l3.7,2.6c0.1,0.1,0.2,0.1,0.3,0.1
		c0.1,0,0.2,0,0.3-0.1c0.2-0.1,0.2-0.4,0.2-0.6L43,66.6l3.7-2.6l0.1-0.1c0.2-0.2,0.2-0.5,0-0.7C46.8,63.1,46.6,63,46.5,63L46.5,63z"
		/>
</g>
<g>
	<rect id="사각형_609_00000101089799035645666730000014816481918567487677_" x="64" y="57" class="st0" width="16" height="16"/>
	<path id="Icon_ionic-ios-star_00000142139060395796295560000011721769202840004483_" class="st2" d="M78.5,63h-4.6l-1.4-4.1
		c-0.1-0.3-0.4-0.4-0.7-0.3c-0.1,0.1-0.2,0.2-0.3,0.3L70.1,63h-4.6c-0.3,0-0.5,0.2-0.5,0.5c0,0,0,0.1,0,0.1c0,0.1,0.1,0.3,0.2,0.3
		l3.8,2.6l-1.4,4.2c-0.1,0.2,0,0.4,0.2,0.6c0.1,0.1,0.2,0.1,0.3,0.1c0.1,0,0.2,0,0.3-0.1l3.7-2.6l3.7,2.6c0.1,0.1,0.2,0.1,0.3,0.1
		c0.1,0,0.2,0,0.3-0.1c0.2-0.1,0.2-0.4,0.2-0.6L75,66.6l3.7-2.6l0.1-0.1c0.2-0.2,0.2-0.5,0-0.7C78.8,63.1,78.6,63,78.5,63L78.5,63z"
		/>
</g>
</svg>
