<svg xmlns="http://www.w3.org/2000/svg" width="18" height="18" viewBox="0 0 18 18">
  <g id="그룹_4521" data-name="그룹 4521" transform="translate(-549 -147)">
    <rect id="사각형_1894" data-name="사각형 1894" width="18" height="18" transform="translate(549 147)" fill="none"/>
    <g id="Icon_ionic-ios-help-circle-outline" data-name="Icon ionic-ios-help-circle-outline" transform="translate(551.7 149.7)">
      <path id="패스_35317" data-name="패스 35317" d="M9.758,4.234A5.521,5.521,0,1,1,5.851,5.851,5.487,5.487,0,0,1,9.758,4.234m0-.859A6.383,6.383,0,1,0,16.14,9.758,6.382,6.382,0,0,0,9.758,3.375Z" transform="translate(-3.375 -3.375)" fill="#999"/>
      <path id="패스_35318" data-name="패스 35318" d="M15.485,11.25c1.151,0,1.942.638,1.942,1.556a1.5,1.5,0,0,1-.862,1.362c-.534.31-.715.537-.715.93v.242H14.786l-.009-.264a1.277,1.277,0,0,1,.724-1.35c.519-.31.736-.506.736-.887a.745.745,0,0,0-.825-.66.776.776,0,0,0-.822.755H13.5A1.751,1.751,0,0,1,15.485,11.25Zm-.807,5.26a.659.659,0,1,1,.657.632A.643.643,0,0,1,14.678,16.51Z" transform="translate(-9.081 -7.813)" fill="#999"/>
    </g>
  </g>
</svg>
