<svg id="그룹_32059" data-name="그룹 32059" xmlns="http://www.w3.org/2000/svg" xmlns:xlink="http://www.w3.org/1999/xlink" width="18" height="18" viewBox="0 0 18 18">
  <defs>
    <style>
      .cls-1 {
        fill: none;
      }

      .cls-2 {
        clip-path: url(#clip-path);
      }

      .cls-3 {
        opacity: 0;
      }

      .cls-4 {
        fill: #ff9d9d;
      }

      .cls-5 {
        fill: #666;
      }
    </style>
    <clipPath id="clip-path">
      <rect id="사각형_16285" data-name="사각형 16285" class="cls-1" width="18" height="18"/>
    </clipPath>
  </defs>
  <g id="그룹_29797" data-name="그룹 29797" class="cls-2">
    <g id="그룹_29796" data-name="그룹 29796">
      <g id="그룹_29795" data-name="그룹 29795" class="cls-2">
        <g id="그룹_29794" data-name="그룹 29794" class="cls-3">
          <g id="그룹_29793" data-name="그룹 29793">
            <g id="그룹_29792" data-name="그룹 29792" class="cls-2">
              <rect id="사각형_16282" data-name="사각형 16282" class="cls-4" width="18" height="18"/>
            </g>
          </g>
        </g>
        <path id="패스_27558" data-name="패스 27558" class="cls-5" d="M15.278,4.508C13.776,2.894,6.921,5.584,6.63,5.7,2.985,7.143,2.99,7.945,2.992,8.247,3,9.874,5.622,10.407,7.534,10.8c.352.072.651.131.848.187.449.126.47.149.576.627.783,3.562,1.107,5.035,2.313,5.089h.045c.456,0,1.069-.344,2.113-2.6.957-2.064,3.172-8.17,1.848-9.6m-.816,2.745c-.534,3.228-2.436,7.686-3.188,8.3-.364-.282-.8-2.263-1.221-4.184a2.6,2.6,0,0,0-.242-.692l1.764-1.763a.56.56,0,0,0-.793-.793L8.922,9.981c-.075-.027-.152-.053-.237-.077-.217-.061-.543-.128-.928-.206-.875-.178-3.488-.71-3.639-1.4.541-.761,5.265-2.7,8.516-3.118,1.534-.2,1.818.086,1.821.088h0s.28.323.006,1.982" transform="translate(-0.757 -1.01)"/>
      </g>
    </g>
  </g>
</svg>
