<svg xmlns="http://www.w3.org/2000/svg" width="18" height="18" viewBox="0 0 18 18">
  <defs>
    <style>
      .cls-1 {
        fill: #ffa8a8;
        opacity: 0;
      }

      .cls-2 {
        fill: #666;
      }
    </style>
  </defs>
  <g id="ico-heart" transform="translate(-195 -743)">
    <path id="패스_28339" data-name="패스 28339" class="cls-1" d="M0,0H18V18H0Z" transform="translate(195 743)"/>
    <path id="favourite-stroke-rounded" class="cls-2" d="M5.172,1.75a4.161,4.161,0,0,1,2.374.755A4.162,4.162,0,0,1,9.921,1.75a4.635,4.635,0,0,1,2.44.731A4.405,4.405,0,0,1,14.339,6.1a6.629,6.629,0,0,1-.892,3.481A11.016,11.016,0,0,1,10.3,13.02a4.323,4.323,0,0,1-2.752,1.2A4.322,4.322,0,0,1,4.8,13.02,11.016,11.016,0,0,1,1.647,9.585,6.63,6.63,0,0,1,.755,6.1,4.405,4.405,0,0,1,2.732,2.481,4.635,4.635,0,0,1,5.172,1.75Zm2.374,2-.3-.219-.195-.145A3.157,3.157,0,0,0,5.172,2.75a3.652,3.652,0,0,0-1.917.584,3.411,3.411,0,0,0-1.5,2.814A5.634,5.634,0,0,0,2.521,9.1,10.031,10.031,0,0,0,5.39,12.216a3.4,3.4,0,0,0,2.157,1,3.4,3.4,0,0,0,2.157-1A10.031,10.031,0,0,0,12.572,9.1a5.634,5.634,0,0,0,.767-2.951,3.411,3.411,0,0,0-1.5-2.814A3.652,3.652,0,0,0,9.921,2.75a3.158,3.158,0,0,0-1.883.634l-.2.146Z" transform="translate(196.453 744.018)"/>
  </g>
</svg>
