<svg xmlns="http://www.w3.org/2000/svg" width="20" height="20" viewBox="0 0 20 20">
  <defs>
    <style>
      .cls-1 {
        fill: #ff8b8b;
        opacity: 0;
      }

      .cls-2 {
        fill: #fff;
      }
    </style>
  </defs>
  <g id="그룹_32086" data-name="그룹 32086" transform="translate(-265)">
    <rect id="사각형_16206" data-name="사각형 16206" class="cls-1" width="20" height="20" transform="translate(265)"/>
    <path id="합치기_70" data-name="합치기 70" class="cls-2" d="M3.614,13.515a.471.471,0,1,1,0-.942H5.028V11.61A5.507,5.507,0,0,1,0,6.129a.471.471,0,1,1,.942,0,4.558,4.558,0,0,0,9.116,0,.471.471,0,0,1,.942,0A5.507,5.507,0,0,1,5.971,11.61v.963H7.386a.471.471,0,1,1,0,.942ZM1.886,6.129V3.614A3.612,3.612,0,0,1,9.08,3.143H6.757a.472.472,0,0,0,0,.944H9.115V5.658H6.757a.471.471,0,1,0,0,.942H9.08a3.612,3.612,0,0,1-7.194-.471Z" transform="translate(269.362 3.206)"/>
  </g>
</svg>
