<svg xmlns="http://www.w3.org/2000/svg" width="18" height="18" viewBox="0 0 18 18">
  <defs>
    <style>
      .cls-1 {
        fill: #ffa8a8;
        opacity: 0;
      }

      .cls-2 {
        fill: #333;
      }
    </style>
  </defs>
  <g id="ico-bookmark" transform="translate(-224 -743)">
    <g id="그룹_32042" data-name="그룹 32042" transform="translate(62)">
      <rect id="사각형_16847" data-name="사각형 16847" class="cls-1" width="18" height="18" transform="translate(162 743)"/>
      <path id="패스_28338" data-name="패스 28338" class="cls-2" d="M8.427,12.248H8.366l-.038-.006a5.315,5.315,0,0,1-2.666-1.279c-.181-.132-.381-.278-.5-.348l-.02-.013c-.076-.05-.153-.1-.232-.137-.08.042-.157.088-.232.137l-.018.011c-.115.068-.3.2-.492.341l-.011.008a5.311,5.311,0,0,1-2.669,1.279l-.038.006H1.387a1.871,1.871,0,0,1-.86-.211C-.5,11.5-.5,10.451-.5,9V4.676c0-2.082,0-3.339.976-4.268C1.432-.5,2.681-.5,4.75-.5h.157c2.165,0,3.472,0,4.43.908.977.926.977,2.184.977,4.268V9c0,1.45,0,2.5-1.026,3.036A1.872,1.872,0,0,1,8.427,12.248Z" transform="translate(165.972 746.065)"/>
    </g>
  </g>
</svg>
