<svg xmlns="http://www.w3.org/2000/svg" width="190" height="339" viewBox="0 0 190 339">
  <defs>
    <style>
      .cls-1 {
        fill: #ffeced;
      }

      .cls-2 {
        fill: #333;
        font-size: 16px;
        font-family: Pretendard-SemiBold, Pretendard;
        font-weight: 600;
        letter-spacing: -0.025em;
      }

      .cls-3 {
        fill: #ff6f7a;
      }

      .cls-4 {
        fill: #4a98e8;
      }

      .cls-5 {
        fill: #ea2d3b;
      }
    </style>
  </defs>
  <g id="그룹_30479" data-name="그룹 30479" transform="translate(1284 -683)">
    <rect id="Box" class="cls-1" width="190" height="339" transform="translate(-1284 683)"/>
    <text id="같이_불러_볼까요_" data-name="같이 불러 볼까요?" class="cls-2" transform="translate(-1269 843)"><tspan x="25.456" y="15">같이 불러 볼까요?</tspan></text>
    <g id="그룹_30479-2" data-name="그룹 30479">
      <path id="패스_27755" data-name="패스 27755" class="cls-3" d="M4.118,16.572a4.127,4.127,0,0,0,4.118-4.129v-7.2l7.322-2.061,0,2.63a4.117,4.117,0,1,0,2.745,3.965c.008-.107,0-5.272,0-8.411A1.374,1.374,0,0,0,16.559.051L6.492,2.888a1.375,1.375,0,0,0-1,1.319v4.37a4.116,4.116,0,1,0-1.376,7.994Z" transform="translate(-1255.82 822.338) rotate(13)"/>
      <path id="패스_27756" data-name="패스 27756" class="cls-4" d="M15.4,2.764l-3.15-2.4A1.779,1.779,0,0,0,9.436,1.42L8.071,8.072a5.333,5.333,0,1,0,2.484,5.645c.006-.017,1.794-8.8,1.794-8.81l.9.684A1.777,1.777,0,1,0,15.4,2.764" transform="matrix(0.998, -0.07, 0.07, 0.998, -1133.193, 866.092)"/>
      <path id="합치기_76" data-name="합치기 76" class="cls-5" d="M6.431,14.283v-3.14a1.427,1.427,0,0,1,2.854,0v3.14a1.427,1.427,0,0,1-2.854,0Zm4.712-5a1.427,1.427,0,1,1,0-2.854h3.143a1.427,1.427,0,1,1,0,2.854Zm-9.716,0a1.427,1.427,0,1,1,0-2.854H4.57a1.427,1.427,0,1,1,0,2.854Zm5-4.715V1.427a1.427,1.427,0,0,1,2.854,0v3.14a1.427,1.427,0,0,1-2.854,0Z" transform="translate(-1133.193 823.29)"/>
      <path id="합치기_77" data-name="합치기 77" class="cls-3" d="M5.2,11.556V9.015a1.155,1.155,0,0,1,2.309,0v2.54a1.155,1.155,0,0,1-2.309,0ZM9.016,7.51a1.154,1.154,0,1,1,0-2.309h2.543a1.154,1.154,0,1,1,0,2.309Zm-7.861,0a1.154,1.154,0,1,1,0-2.309H3.7a1.154,1.154,0,1,1,0,2.309ZM5.2,3.695V1.154a1.155,1.155,0,0,1,2.309,0v2.54a1.155,1.155,0,0,1-2.309,0Z" transform="translate(-1253.12 864.968)"/>
      <path id="패스_27765" data-name="패스 27765" class="cls-3" d="M2.913,6.323A2.91,2.91,0,0,1,.853,1.354a2.979,2.979,0,0,1,4.118,0A2.91,2.91,0,0,1,2.913,6.323m0-4.165A1.255,1.255,0,0,0,2.025,4.3,1.284,1.284,0,0,0,3.8,4.3a1.255,1.255,0,0,0-.886-2.142" transform="translate(-1148 867.968)"/>
    </g>
  </g>
</svg>
