<svg xmlns="http://www.w3.org/2000/svg" width="44" height="35" viewBox="0 0 44 35">
  <g id="그룹_32280" data-name="그룹 32280" transform="translate(-166 -300)">
    <rect id="사각형_16882" data-name="사각형 16882" width="44" height="35" transform="translate(166 300)" fill="none"/>
    <g id="ico-crown-1" transform="translate(165.75 297.2)">
      <path id="패스_27486" data-name="패스 27486" d="M35.232,14.688,29.89,16.022a.605.605,0,0,1-.626-.212L23.408,8.485a3.654,3.654,0,0,0-5.535,0l-5.858,7.326a.627.627,0,0,1-.628.21L6.049,14.688a2.505,2.505,0,0,0-3.038,3.036L6.355,31.1A3.536,3.536,0,0,0,9.793,33.79H31.487A3.536,3.536,0,0,0,34.925,31.1l3.344-13.378a2.5,2.5,0,0,0-3.037-3.036Z" transform="translate(1.61 4.011)" fill="#ff2b2f"/>
      <circle id="타원_585" data-name="타원 585" cx="2.931" cy="2.931" r="2.931" transform="translate(1.25 11.302)" fill="#ff2b2f"/>
      <circle id="타원_586" data-name="타원 586" cx="2.931" cy="2.931" r="2.931" transform="translate(37.387 11.302)" fill="#ff2b2f"/>
      <circle id="타원_587" data-name="타원 587" cx="2.931" cy="2.931" r="2.931" transform="translate(19.319 3)" fill="#ff2b2f"/>
    </g>
  </g>
</svg>
