<svg xmlns="http://www.w3.org/2000/svg" xmlns:xlink="http://www.w3.org/1999/xlink" width="107.972" height="117.969" viewBox="0 0 107.972 117.969">
  <defs>
    <filter id="패스_28203" x="0" y="0" width="107.972" height="117.969" filterUnits="userSpaceOnUse">
      <feOffset dy="1" input="SourceAlpha"/>
      <feGaussianBlur stdDeviation="3" result="blur"/>
      <feFlood flood-opacity="0.078"/>
      <feComposite operator="in" in2="blur"/>
      <feComposite in="SourceGraphic"/>
    </filter>
    <clipPath id="clip-path">
      <path id="패스_28507" data-name="패스 28507" d="M230.148,59.908v-33a10.393,10.393,0,0,0-5.243-9.014l-28.793-16.5a10.554,10.554,0,0,0-10.486,0L156.835,17.9a10.394,10.394,0,0,0-5.243,9.014v33a10.394,10.394,0,0,0,5.243,9.014l28.792,16.5a10.554,10.554,0,0,0,10.486,0l28.793-16.5a10.394,10.394,0,0,0,5.243-9.014" transform="translate(-151.592 0.001)" fill="#eee"/>
    </clipPath>
    <clipPath id="clip-path-2">
      <rect id="사각형_16928" data-name="사각형 16928" width="102.529" height="95.466" fill="none"/>
    </clipPath>
    <clipPath id="clip-path-3">
      <path id="패스_28506" data-name="패스 28506" d="M190.856,0a10.547,10.547,0,0,0-5.229,1.394L156.835,17.9a10.393,10.393,0,0,0-5.243,9.014v33a10.394,10.394,0,0,0,5.243,9.014l28.792,16.5a10.554,10.554,0,0,0,10.486,0l28.793-16.5a10.394,10.394,0,0,0,5.243-9.014v-33a10.394,10.394,0,0,0-5.243-9.014l-28.793-16.5A10.547,10.547,0,0,0,190.883,0Z" transform="translate(-151.592)" fill="none"/>
    </clipPath>
  </defs>
  <g id="그룹_32411" data-name="그룹 32411" transform="translate(-2609 -7945)">
    <rect id="사각형_16927" data-name="사각형 16927" width="104" height="104" transform="translate(2611 7951)" fill="none"/>
    <g id="그룹_32410" data-name="그룹 32410" transform="translate(3.474)">
      <g transform="matrix(1, 0, 0, 1, 2605.53, 7945)" filter="url(#패스_28203)">
        <path id="패스_28203-2" data-name="패스 28203" d="M117.489,69.731V30.238a10.479,10.479,0,0,0-5.28-9.086L77.783,1.406a10.62,10.62,0,0,0-10.56,0L32.8,21.152a10.479,10.479,0,0,0-5.28,9.086V69.731a10.479,10.479,0,0,0,5.28,9.086L67.223,98.563a10.62,10.62,0,0,0,10.56,0l34.426-19.746a10.479,10.479,0,0,0,5.28-9.086" transform="translate(-18.52 8)" fill="#fff"/>
      </g>
      <g id="마스크_그룹_46" data-name="마스크 그룹 46" transform="translate(2620.616 7960.382)" clip-path="url(#clip-path)">
        <g id="그룹_32408" data-name="그룹 32408" transform="translate(-9.48 -0.13)">
          <g id="그룹_32405" data-name="그룹 32405" transform="translate(0 0)">
            <g id="그룹_32404" data-name="그룹 32404" clip-path="url(#clip-path-2)">
              <path id="패스_28356" data-name="패스 28356" d="M230.148,59.908v-33a10.393,10.393,0,0,0-5.243-9.014l-28.793-16.5a10.554,10.554,0,0,0-10.486,0L156.835,17.9a10.394,10.394,0,0,0-5.243,9.014v33a10.394,10.394,0,0,0,5.243,9.014l28.792,16.5a10.554,10.554,0,0,0,10.486,0l28.793-16.5a10.394,10.394,0,0,0,5.243-9.014" transform="translate(-142.112 0.001)" fill="#eee"/>
              <path id="패스_28357" data-name="패스 28357" d="M665.991,477.861c1.976-1.257,3.5-2.514,3.5-4.49a3.26,3.26,0,0,0-3.5-3.233,3.585,3.585,0,0,0-3.636,3.05.631.631,0,0,1-.62.542h-5.911a.628.628,0,0,1-.628-.667c.4-6.134,5.16-8.9,10.84-8.9,6.511,0,11.225,3.143,11.225,8.846,0,3.772-2.021,6.107-5.029,7.9-2.425,1.437-3.592,2.784-3.592,5.658a.628.628,0,0,1-.629.628h-5.343a.629.629,0,0,1-.629-.628c0-5.433,1.392-7.095,3.951-8.711m-4.58,15.626a3.987,3.987,0,0,1,4.041-4,4.041,4.041,0,1,1,0,8.082,4.007,4.007,0,0,1-4.041-4.086" transform="translate(-616.74 -438.953)" fill="#999"/>
            </g>
          </g>
          <g id="그룹_32407" data-name="그룹 32407" transform="translate(9.48 0)">
            <g id="그룹_32406" data-name="그룹 32406" clip-path="url(#clip-path-3)">
              <path id="패스_28358" data-name="패스 28358" d="M813.406,1037.275c.255-13.986-4.238-10.6-15.061-8.64-12.96,2.429-27.957,1.516-38.335,10.971-5.817,6.166,5.244,18.639,8.634,18.214,3.029-.247,6.143-.058,9.217-.153,11.387.031,22.65-.119,34.008-.435,2.459-.225,1.24-18.245,1.537-19.957m-49.636,20.146c.762-.039,2.094-.01,2.9,0a24.235,24.235,0,0,1-2.9,0" transform="translate(-720.404 -962.586)" fill="#c9c9c9"/>
              <path id="패스_28359" data-name="패스 28359" d="M1155.951,1043.085h0l0,0,0,0" transform="translate(-1093.141 -977.854)" fill="#f4bd7f"/>
              <path id="패스_28360" data-name="패스 28360" d="M1006.553,1004.918a.483.483,0,0,0-.153-.176.539.539,0,0,0-.219-.088.919.919,0,0,0-.256,0l-.044,0a.4.4,0,0,0-.04,0l-.08.015a2.022,2.022,0,0,0-.578.215c-.344.189-.62.417-.895.593l-.1.064-.1.058-.1.052a.4.4,0,0,1-.043.02l-.035.013a.025.025,0,0,1-.038-.015.026.026,0,0,1-.009-.012v-.047l0-.065c.007-.094.016-.194.024-.3.017-.21.034-.442.035-.682a3.324,3.324,0,0,0-.069-.729,2.079,2.079,0,0,0-.251-.646,1.232,1.232,0,0,0-.077-.155,1.419,1.419,0,0,0-.1-.149,1.2,1.2,0,0,0-.444-.3.832.832,0,0,0-.306-.049.77.77,0,0,0-.3.071l.019-.019a.84.84,0,0,0-.183.128.965.965,0,0,0-.137.16,1.076,1.076,0,0,0-.152.348,1.063,1.063,0,0,0-.027.169,1.273,1.273,0,0,0,0,.146,1.3,1.3,0,0,0,.023.216l-.011-.017a4.8,4.8,0,0,0,.108.485l-.03-.075a7.865,7.865,0,0,1,.275,1.914l.031-.052c.008.326.015.6.021.846s.015.463.012.67a3.184,3.184,0,0,1-.063.618,1.905,1.905,0,0,1-.1.319,1.484,1.484,0,0,1-.176.317v-.016a1.139,1.139,0,0,1-.646.554.73.73,0,0,1-.354.023.3.3,0,0,1-.121-.056.333.333,0,0,1-.085-.1.933.933,0,0,1-.09-.342c-.007-.068-.011-.136-.014-.213s-.006-.155-.009-.234c-.012-.318-.023-.659-.052-1.047.015.193.016-.083.024-.068-.013-.357-.032-.731-.068-1.015s-.083-.478-.115-.479c-.037-.262-.058-.369-.058-.42s.01-.046.015-.083c-.028.009-.135-.444-.3-.83.027.058.056.116.079.176a4.4,4.4,0,0,0-.244-.55,3.71,3.71,0,0,0-.322-.513l.047.112.042.114a2.2,2.2,0,0,1-.2-.344c-.015-.035-.021-.076-.245-.292l-.026.038c-.04-.038-.078-.077-.117-.113l-.117-.1c-.038-.033-.079-.062-.117-.092s-.075-.059-.119-.087a1.03,1.03,0,0,0-.275-.131.63.63,0,0,0-.164-.026.48.48,0,0,0-.347.129.5.5,0,0,0-.112.161.712.712,0,0,0-.047.35,1.493,1.493,0,0,0,.067.31c.034.1.068.187.1.283a9.372,9.372,0,0,1,.385,1.2c.026.1.049.206.072.31l.031.156c.01.053.02.1.028.152a1.174,1.174,0,0,1-.018.536.317.317,0,0,1-.109.155.256.256,0,0,1-.165.047.62.62,0,0,1-.393-.25.82.82,0,0,1-.074-.109c-.012-.018-.019-.038-.03-.057s-.019-.044-.028-.065a2.9,2.9,0,0,1-.1-.292,3.491,3.491,0,0,0-.228-.656,1.4,1.4,0,0,0-.1-.164.908.908,0,0,0-.142-.154,1.018,1.018,0,0,0-.35-.2.859.859,0,0,0-.416-.034.89.89,0,0,0-.111.031.611.611,0,0,0-.106.054l-.05.035a.431.431,0,0,0-.045.041.522.522,0,0,0-.041.044l-.034.049a.655.655,0,0,0-.1.429,1.236,1.236,0,0,0,.1.365c.023.056.05.107.075.156s.051.1.08.147c.055.1.114.191.176.282a7.4,7.4,0,0,0,.826.985c.29.3.582.582.851.867l.072.122a2.1,2.1,0,0,0,.323.333,1.538,1.538,0,0,1,.322.383c.036.046.072.092.108.139s.069.095.1.144c.043.089.123.277.037.128.072.142.1.217.133.28s.056.117.095.224a.608.608,0,0,1,.013.275.15.15,0,0,1-.015.048.107.107,0,0,1-.023.03.478.478,0,0,1-.136.076l-.445.178-.441.18a2.616,2.616,0,0,1-.409.141.951.951,0,0,1-.189.024.8.8,0,0,1-.181-.021.952.952,0,0,1-.351-.179,1.742,1.742,0,0,1-.312-.32,3.3,3.3,0,0,1-.266-.413,12.92,12.92,0,0,1-.591-1.362c-.1-.265-.208-.543-.327-.829-.03-.071-.06-.143-.091-.215l-.048-.109c-.017-.038-.036-.078-.059-.12a.811.811,0,0,0-.205-.255.559.559,0,0,0-.177-.094.536.536,0,0,0-.2-.026.875.875,0,0,0-.1.016.862.862,0,0,0-.091.032.693.693,0,0,0-.152.093.8.8,0,0,0-.207.254.765.765,0,0,0-.088.319.792.792,0,0,0,.009.159.968.968,0,0,0,.031.144,1.788,1.788,0,0,0,.232.468l.126.189a1.9,1.9,0,0,1,.1.17.656.656,0,0,1,.089.307.252.252,0,0,1-.109.2.757.757,0,0,1-.28.121,1.7,1.7,0,0,1-.322.04,2.162,2.162,0,0,1-.455-.03,3.008,3.008,0,0,1-.46-.124c-.157-.052-.317-.113-.486-.166a2.5,2.5,0,0,0-.542-.117c-.048,0-.1,0-.147,0s-.1,0-.15.012a1.151,1.151,0,0,0-.149.03l-.077.022a.609.609,0,0,0-.093.038.415.415,0,0,0-.155.128.437.437,0,0,0-.073.188.716.716,0,0,0-.008.1c0,.028,0,.055,0,.083a.951.951,0,0,0,.025.162,1.181,1.181,0,0,0,.31.542,1.684,1.684,0,0,0,.495.339,3.913,3.913,0,0,0,.527.193q.26.078.523.142c.175.042.352.08.529.113s.356.058.524.085a3.6,3.6,0,0,1,.476.1,1.7,1.7,0,0,1,.211.079c.033.014.069.035.1.052a1.019,1.019,0,0,1,.1.055.878.878,0,0,1,.292.245.162.162,0,0,1,.025.094c0,.008,0,.016,0,.026a.233.233,0,0,0-.01.03.5.5,0,0,1-.041.069l-.017.02-.025.027c-.016.019-.037.04-.057.06a.822.822,0,0,0-.073.076,2.939,2.939,0,0,1-.49.284c-.176.084-.359.158-.545.226-.093.034-.187.067-.282.1l-.291.1a1.841,1.841,0,0,0-.316.137,1.086,1.086,0,0,0-.157.108.808.808,0,0,0-.141.15.46.46,0,0,0-.026.038.811.811,0,0,0-.062.118.747.747,0,0,0-.054.213.6.6,0,0,0,.054.314l.022.042.026.039a.5.5,0,0,0,.062.075.7.7,0,0,0,.077.066.69.69,0,0,0,.087.051.885.885,0,0,0,.373.08,1.877,1.877,0,0,0,.364-.034l.347-.066c.951-.182,2.126-.411,3.023-.6.345-.074.649-.141.883-.2a1.439,1.439,0,0,1,.251.259,2.749,2.749,0,0,1,.266.47c.078.168.146.335.2.459s.091.2.091.2a2.576,2.576,0,0,0,.6.871,1.11,1.11,0,0,0,.258.169.887.887,0,0,0,.32.086.7.7,0,0,0,.2-.015.628.628,0,0,0,.194-.083.618.618,0,0,0,.154-.142.675.675,0,0,0,.1-.18.98.98,0,0,0,.053-.3c0-.043,0-.081,0-.117s0-.074,0-.111a3.389,3.389,0,0,0-.046-.437,3.47,3.47,0,0,0-.253-.832c-.03-.067-.062-.133-.1-.2s-.061-.115-.082-.161a.408.408,0,0,1-.035-.106c0-.022,0-.022,0-.032a.224.224,0,0,1,.066-.071c.02-.016.044-.033.071-.052l.088-.059c.118-.08.242-.16.37-.241.257-.163.534-.33.828-.521a7.889,7.889,0,0,0,.919-.679,3.921,3.921,0,0,0,.688-.748l.065-.1a.943.943,0,0,0,.06-.1l.108-.2a3.826,3.826,0,0,0,.162-.389c.089-.253.151-.488.212-.708s.118-.427.189-.62a2.274,2.274,0,0,1,.27-.534,2.117,2.117,0,0,1,.449-.454c.189-.15.418-.3.669-.5a3.765,3.765,0,0,0,.729-.78,3.826,3.826,0,0,0,.291-.481c.021-.042.042-.084.062-.128l.03-.067a1.083,1.083,0,0,0,.043-.117.63.63,0,0,0-.023-.473m-8.458,8.058.082-.015.011.008-.092.007m.741.906a2.924,2.924,0,0,0-.346-.523,1.189,1.189,0,0,0-.082-.089l-.08-.073c-.051-.043-.1-.073-.143-.1l.124-.033a3.757,3.757,0,0,1,.773,1.283l-.056-.1c-.068-.128-.129-.248-.189-.357" transform="translate(-941.415 -943.334)" fill="#a7a7a7"/>
              <path id="패스_28361" data-name="패스 28361" d="M1100.933,1028.374h.009a.008.008,0,0,0-.009,0" transform="translate(-1041.564 -964.061)" fill="#ffeddc"/>
              <path id="패스_28363" data-name="패스 28363" d="M1110.136,1027.893h0l.011,0Z" transform="translate(-1050.191 -963.608)" fill="#ffeddc"/>
              <path id="패스_28364" data-name="패스 28364" d="M1107.555,1056.31l.009,0s-.006,0-.009,0" transform="translate(-1047.772 -990.25)" fill="#ffeddc"/>
              <path id="패스_28365" data-name="패스 28365" d="M1116.258,1057.181h0l.012,0Z" transform="translate(-1055.93 -991.065)" fill="#ffeddc"/>
              <path id="패스_28367" data-name="패스 28367" d="M1079.259,1076.687l.008,0s-.007,0-.008,0" transform="translate(-1021.246 -1009.35)" fill="#ffeddc"/>
              <path id="패스_28369" data-name="패스 28369" d="M1087.256,1072.23h0l.009-.009Z" transform="translate(-1028.742 -1005.167)" fill="#ffeddc"/>
              <path id="패스_28370" data-name="패스 28370" d="M1070.433,1053.516l.008-.006a.007.007,0,0,0-.008.006" transform="translate(-1012.971 -987.627)" fill="#ffeddc"/>
              <path id="패스_28371" data-name="패스 28371" d="M1079.929,1049.436h0l.01-.007Z" transform="translate(-1021.873 -983.801)" fill="#ffeddc"/>
              <path id="패스_28373" data-name="패스 28373" d="M1049.883,1039.076l0-.009a.008.008,0,0,0,0,.009" transform="translate(-993.706 -974.087)" fill="#ffeddc"/>
              <path id="패스_28374" data-name="패스 28374" d="M1054,1030.745h0l0-.012Z" transform="translate(-997.562 -966.274)" fill="#ffeddc"/>
              <path id="패스_28376" data-name="패스 28376" d="M1007.51,1097.7h.009s-.007,0-.009,0" transform="translate(-953.983 -1029.053)" fill="#ffeddc"/>
              <path id="패스_28377" data-name="패스 28377" d="M1015.87,1095.639h0l.01-.007Z" transform="translate(-961.82 -1027.115)" fill="#ffeddc"/>
              <path id="패스_28379" data-name="패스 28379" d="M1037.209,1079.625h0l0-.012Z" transform="translate(-981.825 -1012.097)" fill="#ffeddc"/>
              <path id="패스_28381" data-name="패스 28381" d="M1053.166,1112.724h.01a.007.007,0,0,0-.01,0" transform="translate(-996.784 -1043.136)" fill="#ffeddc"/>
              <path id="패스_28383" data-name="패스 28383" d="M1062.968,1111.56h0l.01-.007Z" transform="translate(-1005.973 -1042.04)" fill="#ffeddc"/>
              <path id="패스_28384" data-name="패스 28384" d="M1029.7,1145.487l.008-.006a.007.007,0,0,0-.008.006" transform="translate(-974.79 -1073.846)" fill="#ffeddc"/>
              <path id="패스_28386" data-name="패스 28386" d="M1038.026,1140.332h0l.009-.008Z" transform="translate(-982.591 -1069.011)" fill="#ffeddc"/>
              <path id="패스_28387" data-name="패스 28387" d="M1149.445,1019.275l.01,0a.008.008,0,0,0-.01,0" transform="translate(-1087.042 -955.53)" fill="#ffeddc"/>
              <path id="패스_28388" data-name="패스 28388" d="M1159.174,1016.573h0l.011-.005Z" transform="translate(-1096.163 -952.995)" fill="#ffeddc"/>
              <path id="패스_28390" data-name="패스 28390" d="M1130.656,1061.485l.007-.006s-.007,0-.007.006" transform="translate(-1069.428 -995.097)" fill="#ffeddc"/>
              <path id="패스_28392" data-name="패스 28392" d="M1136.824,1054.961h0l0-.011Z" transform="translate(-1075.21 -988.976)" fill="#ffeddc"/>
              <path id="패스_28393" data-name="패스 28393" d="M1145.229,1100.441l.006-.008a.008.008,0,0,0-.006.008" transform="translate(-1083.089 -1031.615)" fill="#ffeddc"/>
              <path id="패스_28395" data-name="패스 28395" d="M1150.7,1092h0l0-.011Z" transform="translate(-1088.219 -1023.697)" fill="#ffeddc"/>
              <path id="패스_28396" data-name="패스 28396" d="M1118.217,1123.245a.008.008,0,0,0,0,.009Z" transform="translate(-1057.763 -1053.001)" fill="#ffeddc"/>
              <path id="패스_28397" data-name="패스 28397" d="M1123.954,1114.751h0l.006-.011Z" transform="translate(-1063.145 -1045.027)" fill="#ffeddc"/>
              <path id="패스_28399" data-name="패스 28399" d="M1174.172,1046.657l.007-.008a.008.008,0,0,0-.007.008" transform="translate(-1110.223 -981.195)" fill="#ffeddc"/>
              <path id="패스_28401" data-name="패스 28401" d="M1183.426,1039.967h0l.008-.009Z" transform="translate(-1118.898 -974.921)" fill="#ffeddc"/>
              <path id="패스_28402" data-name="패스 28402" d="M1239.555,850.946l.021-.005s-.01,0-.021.005" transform="translate(-1171.517 -797.724)" fill="#bfe2ef"/>
              <path id="패스_28403" data-name="패스 28403" d="M1242.568,881.642h0" transform="translate(-1174.337 -826.507)" fill="#bfe2ef"/>
              <path id="패스_28404" data-name="패스 28404" d="M1270.274,861.271h0l.017.006Z" transform="translate(-1200.315 -807.41)" fill="#bfe2ef"/>
              <path id="패스_28406" data-name="패스 28406" d="M1161.961,852.357l.017,0s-.009,0-.017,0" transform="translate(-1098.776 -799.047)" fill="#bfe2ef"/>
              <g id="그룹_32409" data-name="그룹 32409" transform="translate(59.956 50.082)">
                <path id="패스_28405" data-name="패스 28405" d="M1236.337,849.242c.042.014.123-.245.13-.07,0,.015-.011.036-.023.028l.036.039a.257.257,0,0,0,.1-.2.669.669,0,0,1,.033-.225c-.031.038-.047.1-.066.047l.054-.132.03.041c.032-.065.055-.133.082-.2l-.057.016a.759.759,0,0,1,.088-.108.133.133,0,0,0,.008-.137c-.031-.059-.086.084-.082-.026a1.542,1.542,0,0,0,.092-.236c.014-.045.028-.092.039-.138a1.062,1.062,0,0,0,.021-.139c-.058.016-.056-.032-.067-.081l.051-.006c-.073-.188.109-.075.041-.265l-.073-.027c-.117-.156.092-.109-.073-.274.021.072-.1.054-.1-.037l.052.012c-.02-.047-.046-.058-.044-.093.033.023.073,0,.046-.072l.072.034c-.041-.04-.082-.078-.123-.115.022-.121-.1-.259-.057-.326a.713.713,0,0,0-.045-.12c-.029-.061-.075-.123-.121-.129.065.021.014-.107.08-.1a.446.446,0,0,1-.227-.262l.015.008a.737.737,0,0,0-.288-.285,1.811,1.811,0,0,1-.315-.217c-.018.057-.125-.037-.128.046a1.047,1.047,0,0,1-.317-.145c-.088-.046-.167-.062-.233.043-.111-.01-.122-.075-.18-.1l.029-.008c-.216-.005-.276,0-.434,0-.078.027-.08.134-.216.124.038-.048-.016-.033-.067-.025.031-.012.04-.029-.033-.047a.108.108,0,0,1-.033.034s0-.005,0-.01c-.081.034-.063.044-.024.041,0,.007,0,.014.018.023-.1-.034-.238.057-.267-.005a1.548,1.548,0,0,0-.165.079,1.36,1.36,0,0,0-.136.094c-.086.061-.156.134-.239.2-.04-.021-.014-.074.033-.116-.041.029-.084.055-.123.086-.029-.049.059-.071.094-.1a.347.347,0,0,0-.237.148.574.574,0,0,1-.236.187c0,.02,0,.041,0,.061l-.014,0c.015.017,0,.071-.014.1-.054-.015-.073-.081-.147-.008-.046.012-.081.061-.112.116a1.594,1.594,0,0,0-.077.169c.041-.04.05-.009.048.021-.029.041-.085.035-.093.078l-.054-.034c.031.01.022.046.01.083s-.028.079-.023.094c-.055,0,.009-.088-.012-.12-.107.177-.059.085-.157.267-.011.119.062.012.086.085-.017.044-.027.091-.041.137a.292.292,0,0,1-.07.133l.065-.008a1.19,1.19,0,0,1-.052.21s0,.008-.006.012a.1.1,0,0,0-.061-.007.242.242,0,0,0-.1.056l-.008-.064c0,.025,0,.05,0,.075a1.22,1.22,0,0,0-.283.576l-.02-.01a.728.728,0,0,0,.177.6c-.1.066.064.214.057.285l-.011,0a.391.391,0,0,1,.118.227.328.328,0,0,0,.13.216c-.011,0-.04.015-.062-.016.076.1.2.207.149.257a3.082,3.082,0,0,0,.343.342.7.7,0,0,0,.369.175l-.021.009c.127-.008.12.063.24.083,0,.011.007.019,0,.021a.444.444,0,0,1,.211.058.578.578,0,0,0,.188.062l-.008.045c.073.019.145.037.219.049l-.079-.029c.03-.057.064-.029.116.009a.227.227,0,0,0,.209.052.329.329,0,0,0,.234-.1c.077-.055.145-.112.219-.085.065-.062-.055.1.047.046.01.065-.047.045-.015.094a.249.249,0,0,1,.148,0,.24.24,0,0,0,.166-.025l.017.048a.437.437,0,0,1,.24-.086c.078-.012.153-.022.19-.086a.145.145,0,0,1,.161-.034.105.105,0,0,0,.067,0,.151.151,0,0,0,.076-.082l.1.011c.077-.043,0-.1.095-.134.023.037.111-.054.1.014a.437.437,0,0,0,.134-.1,1.226,1.226,0,0,0,.1-.143.907.907,0,0,1,.255-.289c-.037-.1.073-.191.041-.259" transform="translate(-1221.539 -845.281)" fill="#c9c9c9"/>
                <path id="패스_28407" data-name="패스 28407" d="M1160.813,850.515c-.028.026-.042.069-.062.028.015-.032.032-.064.046-.1l.031.035c.026-.048.05-.1.074-.146l-.056.007c.048-.066.138-.076.087-.178-.033-.046-.083.058-.083-.025a1.021,1.021,0,0,0,.137-.38c-.058.013-.056-.023-.068-.059l.05-.006c-.081-.137.109-.062.037-.2l-.074-.015c-.12-.106.094-.092-.074-.2.022.052-.1.052-.1-.016l.051,0c-.019-.033-.044-.038-.042-.065.032.013.071-.01.045-.061l.07.017c-.04-.025-.08-.049-.12-.071a.24.24,0,0,0-.038-.138c-.022-.042-.043-.078-.021-.11a.331.331,0,0,0-.043-.087c-.03-.042-.071-.082-.113-.076.06,0,.012-.09.072-.1a.261.261,0,0,1-.125-.053.147.147,0,0,1-.072-.1l.012,0a.313.313,0,0,0-.1-.108.6.6,0,0,0-.118-.064.851.851,0,0,1-.115-.055.326.326,0,0,1-.1-.083c-.02.054-.089-.017-.1.061a.225.225,0,0,1-.12-.044c-.034-.021-.064-.047-.093-.067-.057-.042-.114-.052-.173.05-.078-.009-.079-.073-.118-.094l.021-.008c-.077-.007-.126-.006-.171-.008s-.084-.007-.141-.01c-.058.022-.064.127-.161.108.028-.045-.011-.034-.048-.031.023-.008.03-.025-.023-.049a.085.085,0,0,1-.024.032s0-.006,0-.01c-.061.025-.047.036-.018.038,0,.007,0,.014.014.025a.169.169,0,0,0-.117-.008c-.037.008-.068.012-.081-.022a1.055,1.055,0,0,0-.384.3c-.035-.022-.024-.07.008-.107l-.086.072c-.031-.045.037-.061.061-.089a.159.159,0,0,0-.1.036.453.453,0,0,0-.069.086c-.044.062-.076.13-.16.158l.011.053-.011,0a.09.09,0,0,1,.01.081c-.049-.013-.086-.072-.129-.008a.128.128,0,0,0-.071.1c-.011.047-.015.1-.024.139.028-.032.044-.007.05.016-.017.031-.067.03-.061.064l-.059-.025c.061.014.016.115.038.138-.052,0-.017-.069-.044-.091-.03.07-.032.089-.039.107a1.1,1.1,0,0,0-.033.109c.025.09.062,0,.105.055a.334.334,0,0,0,0,.062.456.456,0,0,0-.083.036.859.859,0,0,0-.286.3l-.018-.01a.408.408,0,0,0,.07.453c-.055.021-.05.063-.034.1s.048.081.036.109l-.01,0a.205.205,0,0,1,.069.173c.007.064.015.132.078.165-.01,0-.041.014-.055-.01.054.072.137.158.086.2a1.915,1.915,0,0,0,.233.267.577.577,0,0,0,.138.1.259.259,0,0,0,.136.033l-.019.01c.1-.015.086.05.18.059,0,.01,0,.017,0,.02.1-.02.217.094.291.085l-.011.044a1.5,1.5,0,0,0,.157.035l-.055-.025c.027-.057.049-.031.084,0a.126.126,0,0,0,.147.043c.052.014.114-.045.168-.1s.1-.109.152-.081c.045-.061-.039.1.031.048.006.064-.033.043-.011.093a.123.123,0,0,1,.1.009.124.124,0,0,0,.116-.01l.012.049a.187.187,0,0,1,.17-.049c.056,0,.11,0,.135-.052.053-.043.086-.016.119,0s.067.031.107-.045l.081.036c.06-.02,0-.095.071-.1.019.039.092-.017.08.039a.335.335,0,0,0,.191-.158.5.5,0,0,1,.22-.189c-.037-.088.066-.14.029-.2.035.017.111-.171.121-.032,0,.012-.01.027-.022.018l.035.038a.144.144,0,0,0,.093-.144.433.433,0,0,1,.025-.173" transform="translate(-1157.231 -847.622)" fill="#c9c9c9"/>
                <path id="패스_28408" data-name="패스 28408" d="M1246.14,908.3c-.019.018-.029.047-.042.019.01-.022.021-.043.031-.065l.021.024c.018-.032.034-.066.05-.1l-.038,0c.032-.045.094-.052.059-.121-.022-.031-.057.039-.057-.017a.693.693,0,0,0,.093-.259c-.039.009-.038-.016-.046-.04l.034,0c-.055-.093.074-.042.025-.137l-.05-.01c-.081-.072.064-.062-.05-.136.015.035-.069.035-.065-.011l.034,0c-.013-.023-.03-.026-.028-.044.022.009.048-.007.031-.042l.048.011q-.041-.026-.082-.048a.162.162,0,0,0-.026-.094c-.015-.028-.029-.053-.015-.075a.23.23,0,0,0-.03-.059c-.02-.028-.048-.056-.077-.052.041,0,.008-.061.049-.069a.177.177,0,0,1-.085-.036.1.1,0,0,1-.049-.071l.008,0a.211.211,0,0,0-.068-.074.4.4,0,0,0-.08-.044.589.589,0,0,1-.078-.038.222.222,0,0,1-.071-.056c-.014.037-.061-.011-.069.042a.156.156,0,0,1-.082-.03c-.024-.014-.044-.032-.064-.046-.039-.029-.077-.035-.117.034-.053-.006-.054-.05-.08-.064l.015-.006c-.053,0-.086,0-.117-.005l-.1-.007c-.04.015-.044.086-.109.074.019-.03-.007-.023-.033-.021.016-.006.02-.017-.016-.034a.059.059,0,0,1-.016.022.014.014,0,0,1,0-.007c-.041.017-.032.025-.012.026a.023.023,0,0,0,.009.017.114.114,0,0,0-.08-.006c-.025.005-.046.009-.056-.015a.711.711,0,0,0-.261.206c-.024-.015-.017-.047,0-.073l-.059.049c-.021-.031.025-.042.041-.061a.108.108,0,0,0-.069.024.311.311,0,0,0-.047.059c-.03.042-.052.089-.109.107l.007.036h-.008a.061.061,0,0,1,.007.055c-.033-.009-.058-.049-.087-.005a.087.087,0,0,0-.049.065c-.008.032-.01.068-.016.094.019-.022.03,0,.034.011-.012.021-.045.02-.042.044l-.04-.017c.041.009.01.078.026.094-.035,0-.012-.047-.03-.062-.02.047-.022.061-.027.073s-.01.024-.022.074c.017.061.042,0,.072.038a.207.207,0,0,0,0,.043.31.31,0,0,0-.057.025.583.583,0,0,0-.195.2l-.013-.007a.278.278,0,0,0,.048.309c-.038.015-.034.043-.023.071s.032.055.025.074h-.007a.14.14,0,0,1,.047.118c0,.044.01.09.053.112-.007,0-.028.009-.037-.007.036.049.093.107.058.136a1.277,1.277,0,0,0,.159.182.38.38,0,0,0,.094.066.173.173,0,0,0,.093.022l-.012.007c.07-.01.058.034.122.04,0,.007,0,.012,0,.013.07-.014.148.064.2.058l-.007.03a1.029,1.029,0,0,0,.107.024l-.038-.017c.018-.039.033-.021.057,0a.086.086,0,0,0,.1.029c.036.01.078-.031.114-.068s.069-.074.1-.055c.031-.042-.026.066.022.032,0,.044-.023.029-.007.063a.084.084,0,0,1,.07.006.086.086,0,0,0,.079-.007l.008.033a.127.127,0,0,1,.115-.033c.038,0,.075,0,.092-.035.036-.029.058-.011.081,0s.045.021.073-.031l.055.024c.041-.013,0-.064.048-.068.013.027.063-.011.054.026a.229.229,0,0,0,.13-.107.339.339,0,0,1,.15-.129c-.026-.06.045-.1.02-.139.024.012.076-.116.082-.022,0,.008-.007.018-.015.012l.024.026a.1.1,0,0,0,.063-.1.294.294,0,0,1,.017-.117" transform="translate(-1231.991 -898.277)" fill="#c9c9c9"/>
              </g>
              <path id="패스_28409" data-name="패스 28409" d="M1185.1,859.089h0l.017,0Z" transform="translate(-1120.47 -805.365)" fill="#bfe2ef"/>
              <path id="패스_28410" data-name="패스 28410" d="M377.851,919.063l.339.231a3.545,3.545,0,0,0-.339-.231" transform="translate(-363.701 -861.588)" fill="#f4d4ae"/>
              <path id="패스_28411" data-name="패스 28411" d="M298.808,872.174l.007.012c.01,0,.008,0-.007-.012" transform="translate(-289.602 -817.631)" fill="#f4d4ae"/>
              <path id="패스_28412" data-name="패스 28412" d="M62.7,831.259c.551-1.524-2.009-3.734-3.312-4.809a29.945,29.945,0,0,0-10.342-4.967,77.548,77.548,0,0,1-8.265-2.939,53.6,53.6,0,0,1-5.28-2.709c-6.246-3.612-11.764-7.934-18.17-11.175a39.683,39.683,0,0,0-5.737-2.339,21.258,21.258,0,0,0-5.47-1.158C.7,800.943.251,806.17.058,810.475A57.8,57.8,0,0,0,.472,820.6c.406,2.921,1.083,6.07,3.085,8.306,2.488,2.99,6.37,17.173,10.036,17.216,4.467.114,9.062.208,13.544.3,6.185.113,12.605.118,18.708.054,3.149-.037,6.312-.1,9.489-.175,1.4-.035,2.848-.066,4.224-.161,1.036-.109,2.652-13.909,3.138-14.882Z" transform="translate(-9.48 -751.055)" fill="#b7b7b7"/>
              <path id="패스_28413" data-name="패스 28413" d="M164.6,814.32l0,.008c0-.006,0-.007,0-.008" transform="translate(-163.785 -763.395)" fill="#5faa91"/>
              <path id="패스_28414" data-name="패스 28414" d="M162.749,707.146l-.006,0,.006,0" transform="translate(-162.046 -662.923)" fill="#5faa91"/>
              <path id="패스_28415" data-name="패스 28415" d="M201.556,664.712h0l.018-.008Z" transform="translate(-198.431 -623.136)" fill="#5faa91"/>
              <path id="패스_28416" data-name="패스 28416" d="M171.437,738.525l.033,0s-.01-.008-.033,0" transform="translate(-170.196 -692.339)" fill="#5faa91"/>
              <path id="패스_28417" data-name="패스 28417" d="M185.481,760.386l-.007,0,.007,0" transform="translate(-183.355 -712.834)" fill="#5faa91"/>
              <path id="패스_28418" data-name="패스 28418" d="M232.2,711.816h0l.02-.009-.02.009" transform="translate(-227.16 -667.293)" fill="#5faa91"/>
              <path id="패스_28419" data-name="패스 28419" d="M173.639,793.66l.024,0s-.01,0-.024,0" transform="translate(-172.26 -744.021)" fill="#5faa91"/>
              <path id="패스_28420" data-name="패스 28420" d="M186.532,806.848l0,0s0,0,0,0" transform="translate(-184.344 -756.39)" fill="#5faa91"/>
              <path id="패스_28421" data-name="패스 28421" d="M63.273,604.722a.3.3,0,0,0,.011-.1c0-.01,0-.019,0-.029a.3.3,0,0,0-.007-.034.272.272,0,0,0-.027-.067.306.306,0,0,0-.043-.059.356.356,0,0,0-.05-.043.337.337,0,0,0-.093-.045c.022.024-.008.02-.05.02a.329.329,0,0,0-.113.016l-.012-.026c-.1.065-.055-.051-.154.005l0-.021-.014.064c-.082.078-.065-.045-.153.056.041-.015.035.056-.02.056l.006-.03c-.027.013-.034.026-.054.025.013-.018,0-.041-.041-.026l.02-.04-.067.069c-.068-.013-.156.048-.191.017,0,0-.137.017-.156.066.02-.032-.056-.022-.043-.058a.2.2,0,0,1-.17.071l.007-.006c-.159.012-.243.118-.388.123.016.029-.06.036-.029.07-.123.085-.28.006-.284.147-.059.03-.084,0-.118.005l.012-.012a2.239,2.239,0,0,1-.231.1c-.038.03-.02.088-.1.109.014-.033-.015-.015-.043,0,.016-.012.018-.022-.025-.02a.06.06,0,0,1-.014.024s0,0,0,0c-.043.03-.031.033-.009.026,0,0,0,.007.014.01-.062,0-.133.067-.157.034a2.532,2.532,0,0,0-.312.252c-.023-.011-.007-.042.021-.068-.025.018-.05.035-.075.054-.016-.027.036-.043.057-.062-.121.014-.165.161-.3.2l-.008.035h-.009c.008.01-.005.041-.018.056-.03-.011-.035-.05-.086-.011-.056.011-.107.1-.147.152.03-.02.031,0,.025.016-.024.021-.055.013-.066.038l-.026-.025c.031.017-.039.083-.037.1-.031-.007.021-.05.014-.071-.092.09-.048.043-.137.136-.029.068.033.015.032.061-.038.047-.059.106-.121.142l.038.006a.7.7,0,0,1-.08.115.374.374,0,0,1-.092.07,1.4,1.4,0,0,0-.056.182c-.018.026-.036.052-.054.079l-.024-.114.011.083c-.074-.015.011-.174-.065-.325-.02-.151-.2-.273-.2-.433-.047-.067.065.054.018-.051.035-.011.033.047.055.012-.039-.1,0-.185-.054-.312l.026-.011c-.09-.162-.035-.336-.111-.44-.065-.173.053-.139-.045-.312l.02-.081c-.013-.081-.06-.046-.064-.138.025,0-.01-.116.026-.07a1.179,1.179,0,0,0-.083-.308,1.11,1.11,0,0,1-.082-.359c-.06-.044-.07-.183-.116-.215.018-.013-.073-.263.012-.128.007.012.013.034,0,.035l.032.01c.007-.163-.1-.262-.142-.41,0,.046.025.1-.005.07l-.038-.137.031.021-.049-.206-.019.036c-.017-.1.021-.153-.055-.251-.038-.043-.007.1-.048.006l.048-.02c.057.037.123.076.2.12l-.013.007a1.15,1.15,0,0,0,.552.114c.012.07.194.048.245.079l-.006,0c.154-.021.294.1.443.072a.043.043,0,0,1-.045.018c.1.008.248.012.251.051.125.01.273.029.412.036a1.029,1.029,0,0,0,.351-.026l-.011.01c.093-.039.12,0,.223-.025.006,0,.013.007.012.009.1-.04.295-.02.375-.049l.008.024c.067-.01.135-.022.2-.037l-.076.008c.008-.036.047-.032.1-.029a.311.311,0,0,0,.194-.037.389.389,0,0,0,.18-.126.375.375,0,0,1,.174-.126c.046-.057-.03.073.05.008.019.031-.033.041,0,.055a.5.5,0,0,1,.124-.056.306.306,0,0,0,.134-.077l.02.021a.384.384,0,0,1,.089-.081c.032-.021.062-.042.093-.059a.917.917,0,0,0,.085-.054.19.19,0,0,0,.055-.07c.107-.128.141-.016.224-.18.025-.007.049-.016.074-.024.054-.052,0-.071.068-.121.016.02.08-.069.068-.017a.574.574,0,0,0,.095-.107c.027-.04.051-.083.076-.127s.052-.09.083-.135a.886.886,0,0,1,.113-.132c-.012-.069.076-.158.064-.21.022.005.123-.207.095-.068,0,.012-.014.029-.02.024l.016.028c.114-.093.1-.231.167-.345-.027.031-.05.078-.05.038l.062-.108.009.034.1-.158-.037.009a.841.841,0,0,1,.078-.081.2.2,0,0,0,.022-.032q.012-.02.023-.043a.527.527,0,0,0,.037-.11c.006-.038-.021-.005-.041.016s-.032.033,0-.038a3.109,3.109,0,0,0,.181-.325,1.752,1.752,0,0,0,.074-.181c.02-.058.035-.113.048-.166-.045.048-.032-.006-.028-.054l.037-.035a.264.264,0,0,1,.047-.167.367.367,0,0,0,.036-.071.324.324,0,0,0,.013-.052c0-.01,0-.021,0-.033a.224.224,0,0,0,0-.028.53.53,0,0,0-.052.029l0,0c-.152.092-.158.079-.178.074s-.052,0-.2.1c.1-.045-.019.075-.109.1l.049-.051a.773.773,0,0,1-.127.066c.044-.034.047-.066-.052-.015.027-.025.055-.051.084-.075-.073.05-.141.1-.2.149a.873.873,0,0,0-.229.1.472.472,0,0,1-.178.075l-.048.024c-.02.01-.042.022-.067.037-.049.029-.1.066-.109.1.021-.043-.079.006-.068-.037a.412.412,0,0,1-.217.16l.008-.009c-.211.093-.3.243-.5.314.025.024-.075.062-.031.085-.157.143-.365.111-.368.259-.079.051-.112.023-.157.038l.017-.016a1.921,1.921,0,0,1-.313.151c-.054.033-.043.093-.155.119.027-.036-.015-.014-.056,0,.025-.012.03-.022-.028-.022a.084.084,0,0,1-.025.024s0,0,0-.005c-.065.028-.051.032-.019.026,0,0,0,.008.015.011-.078-.006-.2.056-.216.017-.206.055-.356.118-.537.161-.024-.018.017-.043.069-.059l-.129.026c0-.03.073-.028.112-.04-.162-.026-.314.093-.508.083l-.034.031-.012,0c0,.012-.035.038-.062.048-.032-.02-.011-.061-.1-.038a.722.722,0,0,0-.293.109c.052-.011.04.008.021.024-.045.014-.078,0-.109.021l-.016-.032c.028.025-.1.076-.115.1-.035-.015.06-.047.065-.07-.177.07-.089.034-.263.111-.081.066.03.023,0,.072a1.137,1.137,0,0,1-.242.131l.043.013a1,1,0,0,1-.327.179,2.126,2.126,0,0,0-.18.2l-.018.013-.013,0-.076-.011c-.013-.06-.028-.12-.044-.175-.026.026-.04-.019-.062-.063l.025-.015c-.1-.164.037-.085-.053-.25l-.048-.018c-.108-.139.026-.1-.108-.254.029.068-.047.053-.066-.036l.033.013c-.022-.045-.038-.057-.044-.09.024.023.043,0,.014-.066l.049.035-.094-.114c-.008-.111-.1-.258-.078-.312,0,0-.059-.222-.117-.258.04.035.007-.088.048-.064a.509.509,0,0,1-.123-.28l.008.011c-.056-.255-.188-.4-.225-.637-.028.02-.05-.1-.08-.059-.114-.216-.055-.442-.2-.485-.039-.1-.009-.133-.019-.189l.014.023-.011-.03a1.268,1.268,0,0,0,.133.046l-.01.01a1.335,1.335,0,0,0,.272.013.637.637,0,0,0,.205-.047c.022.065.163.005.21.027l0,.005c.122-.049.25.047.37.006,0,0-.008.023-.035.023.086-.005.206-.015.211.023a2.063,2.063,0,0,0,.641-.04l-.009.011c.077-.043.1-.007.188-.032,0,0,.011.007.01.009.083-.043.249-.021.316-.047l.007.025c.057-.008.113-.018.17-.029l-.064,0c.011-.072.136.026.251-.045a.314.314,0,0,0,.157-.1.258.258,0,0,1,.156-.1c.043-.049-.03.066.042.015.015.033-.03.034,0,.055.074-.044.146-.014.233-.081l.016.024a.445.445,0,0,1,.172-.1.236.236,0,0,0,.135-.09c.1-.1.133.01.216-.133l.07-.014c.052-.043,0-.065.066-.106.014.02.077-.057.065-.009a.586.586,0,0,0,.159-.208,1.394,1.394,0,0,1,.071-.123.649.649,0,0,1,.1-.123c-.02-.064.055-.147.035-.194.01,0,.033-.047.052-.08s.033-.051.03.013c0,.011-.009.027-.016.023l.02.024c.1-.093.057-.217.1-.325-.02.03-.033.075-.041.039.013-.034.027-.068.039-.1l.016.029c.02-.051.042-.1.061-.152l-.034.013c.035-.072.092-.086.074-.183-.012-.044-.056.062-.045-.02l.009-.019,0-.011.006-.016c.009-.023.017-.046.026-.071.017-.05.035-.105.054-.164.038-.117.071-.245.1-.364-.043.048-.03-.012-.026-.065l.036-.036a.292.292,0,0,1,.048-.179.368.368,0,0,0,.057-.194.469.469,0,0,0-.044.02c0-.011,0-.024-.008-.029-.08.052-.077.033-.094.03s-.053.01-.181.112c.045-.025.039,0,.012.025a.31.31,0,0,1-.114.081l.046-.054a.707.707,0,0,1-.117.071c.042-.037.043-.066-.045-.017l.077-.076q-.1.077-.185.147a1,1,0,0,0-.207.088.377.377,0,0,1-.164.058l-.034.014c-.015.006-.036.015-.057.025-.042.021-.086.048-.095.075.019-.038-.069-.008-.058-.047a.278.278,0,0,1-.193.114l.007-.007c-.186.048-.278.173-.45.2.02.027-.07.045-.033.076-.148.105-.327.036-.342.18-.073.033-.1,0-.14.01l.016-.013a1.793,1.793,0,0,1-.284.1c-.049.027-.04.089-.14.1.024-.032-.013-.017-.049-.007.022-.01.026-.02-.024-.023a.07.07,0,0,1-.022.022s0,0,0-.005c-.057.024-.045.029-.017.025,0,0,0,.008.013.012-.07-.013-.173.045-.19.007-.177.051-.3.118-.455.166-.022-.017.011-.043.054-.06l-.109.031c-.005-.03.06-.031.093-.044-.143-.021-.263.105-.431.1l-.026.033h-.01c0,.012-.026.039-.048.05-.03-.018-.016-.059-.094-.032-.07,0-.172.075-.243.126.044-.015.036,0,.022.021-.037.017-.07,0-.093.03l-.02-.03c.015.011-.005.032-.029.052s-.052.043-.055.053c-.034-.011.044-.053.044-.075-.073.044-.091.056-.108.068s-.036.023-.1.075c-.055.076.033.017.019.068a1.041,1.041,0,0,1-.173.166l.042,0a.809.809,0,0,1-.221.233,1.586,1.586,0,0,0-.076.222c-.04.065-.077.131-.11.2-.034-.05-.085-.059-.106-.18.035.036.016-.016,0-.065.013.03.024.038.021-.031a.113.113,0,0,1-.024-.032s0,0,.005,0c-.029-.08-.033-.064-.026-.025,0,0-.008,0-.011.017.008-.093-.062-.237-.025-.257-.037-.122-.073-.225-.109-.323s-.073-.191-.1-.294c.017-.028.043.018.064.076-.014-.048-.024-.1-.036-.146.03,0,.032.081.048.125a.7.7,0,0,0-.051-.271.736.736,0,0,1-.054-.294l-.03-.039,0-.013c-.013,0-.036-.042-.045-.072.022-.033.061-.007.045-.108a1.231,1.231,0,0,0-.065-.333c0,.058-.015.041-.027.017-.006-.051.018-.083,0-.122l.027-.006c-.027-.005-.044-.135-.056-.151.024-.031.027.078.05.089-.016-.179-.01-.125-.018-.242l.065-.017,0,.014a.65.65,0,0,0,.37-.343c.032.013.064-.021.089-.061a.446.446,0,0,1,.071-.1l0,.007a.425.425,0,0,1,.1-.169.33.33,0,0,0,.09-.169.037.037,0,0,1,.006.043c.034-.084.068-.2.105-.191a1.745,1.745,0,0,0,.165-.6l.007.012c-.016-.083.024-.093.028-.179.006,0,.01-.008.012-.006-.015-.089.06-.229.059-.3l.026,0c.011-.053.023-.106.033-.159-.006.019-.013.038-.019.057-.062-.036.071-.109.051-.234a.305.305,0,0,0-.032-.175.219.219,0,0,1-.018-.174c-.025-.058.046.055.032-.029.036,0,.017.041.049.024-.007-.081.056-.125.041-.226h.029c-.037-.133.058-.241.013-.331-.02-.134.089-.088.033-.229l.038-.055c.006-.061-.048-.042-.032-.11.024,0,.016-.085.04-.047a.575.575,0,0,0-.022-.237.7.7,0,0,1-.022-.275c-.053-.035-.045-.14-.087-.164.02-.01-.042-.2.027-.1.006.009.009.026,0,.026l.03.007a.19.19,0,0,0,0-.088.86.86,0,0,0-.046-.127,1.947,1.947,0,0,1-.1-.241c.011.06.035.126,0,.1-.016-.055-.034-.106-.051-.159l.028.009c-.026-.084-.054-.166-.084-.246l0,.068c-.018-.062-.026-.12-.039-.172a.212.212,0,0,0-.065-.122c-.031-.013.029.16-.022.07-.026-.083-.061-.19-.1-.309l-.016-.045,0-.011,0-.006v0h0l-.009.012-.037.051c-.025.035-.05.072-.074.11.012.047-.013.088-.037.145l-.008-.046c-.046.122-.058.11-.072.1s-.015-.011-.026,0a.114.114,0,0,0-.021.03c0,.008-.009.016-.014.028l-.016.045c0,.032,0,.064,0,.095-.032.132-.049.135-.07.151s-.044.042-.066.179c.035-.085.06.019.01.1l-.01-.043a.5.5,0,0,1-.04.112c0-.04-.025-.039-.06.044,0-.021,0-.047,0-.072a.431.431,0,0,0-.009.136c-.059.056-.077.18-.126.192,0,0-.087.139-.065.191-.01-.041-.057.036-.074,0a.269.269,0,0,1-.073.206v-.01c-.109.153-.1.3-.2.438.033.007-.021.079.026.077-.036.173-.211.246-.121.358-.027.074-.067.071-.09.1l0-.02a2.35,2.35,0,0,1-.12.273c-.012.054.039.088-.016.17-.008-.039-.021,0-.037.032.007-.023,0-.033-.033,0a.07.07,0,0,1,0,.031s0,0-.006,0c-.018.058-.007.052.008.028,0,0,.008,0,.018,0-.055.044-.073.16-.114.149a3.287,3.287,0,0,0-.131.463c-.026.01-.031-.032-.021-.079-.012.036-.023.073-.033.111-.029-.011.006-.07.013-.1a.358.358,0,0,0-.07.207.983.983,0,0,1-.042.243l.022.038,0,.01c.013,0,.029.039.033.064-.025.024-.063,0-.056.085-.022.072.037.19.072.265-.006-.045.011-.034.025-.018.011.038-.009.068.011.094l-.033.014c.027-.024.066.088.085.1-.018.03-.042-.05-.063-.053.055.148.027.076.086.219.055.066.026-.026.07,0a.577.577,0,0,1,.094.2l.02-.036a.52.52,0,0,1,.105.282l.077.1.006.045c-.034.025-.051.05-.038.079a.122.122,0,0,0,.055.045v0c-.017,0-.033.007-.049.009l.055.039.019.15c.009.072.023.149.033.231l.041.666a2.917,2.917,0,0,0,.036.3,3.435,3.435,0,0,0,.079.376c.013.067.028.134.044.2l-.214-.134c-.16-.121-.257-.2-.357-.281a2.11,2.11,0,0,0-.383-.239c-.161-.1-.338-.186-.491-.276-.1-.006-.2-.128-.3-.153l-.016-.045a.145.145,0,0,1-.094-.058l.006-.005c-.054-.014-.093-.059-.12-.066l.007-.005L54,596.583l.015,0a.694.694,0,0,1-.216-.155l-.016.03c-.111-.141-.2-.132-.293-.272l.007,0c-.208-.073-.189-.259-.39-.35.025.011.006-.018.009-.027-.126-.122-.249-.256-.266-.176-.072-.085-.056-.1-.063-.143,0,.039-.069-.019-.124-.081l.025.012-.116-.126-.029.022a.915.915,0,0,1,.039.088.083.083,0,0,1-.032-.026.046.046,0,0,1-.015-.018c-.007-.014-.014-.022-.037.039l.019.062a.41.41,0,0,1-.107.123c-.019.016-.04.032-.061.053a.665.665,0,0,0-.064.084,1.458,1.458,0,0,0-.076.285c0,.025-.009.051-.012.076l-.006.073c0,.034,0,.069,0,.1a1.732,1.732,0,0,0,.059.405,3.348,3.348,0,0,0,.306.717l-.014.037c-.017.019.019.035.055.051s.074.03.062.052l.054.027c0,.018.02.048-.007.035a.14.14,0,0,0,.077.05l.017.06a2.791,2.791,0,0,0,.454.349,1.322,1.322,0,0,0,.39.283c.081.041.164.077.243.109s.154.057.218.077a1.419,1.419,0,0,1,.27.1c.045.021.089.044.134.068l.137.069a2.166,2.166,0,0,0,.283.12.93.93,0,0,0,.293.048.049.049,0,0,0,.047-.005c.114.027.23.044.345.062l.07.007c.044,0,.105.011.175.013s.148,0,.225,0a1.842,1.842,0,0,0,.218-.025l.047-.011a.464.464,0,0,0,.033.065l-.008.066a.351.351,0,0,1,.058.162h-.009c.043.071.059.161.082.2h-.009l.034.092-.016-.012a1.94,1.94,0,0,1,.142.387l.028-.021c.053.269.149.341.189.586H56.86c.184.263.107.48.291.752-.023-.034-.01.021-.019.021.058.135.115.28.177.26.035.1.01.089-.009.11.027-.01.068.073.1.151l-.023-.033.088.221.035-.062c.027.124-.051.052,0,.162l.042-.016a1.074,1.074,0,0,1,.031.306l-.017-.009a1.441,1.441,0,0,0-.705-.186,6.894,6.894,0,0,0-.755.049c-.268.006-.434,0-.6-.005s-.328,0-.583,0c-.245-.013-.51-.026-.755-.054-.123.031-.321-.049-.467-.033l-.049-.037a.282.282,0,0,1-.154-.019l0-.007a1.726,1.726,0,0,1-.192-.016l0-.007-.088-.013.017-.008a1.486,1.486,0,0,1-.371-.056l0,.034c-.237-.082-.338-.032-.55-.116l0-.007a.777.777,0,0,1-.362-.055,1.413,1.413,0,0,0-.168-.048l-.046-.008-.08-.011a1.644,1.644,0,0,0-.174-.011c.058,0-.031-.023-.029-.031-.23-.034-.472-.074-.391.007a.32.32,0,0,1-.189-.076c.04.036-.059.033-.159.02l.029-.007-.282-.032.172.078c-.041-.009-.089-.029-.081-.017a.061.061,0,0,1-.03-.007c-.022-.008-.036-.012.026.06l.09.046a.575.575,0,0,1,.087.191.907.907,0,0,0,.09.215,3.846,3.846,0,0,0,.248.3l.035.038.039.038.078.076.061.059.047.044c.066.056.134.109.2.163s.138.1.208.152l.1.073.052.037.054.034q.107.067.21.137c.069.046.14.085.207.131l.1.068c.033.023.067.042.1.065l.01.042c-.01.049.187.012.189.063.025,0,.05.006.076.009s.052.041.014.037a.243.243,0,0,0,.117.026l.056.056a.9.9,0,0,0,.089.042l.091.03c.061.018.121.033.182.048s.124.024.187.038.129.028.2.048a1.848,1.848,0,0,0,.291.081,1.348,1.348,0,0,0,.175.024l.184.014c.124.005.25,0,.366-.008s.224-.028.315-.04c.064-.01.128-.026.193-.036s.132-.018.2-.023l.2-.024c.068-.01.138-.017.207-.029a2.008,2.008,0,0,0,.778-.258c.018,0,.052-.032.05-.037.145-.064.289-.132.429-.207l.084-.046c.051-.031.123-.072.2-.124a3.774,3.774,0,0,0,.326-.233,7.189,7.189,0,0,1,.409,1.425l-.025.036c-.044.024.114.156.077.191l.04.068c0,.023,0,.069-.022.034a.26.26,0,0,0,.049.114l-.012.08c.042.273.148.49.2.777a5.372,5.372,0,0,0,.189.971,1.081,1.081,0,0,0-.491-.086c-.166.006-.336.033-.564.058-.2,0-.326,0-.451-.009a2.8,2.8,0,0,0-.441.018c-.184,0-.37.015-.543,0a.311.311,0,0,1-.16,0,.48.48,0,0,0-.174-.011l-.033-.034a.151.151,0,0,1-.111-.014l0-.007c-.056.01-.111-.016-.139-.011l0-.007-.063-.011.013-.009a.788.788,0,0,1-.271-.051v.034c-.17-.079-.252-.029-.407-.11l0-.007a.494.494,0,0,1-.277-.043.714.714,0,0,0-.13-.039l-.036,0-.058,0a.65.65,0,0,0-.13.005c.043-.006-.023-.02-.021-.027a2.213,2.213,0,0,0-.226.006.09.09,0,0,0-.059.021c-.01.01-.01.023,0,.039a.16.16,0,0,1-.137-.042c.027.028-.05.039-.122.047l.022-.012-.208.023c.042.014.083.029.122.044-.133-.005-.128-.055-.222-.034l.077.038q-.039,0-.082,0l-.044,0h-.021l-.013,0a.4.4,0,0,0,.037.18c.058.075.12.145.184.216l.1.107.049.053.025.026.029.024.229.189.056.046.028.023a.182.182,0,0,0,.022.015l.083.052.163.1c.056.031.111.062.164.094l.079.049.08.045c.052.031.1.064.152.1l0,.04c-.011.049.15-.017.149.031h.059c.011.014.038.035.009.035a.132.132,0,0,0,.09.013l.042.045a.913.913,0,0,0,.138.049.811.811,0,0,0,.139.027c.047.006.094.012.143.019s.1.019.149.029a1.117,1.117,0,0,0,.219.061,2.34,2.34,0,0,0,.27.018,2.548,2.548,0,0,0,.509-.06,1.437,1.437,0,0,1,.144-.03c.049-.01.1-.017.149-.022s.1-.006.155-.013l.157-.019a1.565,1.565,0,0,0,.313-.064.825.825,0,0,0,.276-.134c.015,0,.038-.028.035-.032.109-.05.215-.1.318-.161,0,0,.094-.052.21-.129a2.668,2.668,0,0,0,.347-.271l.02-.02c.122.494.05,1.085.2,1.577a.088.088,0,0,0,.023.061q.032.248.061.5s.019.15.049.347.07.439.115.623c.089.368.2.5.294-.44l.012.011a1.6,1.6,0,0,0-.1-.63c.061-.039-.023-.225-.011-.292l.006.005c-.074-.159-.006-.349-.075-.5a.05.05,0,0,1,.031.043c-.026-.116-.064-.273-.028-.287a3.921,3.921,0,0,0-.188-.838l.012.01c-.058-.095-.028-.13-.068-.24,0-.007.005-.016.007-.015a.32.32,0,0,1-.025-.06l.091.037-.008.01a.719.719,0,0,0,.122.015.624.624,0,0,0,.105,0,.4.4,0,0,0,.177-.064c.03.061.143-.019.185-.01l0,.006a.279.279,0,0,1,.155-.048.227.227,0,0,0,.149-.051c0,.006,0,.024-.019.033.067-.034.154-.085.174-.054a1.136,1.136,0,0,0,.443-.294v.013c.032-.068.066-.048.113-.1.006,0,.011,0,.012,0,.035-.07.159-.119.193-.166l.018.018.1-.087-.043.027c-.029-.065.107-.029.154-.125.075-.052.045-.228.137-.263.012-.053.006.065.039,0,.026.026-.008.037.024.048.037-.056.1-.043.148-.114l.021.019c.043-.108.171-.1.189-.185.064-.088.109.016.155-.1h.057c.039-.026-.006-.057.046-.078.013.02.062-.028.054.009.113-.046.147-.2.306-.237,0-.058.075-.08.074-.123.015.013.126-.085.082,0,0,.007-.015.014-.019.007l.008.028c.1-.005.109-.112.185-.149-.026.006-.052.025-.044,0l.068-.039v.029c.035-.017.07-.031.105-.047l-.028-.017c.056-.016.1.019.132-.046.015-.034-.065-.01-.017-.046l.03-.007.016,0a.094.094,0,0,0,.024-.008.465.465,0,0,0,.131-.084.393.393,0,0,0,.057-.064.342.342,0,0,0,.051-.106m-5.623-2.009a1.59,1.59,0,0,0-.2-.1c.067.011.124.022.172.033l.023.071m1.108,4.358c-.024,0-.051.006-.082.011l-.03-.009.075,0h.036v0" transform="matrix(0.995, 0.105, -0.105, 0.995, 17.978, -553.701)" fill="#a7a7a7"/>
              <path id="패스_28422" data-name="패스 28422" d="M618.082,997.538a.074.074,0,0,0,0-.008c0,.005,0,.007,0,.008" transform="translate(-588.906 -935.147)" fill="#599e59"/>
              <path id="패스_28423" data-name="패스 28423" d="M598.265,1138.472h.008a.011.011,0,0,0-.008,0" transform="translate(-570.332 -1067.274)" fill="#599e59"/>
              <path id="패스_28424" data-name="패스 28424" d="M607.75,1064.7h0l-.017-.016Z" transform="translate(-579.208 -998.105)" fill="#599e59"/>
              <path id="패스_28425" data-name="패스 28425" d="M613.1,1007.39v-.017a.013.013,0,0,0,0,.017" transform="translate(-584.239 -944.375)" fill="#599e59"/>
              <path id="패스_28426" data-name="패스 28426" d="M613.391,998.119h0Z" transform="translate(-584.512 -935.7)" fill="#599e59"/>
              <path id="패스_28427" data-name="패스 28427" d="M597.137,993.128h0l-.018.008Z" transform="translate(-569.257 -931.02)" fill="#599e59"/>
              <path id="패스_28428" data-name="패스 28428" d="M626.229,1011.27h.016a.012.012,0,0,0-.016,0" transform="translate(-596.547 -948.026)" fill="#599e59"/>
              <path id="패스_28429" data-name="패스 28429" d="M635.446,1009.384h0l0,0Z" transform="translate(-605.187 -946.26)" fill="#599e59"/>
              <path id="패스_28431" data-name="패스 28431" d="M608.571,1042.38l0-.016a.013.013,0,0,0,0,.016" transform="translate(-579.991 -977.178)" fill="#599e59"/>
              <path id="패스_28432" data-name="패스 28432" d="M608.782,1033.527h0Z" transform="translate(-580.191 -968.893)" fill="#599e59"/>
              <path id="패스_28433" data-name="패스 28433" d="M593.178,1031.1h0l-.017.011Z" transform="translate(-565.547 -966.622)" fill="#599e59"/>
              <path id="패스_28434" data-name="패스 28434" d="M618.4,1061.985h.02s-.011-.005-.02,0" transform="translate(-589.203 -995.568)" fill="#599e59"/>
              <path id="패스_28435" data-name="패스 28435" d="M630.127,1060.234h0s0,0,0,.005Z" transform="translate(-600.2 -993.93)" fill="#599e59"/>
              <path id="패스_28436" data-name="패스 28436" d="M598.235,1088.408l.005-.015a.012.012,0,0,0-.005.015" transform="translate(-570.303 -1020.328)" fill="#599e59"/>
              <path id="패스_28437" data-name="패스 28437" d="M600.441,1079.818h0Z" transform="translate(-572.371 -1012.289)" fill="#599e59"/>
              <path id="패스_28438" data-name="패스 28438" d="M611.037,1104.894h.02s-.011-.006-.02,0" transform="translate(-582.305 -1035.793)" fill="#599e59"/>
              <path id="패스_28439" data-name="패스 28439" d="M622.4,1104.612h0a.048.048,0,0,0,0,.005Z" transform="translate(-592.952 -1035.533)" fill="#599e59"/>
              <path id="패스_28440" data-name="패스 28440" d="M593.334,1132.7a.013.013,0,0,0-.006.015Z" transform="translate(-565.703 -1061.861)" fill="#599e59"/>
              <path id="패스_28441" data-name="패스 28441" d="M595.2,1123.834h0Z" transform="translate(-567.462 -1053.553)" fill="#599e59"/>
              <path id="패스_28442" data-name="패스 28442" d="M608.841,1142.84l.02,0s-.011-.005-.02,0" transform="translate(-580.246 -1071.366)" fill="#599e59"/>
              <path id="패스_28443" data-name="패스 28443" d="M620.42,1142.276h0v0Z" transform="translate(-591.099 -1070.841)" fill="#599e59"/>
              <path id="패스_28444" data-name="패스 28444" d="M588.457,1151.54l-.01-.018c0,.006,0,.012.01.018" transform="translate(-561.127 -1079.509)" fill="#599e59"/>
              <path id="패스_28445" data-name="패스 28445" d="M581.205,1141.836h0l.005,0Z" transform="translate(-554.338 -1070.427)" fill="#599e59"/>
              <path id="패스_28446" data-name="패스 28446" d="M556.7,1142.936h0l-.014.015Z" transform="translate(-531.355 -1071.46)" fill="#599e59"/>
              <path id="패스_28447" data-name="패스 28447" d="M629.032,1140.588h.032s-.012-.007-.032,0" transform="translate(-599.174 -1069.254)" fill="#599e59"/>
              <path id="패스_28448" data-name="패스 28448" d="M714.368,1063.318a.053.053,0,0,0,0-.007s0,.007,0,.007" transform="translate(-679.173 -996.814)" fill="#599e59"/>
              <path id="패스_28449" data-name="패스 28449" d="M718.471,1045.207l.011-.011a.012.012,0,0,0-.011.011" transform="translate(-683.02 -979.833)" fill="#599e59"/>
              <path id="패스_28450" data-name="패스 28450" d="M724.179,1038.574h0Z" transform="translate(-688.371 -973.625)" fill="#599e59"/>
              <path id="패스_28451" data-name="패스 28451" d="M713.094,1028.268Z" transform="translate(-677.961 -963.963)" fill="#599e59"/>
              <path id="패스_28452" data-name="패스 28452" d="M703.209,1065l.009-.016c-.006,0-.01.006-.009.016" transform="translate(-668.713 -998.384)" fill="#599e59"/>
              <path id="패스_28453" data-name="패스 28453" d="M708.207,1055.769h0l0,0Z" transform="translate(-673.398 -989.744)" fill="#599e59"/>
              <path id="패스_28454" data-name="패스 28454" d="M696.439,1039.484h0l-.02,0Z" transform="translate(-662.347 -974.476)" fill="#599e59"/>
              <path id="패스_28455" data-name="패스 28455" d="M684.675,1087.439l.009-.016c-.006,0-.01.006-.009.016" transform="translate(-651.337 -1019.418)" fill="#599e59"/>
              <path id="패스_28456" data-name="패스 28456" d="M689.531,1077.759h0l0,0Z" transform="translate(-655.89 -1010.359)" fill="#599e59"/>
              <path id="패스_28457" data-name="패스 28457" d="M677.123,1060.836h0l-.02,0Z" transform="translate(-644.239 -994.492)" fill="#599e59"/>
              <path id="패스_28458" data-name="패스 28458" d="M662.048,1111.752l.011-.012a.012.012,0,0,0-.011.012" transform="translate(-630.126 -1042.215)" fill="#599e59"/>
              <path id="패스_28459" data-name="패스 28459" d="M667.682,1104.843h0l0,0Z" transform="translate(-635.407 -1035.75)" fill="#599e59"/>
              <path id="패스_28460" data-name="패스 28460" d="M657.946,1141.33h0l0,0Z" transform="translate(-626.277 -1069.955)" fill="#599e59"/>
              <path id="패스_28461" data-name="패스 28461" d="M699.351,1098.065l.013.009a.013.013,0,0,0-.013-.009" transform="translate(-665.096 -1029.395)" fill="#599e59"/>
              <path id="패스_28462" data-name="패스 28462" d="M706.722,1102.48h0v0Z" transform="translate(-672.005 -1033.534)" fill="#599e59"/>
              <path id="패스_28463" data-name="패스 28463" d="M720.792,1065.965l.012.009c0-.005-.007-.009-.012-.009" transform="translate(-685.196 -999.303)" fill="#599e59"/>
              <path id="패스_28464" data-name="패스 28464" d="M727.881,1070.31h0s0,0,0,0Z" transform="translate(-691.841 -1003.376)" fill="#599e59"/>
              <path id="패스_28465" data-name="패스 28465" d="M740.845,1043.574h0s0,0,0,0Z" transform="translate(-703.995 -978.312)" fill="#599e59"/>
              <path id="패스_28467" data-name="패스 28467" d="M245.832,825.848l.095-.027s-.028,0-.095.027" transform="translate(-239.939 -774.175)" fill="#9bd193"/>
              <path id="패스_28468" data-name="패스 28468" d="M294.353,819.52l-.019.013.019-.013" transform="translate(-285.407 -768.27)" fill="#9bd193"/>
              <path id="패스_28469" data-name="패스 28469" d="M225.56,835.1l.005,0s0,0-.005,0" transform="translate(-220.934 -782.877)" fill="#9bd193"/>
              <path id="패스_28470" data-name="패스 28470" d="M369.784,686.239h0l.012-.041Z" transform="translate(-356.139 -643.285)" fill="#9bd193"/>
              <path id="패스_28472" data-name="패스 28472" d="M179.272,846.264c0-.015.006-.029.011-.044,0,0-.01.012-.011.044" transform="translate(-177.541 -793.3)" fill="#9bd193"/>
              <path id="패스_28473" data-name="패스 28473" d="M199.648,827.163s0,.007,0,.01,0-.009,0-.01" transform="translate(-196.642 -775.435)" fill="#9bd193"/>
              <path id="패스_28474" data-name="패스 28474" d="M208.283,764.789h0v0Z" transform="translate(-204.737 -716.938)" fill="#9bd193"/>
              <path id="패스_28475" data-name="패스 28475" d="M179.585,856.82l.007,0a.007.007,0,0,0-.007,0" transform="translate(-177.834 -803.235)" fill="#9bd193"/>
              <path id="패스_28476" data-name="패스 28476" d="M205.385,832.481l.037-.037s-.015.006-.037.037" transform="translate(-202.021 -780.386)" fill="#9bd193"/>
              <path id="패스_28477" data-name="패스 28477" d="M234.033,819.688a.119.119,0,0,0-.006.011c0-.007.006-.01.006-.011" transform="translate(-228.872 -768.427)" fill="#9bd193"/>
              <path id="패스_28478" data-name="패스 28478" d="M261.978,749.038h0l0-.026Z" transform="translate(-255.075 -702.171)" fill="#9bd193"/>
              <path id="패스_28479" data-name="패스 28479" d="M199.267,842.719l.006,0a.006.006,0,0,0-.006,0" transform="translate(-196.286 -790.017)" fill="#9bd193"/>
              <path id="패스_28480" data-name="패스 28480" d="M300.474,1059.485c0-.01,0-.019-.005-.029,0,.01,0,.02.005.029" transform="translate(-291.159 -993.201)" fill="#ec9797"/>
              <path id="패스_28481" data-name="패스 28481" d="M383.078,1006l.013.1s0-.027-.013-.1" transform="translate(-368.602 -943.089)" fill="#eac7c7"/>
              <path id="패스_28482" data-name="패스 28482" d="M350.034,1073.117l-.023,0,.023,0" transform="translate(-337.603 -1006.006)" fill="#eac7c7"/>
              <path id="패스_28483" data-name="패스 28483" d="M439.433,1079.937h0l.035.024Z" transform="translate(-421.432 -1012.401)" fill="#eac7c7"/>
              <path id="패스_28484" data-name="패스 28484" d="M375.033,984.3v.008s0,0,0-.008" transform="translate(-361.06 -922.743)" fill="#ec9797"/>
              <path id="합치기_83" data-name="합치기 83" d="M3.846,8.745a.341.341,0,0,1-.189-.06.42.42,0,0,1-.135-.162l.014-.029a.53.53,0,0,1-.025-.076c0-.013-.006-.026-.008-.039s0-.02-.005-.031a.72.72,0,0,1-.006-.111.92.92,0,0,1,.025-.189,2.565,2.565,0,0,0,.062-.328c.02-.036.017-.007.018.021s0,.039.015.038c.011-.136.021-.1.028-.074s.01.054.011-.025c.085-.344.017-.71.08-1.045.023-.365.166-.66.12-.733l-.034.184.038-.248.018-.129L3.9,5.689V5.68s0,0,0,0H3.889l-.025,0-.055-.008L3.6,5.629a4.3,4.3,0,0,0-.485-.063S3.1,5.56,3.088,5.554c-.259-.027-.321-.067-.554-.074l.029,0a18.832,18.832,0,0,1-1.9-.324.622.622,0,0,0-.224-.068,1.138,1.138,0,0,1-.112-.028C.3,5.05.283,5.042.26,5.033a.5.5,0,0,1-.078-.04A.4.4,0,0,1,0,4.745a.228.228,0,0,0,.039.087c.015.018.024.023.031.032A.355.355,0,0,1,0,4.657a.4.4,0,0,1,.014-.114.462.462,0,0,1,.041-.1.5.5,0,0,1,.135-.158A.606.606,0,0,1,.365,4.19a1.385,1.385,0,0,1,.324-.056,2.509,2.509,0,0,0,.284-.04L.96,4.1a2.6,2.6,0,0,0,.276-.027.987.987,0,0,1,.376-.013A10.043,10.043,0,0,1,3.039,3.9l-.027.011c.527-.009.9-.009,1.151,0,0-.009,0-.017,0-.026l0-.028c0-.009,0-.019,0-.028h0c0-.011,0-.022,0-.034a5.664,5.664,0,0,1-.162-.766,5.177,5.177,0,0,1-.106-.668c.006-.072.011-.14.014-.211s.01-.141.013-.217.01-.155.015-.243.012-.182.023-.287l-.038.078c.051-.255.074-.473.123-.695,0-.055-.012-.03-.025-.006S4,.846,4.023.7c.014-.059.028-.106.04-.145l.028-.1c.014-.049.025-.083.038-.115L4.151.3l.015-.03L4.176.248,4.189.224A.653.653,0,0,1,4.278.108.38.38,0,0,1,4.459,0a.184.184,0,0,1-.027.013C4.42.02,4.4.026,4.388.036a.461.461,0,0,0-.1.079c-.056.063-.083.125-.05.091a.379.379,0,0,1,.067-.09.361.361,0,0,1,.15-.095A.3.3,0,0,1,4.544.007a.227.227,0,0,1,.037,0l.032,0a.159.159,0,0,0,.045.005.245.245,0,0,1,0,.027c.114.049.159.167.2.306A.161.161,0,0,0,4.892.4s0-.005,0-.02,0-.017-.006-.029,0-.013,0-.02,0-.015-.008-.027c.027.073.044.133.066.2L5,.708a2.529,2.529,0,0,1,.09.355c.059.229.014.165.009.237a.541.541,0,0,0,.071.164l0,.028.043.091c.082.472.267.87.328,1.275-.031-.1-.068-.291-.093-.287l.091.33c-.041-.134-.084-.24-.088-.183.033.116.066.228.1.338l.012.041.005.016,0,.012L5.6,3.17l.03.082s0,0,0,0l0,0,.005,0,.011-.006.022-.012.042-.023c.032-.016.039-.022.11-.056.116-.055.239-.112.371-.17.035.022.355-.142.55-.2-.028.006-.036.005-.033,0-.084.032-.117.039.058-.041,0,0,0,0,.006,0a.572.572,0,0,0,.074-.045c.145-.045.127-.03.06,0,.107-.044.222-.095.137-.039A2.487,2.487,0,0,0,7.5,2.433c.322-.126.447-.176.879-.351l-.053.026L8.366,2.1l.02-.005.029-.009a.883.883,0,0,1,.123-.025.593.593,0,0,1,.147,0,.333.333,0,0,1,.188.081.244.244,0,0,1,.142.226.475.475,0,0,1-.034.2.674.674,0,0,1-.052.107.524.524,0,0,1-.034.052c-.009.013-.019.026-.029.038-.141.168-.329.345-.532.543.078-.019-.155.154-.12.159-.226.158-.426.3-.637.432a5.106,5.106,0,0,1-.706.384L6.9,4.258l-.053.019-.03.012L6.79,4.3a.134.134,0,0,0-.028.012c-.017.01-.027.022-.019.028a.172.172,0,0,0,.035.006c-.026,0-.038,0-.041.009s0,.015-.025.013a.26.26,0,0,1,.049.011l.022.01h0l.012.007.023.015.047.029c.125.076.233.152.233.152a1.757,1.757,0,0,0,.252.187,2.868,2.868,0,0,1,.335.26c.094.053.183.115.275.173l-.106-.053c.134.106.141.148.083.109.053.056.089.075.176.151C8.1,5.408,8.08,5.4,8.062,5.4c.142.153.244.183.121.062.044.033.079.062.108.086a.785.785,0,0,1,.067.066.524.524,0,0,1,.066.09c.016.025.03.049.056.087a1.913,1.913,0,0,0,.135.158l.07.048c.033.044.059.081.079.111a.769.769,0,0,1,.039.076.309.309,0,0,1,.025.082.329.329,0,0,0,.025.082c.008.02.018.046.034.078l.027.055.021.043c.009.018.018.037.027.059L8.947,6.6c.061.173.115.346.128.3l.019.063.005.015s0,0,0,0h0l-.008,0L9.055,7l-.13.043c-.087.028-.175.052-.264.075a.671.671,0,0,1-.069.011l-.051.007a.754.754,0,0,1-.088.007l-.087,0-.086,0a2.12,2.12,0,0,1-.588-.121c-.145-.042-.093-.018-.047,0s.063.033.011.025A1.034,1.034,0,0,1,7.48,7a.817.817,0,0,1-.128-.057C7.274,6.906,7.2,6.858,7.1,6.8l.05.052a4.383,4.383,0,0,1-.422-.259l.068.02c-.091-.059-.18-.121-.267-.183-.084-.039.029.037.111.1-.285-.2-.546-.316-.8-.532l.046,0c-.007,0,.035.031.061.045.149.078.1.04.015-.022s-.211-.139-.214-.15a1.633,1.633,0,0,1-.222-.1l-.067-.031-.011,0-.005,0h-.01c-.013,0-.023,0-.027.009l-.012-.01-.007-.005,0,0a.1.1,0,0,0-.014.019l-.012.023v0l0,.006-.01.024L5.32,5.85c-.05.127-.094.249-.136.368-.084.238-.158.459-.256.667.014-.068-.011-.013-.037.043-.019.04-.04.081-.045.073-.088.183-.029.151-.1.32l-.09.143c-.113.415-.146.256-.278.647a1.349,1.349,0,0,1-.066.2,1.1,1.1,0,0,1-.053.117c-.011.02-.022.041-.036.062l-.02.031a.4.4,0,0,1-.028.039.415.415,0,0,1-.318.18ZM0,4.74v0Z" transform="translate(12.316 62.299)" fill="#eee" stroke="rgba(0,0,0,0)" stroke-miterlimit="10" stroke-width="1"/>
              <path id="패스_28486" data-name="패스 28486" d="M380.655,1050.936l.005,0-.005,0" transform="translate(-366.33 -985.212)" fill="#f4dcdc"/>
              <path id="패스_28487" data-name="패스 28487" d="M379.775,1046.916h0" transform="translate(-365.504 -981.445)" fill="#f4dcdc"/>
              <path id="패스_28488" data-name="패스 28488" d="M383.493,1049.95h0Z" transform="translate(-368.991 -984.289)" fill="#f4dcdc"/>
              <path id="패스_28490" data-name="패스 28490" d="M377.044,1061.483l0-.005s0,0,0,.005" transform="translate(-362.943 -995.096)" fill="#f4dcdc"/>
              <path id="패스_28491" data-name="패스 28491" d="M370.136,1061.746h0" transform="translate(-356.469 -995.347)" fill="#f4dcdc"/>
              <path id="패스_28492" data-name="패스 28492" d="M375.943,1058.634h0Z" transform="translate(-361.913 -992.43)" fill="#f4dcdc"/>
              <path id="패스_28494" data-name="패스 28494" d="M383.211,1064.746h0" transform="translate(-368.721 -998.159)" fill="#f4dcdc"/>
              <path id="패스_28495" data-name="패스 28495" d="M381.793,1069.446h0" transform="translate(-367.397 -1002.566)" fill="#f4dcdc"/>
              <path id="패스_28496" data-name="패스 28496" d="M380.254,1064.55Z" transform="translate(-365.953 -997.975)" fill="#f4dcdc"/>
              <path id="패스_28498" data-name="패스 28498" d="M389.862,1058.661l0,.005s0,0,0-.005" transform="translate(-374.959 -992.456)" fill="#f4dcdc"/>
              <path id="패스_28499" data-name="패스 28499" d="M395.445,1061.611h0" transform="translate(-380.195 -995.22)" fill="#f4dcdc"/>
              <path id="패스_28500" data-name="패스 28500" d="M389.122,1061.671h0Z" transform="translate(-374.267 -995.277)" fill="#f4dcdc"/>
              <path id="패스_28502" data-name="패스 28502" d="M390.014,1050.21l0,0s0,0,0,0" transform="translate(-375.104 -984.533)" fill="#f4dcdc"/>
              <path id="패스_28503" data-name="패스 28503" d="M394.18,1045.65h0" transform="translate(-379.008 -980.257)" fill="#f4dcdc"/>
              <path id="패스_28504" data-name="패스 28504" d="M392.771,1051.6h0Z" transform="translate(-377.688 -985.836)" fill="#f4dcdc"/>
            </g>
          </g>
        </g>
      </g>
    </g>
  </g>
</svg>
