<svg xmlns="http://www.w3.org/2000/svg" xmlns:xlink="http://www.w3.org/1999/xlink" width="16" height="16" viewBox="0 0 16 16"><defs><clipPath id="a"><rect width="16" height="16" fill="none"/></clipPath></defs><g clip-path="url(#a)"><g transform="translate(-68 -518)"><rect width="16" height="16" transform="translate(68 518)" fill="#ffadad" opacity="0"/></g><g transform="translate(-298 -323)"><path d="M4.987,6.853a.6.6,0,0,0-.6.6v1.1a.6.6,0,1,0,1.2,0v-1.1a.6.6,0,0,0-.6-.6" transform="translate(301 324.918)" fill="#333"/><path d="M9.82,6.088A2.521,2.521,0,0,0,8.054,4.006V3.067a3.067,3.067,0,0,0-6.135,0v.939A2.525,2.525,0,0,0,.152,6.088,14.4,14.4,0,0,0,0,8,14.388,14.388,0,0,0,.152,9.915,2.52,2.52,0,0,0,2.524,12.11c.786.037,1.584.055,2.462.055s1.677-.018,2.462-.055A2.518,2.518,0,0,0,9.82,9.916,14.187,14.187,0,0,0,9.973,8,14.17,14.17,0,0,0,9.82,6.088M4.986,1.2A1.87,1.87,0,0,1,6.855,3.067v.806c-1.221-.041-2.516-.041-3.736,0V3.067A1.87,1.87,0,0,1,4.986,1.2M8.631,9.755a1.336,1.336,0,0,1-1.238,1.156c-1.533.073-3.277.073-4.814,0A1.32,1.32,0,0,1,1.341,9.755,13.262,13.262,0,0,1,1.2,8a13.26,13.26,0,0,1,.141-1.753A1.321,1.321,0,0,1,2.58,5.092c1.536-.072,3.279-.072,4.814,0A1.336,1.336,0,0,1,8.631,6.249,13.172,13.172,0,0,1,8.774,8a13.2,13.2,0,0,1-.143,1.754" transform="translate(301 325)" fill="#333"/></g></g></svg>