<svg xmlns="http://www.w3.org/2000/svg" width="24" height="24" viewBox="0 0 24 24">
  <g id="그룹_31982" data-name="그룹 31982" transform="translate(-53 -344)">
    <rect id="사각형_16800" data-name="사각형 16800" width="24" height="24" transform="translate(53 344)" fill="none"/>
    <path id="phone-call" d="M15.936,7.616a.692.692,0,0,1-.692-.692A5.545,5.545,0,0,0,9.7,1.384.692.692,0,1,1,9.7,0a6.931,6.931,0,0,1,6.924,6.924A.692.692,0,0,1,15.936,7.616Zm-2.077-.692A4.154,4.154,0,0,0,9.7,2.769a.692.692,0,1,0,0,1.385,2.77,2.77,0,0,1,2.77,2.77.692.692,0,1,0,1.385,0Zm1.511,8.422.63-.726a2.146,2.146,0,0,0,0-3.031c-.021-.021-1.687-1.3-1.687-1.3a2.146,2.146,0,0,0-2.964,0L10.029,11.4a8.851,8.851,0,0,1-4.8-4.808L6.337,5.278a2.146,2.146,0,0,0,0-2.965S5.059.65,5.037.628a2.134,2.134,0,0,0-3-.032l-.8.692C-3.458,6.746,6.671,16.8,12.309,16.617a4.262,4.262,0,0,0,3.061-1.271Z" transform="translate(56.651 347.691)" fill="#333"/>
  </g>
</svg>
