<svg xmlns="http://www.w3.org/2000/svg" xmlns:xlink="http://www.w3.org/1999/xlink" width="16" height="16" viewBox="0 0 16 16"><defs><clipPath id="a"><rect width="16" height="16" fill="none"/></clipPath></defs><g clip-path="url(#a)"><g transform="translate(-68 -518)"><rect width="16" height="16" transform="translate(68 518)" fill="#ffadad" opacity="0"/></g><path d="M-5288.476-2885.89a2.52,2.52,0,0,1-2.372-2.195A14.244,14.244,0,0,1-5291-2890a14.225,14.225,0,0,1,.153-1.914,2.518,2.518,0,0,1,2.373-2.194c1.372-.064,2.9-.069,4.313-.021v-.806A3.068,3.068,0,0,1-5281.1-2898a3.07,3.07,0,0,1,3.068,3.066v1.37a.6.6,0,0,1-.6.6.6.6,0,0,1-.6-.6v-1.37a1.87,1.87,0,0,0-1.868-1.867,1.87,1.87,0,0,0-1.867,1.867v.933a2.528,2.528,0,0,1,1.783,2.089,14.057,14.057,0,0,1,.153,1.912,14.135,14.135,0,0,1-.153,1.915,2.521,2.521,0,0,1-2.372,2.195c-.786.036-1.584.054-2.463.054S-5287.69-2885.854-5288.476-2885.89Zm.056-7.018a1.335,1.335,0,0,0-1.237,1.155,13.073,13.073,0,0,0-.144,1.753,13,13,0,0,0,.144,1.753h0a1.335,1.335,0,0,0,1.237,1.156c1.534.072,3.28.072,4.813,0a1.321,1.321,0,0,0,1.239-1.156,13.164,13.164,0,0,0,.142-1.754,13.2,13.2,0,0,0-.142-1.753,1.319,1.319,0,0,0-1.237-1.155c-.769-.037-1.548-.056-2.409-.056S-5287.653-2892.945-5288.42-2892.907Zm1.807,3.456v-1.1a.6.6,0,0,1,.6-.6.6.6,0,0,1,.6.6v1.1a.6.6,0,0,1-.6.6A.6.6,0,0,1-5286.613-2889.451Z" transform="translate(5293 2900)" fill="#333"/></g></svg>