<svg xmlns="http://www.w3.org/2000/svg" xmlns:xlink="http://www.w3.org/1999/xlink" width="36" height="36" viewBox="0 0 36 36"><defs><style>.a{fill:none;}.b{fill:#333;}.c{clip-path:url(#a);}.d{fill:#ffb9b9;opacity:0;}.e{clip-path:url(#b);}</style><clipPath id="a"><rect class="a" width="36" height="36"/></clipPath><clipPath id="b"><rect class="b" width="21.5" height="21.5"/></clipPath></defs><g class="c"><g transform="translate(-310 -734)"><rect class="d" width="36" height="36" transform="translate(310 734)"/><g transform="translate(317.25 741.25)"><g class="e"><path class="b" d="M10.75,0A10.75,10.75,0,1,0,21.5,10.75,10.762,10.762,0,0,0,10.75,0m5.175,16.017a.742.742,0,0,1-.675.483h-9a.75.75,0,0,1-.532-1.278,7.1,7.1,0,0,1,10.023-.041.785.785,0,0,1,.184.836M7.5,8.25a3.25,3.25,0,1,1,3.25,3.25A3.254,3.254,0,0,1,7.5,8.25"/></g></g></g></g></svg>