<svg xmlns="http://www.w3.org/2000/svg" xmlns:xlink="http://www.w3.org/1999/xlink" width="24" height="24" viewBox="0 0 24 24"><defs><style>.a{fill:none;}.b{clip-path:url(#a);}.c{fill:#fff;}</style><clipPath id="a"><rect class="a" width="24" height="24"/></clipPath></defs><g class="b"><g transform="translate(-120 -603)"><g transform="translate(120 603)"><rect class="a" width="24" height="24"/><g transform="translate(-316.856 -59.882)"><path class="c" d="M2740.356,1347.382a1,1,0,0,1-.707-.293l-14-14a1,1,0,1,1,1.414-1.414l14,14a1,1,0,0,1-.707,1.707Z" transform="translate(-2404.5 -1267.5)"/><path class="c" d="M2726.356,1347.382a1,1,0,0,1-.707-1.707l14-14a1,1,0,0,1,1.414,1.414l-14,14A1,1,0,0,1,2726.356,1347.382Z" transform="translate(-2404.5 -1267.5)"/></g></g></g></g></svg>