<svg xmlns="http://www.w3.org/2000/svg" width="72" height="72" viewBox="0 0 72 72">
  <defs>
    <style>
      .cls-1 {
        fill: none;
      }

      .cls-2 {
        fill: #83bbf4;
      }

      .cls-3 {
        fill: #4a98e8;
      }

      .cls-4 {
        fill: #2a77c6;
      }
    </style>
  </defs>
  <g id="ico-duet" transform="translate(-234 -639)">
    <rect id="사각형_16444" data-name="사각형 16444" class="cls-1" width="72" height="72" transform="translate(234 639)"/>
    <g id="그룹_30166" data-name="그룹 30166" transform="translate(302.958 1658.172)">
      <path id="패스_27723" data-name="패스 27723" class="cls-2" d="M25.956,18.885a9.338,9.338,0,1,1-9.337-9.337,9.337,9.337,0,0,1,9.337,9.337" transform="translate(-61.35 -1007.722)"/>
      <path id="패스_27724" data-name="패스 27724" class="cls-3" d="M38.753,16.535a10.5,10.5,0,1,1-10.5-10.5,10.5,10.5,0,0,1,10.5,10.5" transform="translate(-49.888 -1011.567)"/>
      <path id="패스_27725" data-name="패스 27725" class="cls-2" d="M28.473,23.241A13.587,13.587,0,0,0,5.25,32.821v4.631a3.071,3.071,0,0,0,3.07,3.07H26.552V30.741a15.528,15.528,0,0,1,1.921-7.5" transform="translate(-63.571 -997.124)"/>
      <path id="패스_27726" data-name="패스 27726" class="cls-3" d="M30.028,17.273a15.6,15.6,0,0,0-13.689,8.11,13.549,13.549,0,0,1,3.954,9.582v7.7h20.89a4.454,4.454,0,0,0,4.455-4.455V32.883a15.61,15.61,0,0,0-15.61-15.61" transform="translate(-51.435 -999.268)"/>
      <path id="패스_27727" data-name="패스 27727" class="cls-4" d="M17.342,21.146a15.528,15.528,0,0,0-1.921,7.5v9.781H21.3v-7.7a13.539,13.539,0,0,0-3.954-9.58" transform="translate(-52.44 -995.029)"/>
      <path id="패스_27728" data-name="패스 27728" class="cls-2" d="M11.184,18.737,8.9,16.994a1.291,1.291,0,0,0-2.046.767l-.991,4.83a3.872,3.872,0,1,0,1.8,4.1c0-.013,1.3-6.388,1.3-6.4l.653.5a1.29,1.29,0,1,0,1.565-2.053" transform="translate(-68.317 -999.863)"/>
      <path id="패스_27729" data-name="패스 27729" class="cls-3" d="M32.051,22.2a2.261,2.261,0,0,0,2.256-2.262V16l4.011-1.129,0,1.441a2.255,2.255,0,1,0,1.5,2.172c0-.059,0-2.888,0-4.608a.753.753,0,0,0-.955-.723l-5.515,1.554a.753.753,0,0,0-.547.723v2.394a2.255,2.255,0,1,0-.754,4.379" transform="translate(-37.671 -1004.2)"/>
    </g>
  </g>
</svg>
