<svg xmlns="http://www.w3.org/2000/svg" xmlns:xlink="http://www.w3.org/1999/xlink" width="20" height="20" viewBox="0 0 20 20"><defs><clipPath id="a"><rect width="20" height="20" fill="none"/></clipPath></defs><g clip-path="url(#a)"><g transform="translate(-35.655 -126.655)"><rect width="20" height="20" transform="translate(35.655 126.655)" fill="#ff5f5f" opacity="0"/><g transform="translate(37.609 128.609)"><rect width="16" height="16" rx="8" transform="translate(0.045 0.045)" fill="#ff2b2f"/><path d="M-9.782-12.5h2.26a3.512,3.512,0,0,0-3.829-3.267c-2.283,0-4.075,1.534-4.075,4.356s1.745,4.356,4.075,4.356A3.6,3.6,0,0,0-7.522-10.2l-2.26-.023A1.406,1.406,0,0,1-11.3-9c-1.147,0-1.827-.82-1.827-2.412,0-1.51.667-2.412,1.838-2.412A1.386,1.386,0,0,1-9.782-12.5Z" transform="translate(19.519 19.465)" fill="#fff"/></g></g></g></svg>