<svg xmlns="http://www.w3.org/2000/svg" width="24" height="24" viewBox="0 0 24 24">
  <defs>
    <style>
      .cls-1 {
        fill: #ffafaf;
        opacity: 0;
      }

      .cls-2 {
        fill: #333;
      }
    </style>
  </defs>
  <g id="그룹_31935" data-name="그룹 31935" transform="translate(-86 -183)">
    <rect id="사각형_16798" data-name="사각형 16798" class="cls-1" width="24" height="24" transform="translate(86 183)"/>
    <path id="합치기_81" data-name="합치기 81" class="cls-2" d="M-8720.5-634v-7.5h-7.5a1,1,0,0,1-1-1,1,1,0,0,1,1-1h7.5V-651a1,1,0,0,1,1-1,1,1,0,0,1,1,1v7.5h7.5a1,1,0,0,1,1,1,1,1,0,0,1-1,1h-7.5v7.5a1,1,0,0,1-1,1A1,1,0,0,1-8720.5-634Z" transform="translate(8817.5 838)"/>
  </g>
</svg>
