<svg xmlns="http://www.w3.org/2000/svg" width="24" height="24" viewBox="0 0 24 24">
  <g id="그룹_30384" data-name="그룹 30384" transform="translate(-327 -629)">
    <rect id="사각형_16491" data-name="사각형 16491" width="24" height="24" transform="translate(327 629)" fill="#ff2424" opacity="0"/>
    <path id="패스_27734" data-name="패스 27734" d="M1104.779-1248.758a1.111,1.111,0,0,1-.786-.325l-4.6-4.6a1.111,1.111,0,0,1,0-1.572,1.111,1.111,0,0,1,1.572,0l3.753,3.753,5.934-6.947a1.111,1.111,0,0,1,1.567-.123,1.111,1.111,0,0,1,.123,1.567l-6.715,7.861a1.112,1.112,0,0,1-.8.389Z" transform="translate(-766.835 1894.8)" fill="#333"/>
  </g>
</svg>
