<svg id="그룹_32092" data-name="그룹 32092" xmlns="http://www.w3.org/2000/svg" xmlns:xlink="http://www.w3.org/1999/xlink" width="18" height="18" viewBox="0 0 18 18">
  <defs>
    <style>
      .cls-1 {
        fill: none;
      }

      .cls-2 {
        clip-path: url(#clip-path);
      }

      .cls-3 {
        fill: #666;
      }
    </style>
    <clipPath id="clip-path">
      <rect id="사각형_16861" data-name="사각형 16861" class="cls-1" width="18" height="18"/>
    </clipPath>
  </defs>
  <g id="그룹_32091" data-name="그룹 32091" class="cls-2">
    <path id="패스_28341" data-name="패스 28341" class="cls-3" d="M18.971,8.2a2.037,2.037,0,0,0-.8-.651,3.666,3.666,0,0,0-1.619-.209h-.258a2.654,2.654,0,0,0,.493-1.54A1.735,1.735,0,0,0,15.053,4.07h-.234a3.089,3.089,0,0,0-2.529,1.319A3.089,3.089,0,0,0,9.76,4.07H9.526A1.736,1.736,0,0,0,7.792,5.8a2.654,2.654,0,0,0,.493,1.54H8.027a3.666,3.666,0,0,0-1.619.209,2.038,2.038,0,0,0-.8.651A2.44,2.44,0,0,0,5.263,9.78a2.439,2.439,0,0,0,.345,1.576,2.036,2.036,0,0,0,.8.651c.024.011.048.02.073.03v2.052c0,2.081,0,3.228.855,4.013.833.766,1.991.766,4.3.766h1.311c2.307,0,3.465,0,4.3-.766.854-.785.854-1.931.854-4.013V12.037c.024-.01.049-.018.073-.03a2.035,2.035,0,0,0,.8-.651,2.438,2.438,0,0,0,.345-1.576A2.438,2.438,0,0,0,18.971,8.2M14.819,5.2h.234a.609.609,0,0,1,.608.608,1.544,1.544,0,0,1-1.493,1.54H12.852V7.162A1.969,1.969,0,0,1,14.819,5.2m-5.9.608A.609.609,0,0,1,9.526,5.2H9.76a1.969,1.969,0,0,1,1.967,1.967v.182H10.411A1.545,1.545,0,0,1,8.917,5.8M8.1,17.273c-.472-.433-.49-1.24-.49-3.184V12.214c.131,0,.269,0,.421,0h3.7v5.526h-.093c-2.015,0-3.027,0-3.537-.469m8.876-3.184c0,1.945-.019,2.751-.49,3.184-.511.469-1.522.469-3.537.469h-.093V12.216h3.7c.153,0,.291,0,.421,0ZM18.059,10.7a.91.91,0,0,1-.36.288,3,3,0,0,1-1.147.105H8.027a3,3,0,0,1-1.148-.105.915.915,0,0,1-.36-.288c-.132-.183-.132-.428-.132-.918s0-.735.132-.918a.915.915,0,0,1,.36-.288,3,3,0,0,1,1.148-.105h2.332c.035,0,.069.005.1.005h3.654c.035,0,.069,0,.1-.005h2.332a3,3,0,0,1,1.147.105.91.91,0,0,1,.36.288c.132.183.132.428.132.918s0,.735-.132.918" transform="translate(-3.289 -2.544)"/>
  </g>
</svg>
