<svg xmlns="http://www.w3.org/2000/svg" width="72" height="72" viewBox="0 0 72 72">
  <defs>
    <style>
      .cls-1 {
        fill: none;
      }

      .cls-2 {
        fill: #ff6f7a;
      }

      .cls-3 {
        fill: #ffb62c;
        stroke: rgba(0,0,0,0);
        stroke-miterlimit: 10;
        opacity: 0;
      }
    </style>
  </defs>
  <g id="ico-solo" transform="translate(-71 -639)">
    <rect id="사각형_16445" data-name="사각형 16445" class="cls-1" width="72" height="72" transform="translate(71 639)"/>
    <g id="그룹_30167" data-name="그룹 30167" transform="translate(223 1658.357)">
      <path id="패스_27715" data-name="패스 27715" class="cls-2" d="M29.107,15.838a10.5,10.5,0,1,1-10.5-10.5,10.5,10.5,0,0,1,10.5,10.5" transform="translate(-134.573 -1010.99)"/>
      <path id="패스_27716" data-name="패스 27716" class="cls-2" d="M33.283,19.718a15.862,15.862,0,0,0-10.853-4.689c-8.993-.24-16.354,7.6-16.354,16.6v4.74a3.6,3.6,0,0,0,3.6,3.6H34.319a3.6,3.6,0,0,0,3.6-3.6V30.941a15.861,15.861,0,0,0-4.632-11.223" transform="translate(-137.963 -996.677)"/>
      <path id="패스_27717" data-name="패스 27717" class="cls-2" d="M8.847,14.089l-1.81-1.378a1.019,1.019,0,0,0-1.617.607l-.783,3.82a3.062,3.062,0,1,0,1.426,3.242c0-.01,1.028-5.054,1.03-5.06l.515.392a1.021,1.021,0,1,0,1.238-1.623" transform="translate(-143.801 -990.073)"/>
      <path id="패스_27718" data-name="패스 27718" class="cls-2" d="M22.447,17.842A2.562,2.562,0,0,0,25,15.279V10.813l4.543-1.28,0,1.634a2.555,2.555,0,1,0,1.7,2.461c0-.067,0-3.274,0-5.219a.851.851,0,0,0-1.083-.819L23.922,9.349a.85.85,0,0,0-.62.819V12.88a2.555,2.555,0,1,0-.855,4.962" transform="translate(-120.445 -1000.086)"/>
      <path id="합치기_68" data-name="합치기 68" class="cls-3" d="M4.719,10.481v-2.3a1.047,1.047,0,0,1,2.094,0v2.3a1.047,1.047,0,1,1-2.094,0Zm3.46-3.669a1.047,1.047,0,0,1,0-2.094h2.3a1.047,1.047,0,1,1,0,2.094Zm-7.131,0a1.047,1.047,0,1,1,0-2.094H3.353a1.047,1.047,0,0,1,0,2.094ZM4.719,3.351v-2.3a1.047,1.047,0,1,1,2.094,0v2.3a1.047,1.047,0,1,1-2.094,0Z" transform="translate(-140.317 -1009.357)"/>
    </g>
  </g>
</svg>
