<svg xmlns="http://www.w3.org/2000/svg" xmlns:xlink="http://www.w3.org/1999/xlink" width="24" height="24" viewBox="0 0 24 24"><defs><style>.a{fill:none;}.b{clip-path:url(#a);}.c{fill:#ffacac;opacity:0;}.d{fill:#bbb;}.e{fill:#333;}</style><clipPath id="a"><rect class="a" width="24" height="24"/></clipPath></defs><g class="b"><g transform="translate(-302 -538)"><g transform="translate(302 538)"><rect class="c" width="24" height="24"/><path class="d" d="M672.6-3545.65a.748.748,0,0,1-.53-.22.75.75,0,0,1,0-1.061l5.47-5.469-5.47-5.47a.75.75,0,0,1,0-1.061.75.75,0,0,1,1.061,0l6,6a.75.75,0,0,1,.22.53.75.75,0,0,1-.22.53l-6,6A.748.748,0,0,1,672.6-3545.65Z" transform="translate(-663.601 3564.4)"/><path class="e" d="M672.6-3545.65a.748.748,0,0,1-.53-.22.75.75,0,0,1,0-1.061l5.47-5.469-5.47-5.47a.75.75,0,0,1,0-1.061.75.75,0,0,1,1.061,0l6,6a.75.75,0,0,1,.22.53.75.75,0,0,1-.22.53l-6,6A.748.748,0,0,1,672.6-3545.65Z" transform="translate(-663.601 3564.4)"/></g></g></g></svg>