<svg xmlns="http://www.w3.org/2000/svg" xmlns:xlink="http://www.w3.org/1999/xlink" width="24" height="24" viewBox="0 0 24 24"><defs><style>.a{fill:none;}.b{clip-path:url(#a);}.c{fill:#fff;opacity:0;}.d{clip-path:url(#b);}.e{fill:#4285f4;}.e,.f,.g,.h{fill-rule:evenodd;}.f{fill:#34a853;}.g{fill:#fbbc05;}.h{fill:#ea4335;}</style><clipPath id="a"><rect class="a" width="24" height="24"/></clipPath><clipPath id="b"><rect class="a" width="18" height="18.367"/></clipPath></defs><g class="b"><rect class="c" width="24" height="24"/><g transform="translate(3 2.816)"><g class="d"><path class="e" d="M114.965,88.728a10.547,10.547,0,0,0-.167-1.878h-8.649V90.4h4.942a4.225,4.225,0,0,1-1.833,2.772v2.3h2.968a8.956,8.956,0,0,0,2.738-6.75" transform="translate(-96.966 -79.336)"/><path class="f" d="M19.5,133.756a8.767,8.767,0,0,0,6.078-2.225l-2.968-2.3a5.54,5.54,0,0,1-8.248-2.909H11.29V128.7a9.18,9.18,0,0,0,8.207,5.059" transform="translate(-10.313 -115.389)"/><path class="g" d="M4.045,64.348a5.429,5.429,0,0,1,0-3.49V58.479H.977a9.195,9.195,0,0,0,0,8.248Z" transform="translate(0 -53.42)"/><path class="h" d="M19.5,3.653a4.961,4.961,0,0,1,3.511,1.373l2.634-2.634A8.825,8.825,0,0,0,19.5,0,9.18,9.18,0,0,0,11.29,5.06L14.358,7.44A5.473,5.473,0,0,1,19.5,3.653" transform="translate(-10.313 -0.001)"/></g></g></g></svg>