<svg xmlns="http://www.w3.org/2000/svg" width="24" height="24" viewBox="0 0 24 24"><g transform="translate(16890 9040)"><rect width="24" height="24" transform="translate(-16890 -9040)" fill="none"/><g transform="translate(-16883 -9035)"><rect width="8" height="14" fill="none"/><path d="M1904.881-2448.978a.748.748,0,0,1-.558-.248.75.75,0,0,1,.056-1.059l4.381-3.943-4.381-3.942a.75.75,0,0,1-.056-1.059.75.75,0,0,1,1.059-.056l5,4.5a.75.75,0,0,1,.248.558.749.749,0,0,1-.248.557l-5,4.5A.747.747,0,0,1,1904.881-2448.978Z" transform="translate(-1901.881 2461.227)"/></g></g></svg>