<?xml version="1.0" encoding="utf-8"?>
<!-- Generator: Adobe Illustrator 27.4.0, SVG Export Plug-In . SVG Version: 6.00 Build 0)  -->
<svg version="1.1" id="레이어_1" xmlns="http://www.w3.org/2000/svg" xmlns:xlink="http://www.w3.org/1999/xlink" x="0px"
	 y="0px" viewBox="0 0 289 289" style="enable-background:new 0 0 289 289;" xml:space="preserve">
<style type="text/css">
	.st0{fill:none;}
	.st1{fill:#AAAAAA;}
</style>
<g id="그룹_2211" transform="translate(-1266 -512)">
	
		<rect id="사각형_457_00000067236300192271124600000013223189257423388857_" x="1266" y="512" class="st0" width="289" height="289"/>
	<path id="Icon_ionic-md-eye_00000036974201064199468780000017193210620390901127_" class="st1" d="M1408.1,608.3
		c-28.6-0.1-54.4,17.3-65.1,43.9c14.6,36,55.5,53.3,91.5,38.8c17.6-7.1,31.6-21.1,38.8-38.8C1462.5,625.6,1436.7,608.2,1408.1,608.3
		z M1408.1,681.4c-16.2-0.2-29.1-13.4-29-29.6s13.4-29.1,29.6-29c16,0.2,29,13.2,29,29.3C1437.6,668.4,1424.3,681.5,1408.1,681.4
		L1408.1,681.4z M1408.1,634.6c-9.7,0.1-17.5,8.1-17.4,17.8s8.1,17.5,17.8,17.4c9.6-0.1,17.4-7.9,17.4-17.6
		C1425.8,642.4,1417.8,634.6,1408.1,634.6z"/>
</g>
</svg>
