<svg xmlns="http://www.w3.org/2000/svg" width="28" height="19" viewBox="0 0 28 19">
  <defs>
    <style>
      .cls-1 {
        fill: #c1c1c1;
        stroke: #fff;
      }

      .cls-2 {
        fill: #4a98e8;
      }

      .cls-3 {
        fill: #fff;
      }

      .cls-4 {
        stroke: none;
      }

      .cls-5 {
        fill: none;
      }
    </style>
  </defs>
  <g id="그룹_30193" data-name="그룹 30193" transform="translate(-146 1016)">
    <g id="사각형_15980" data-name="사각형 15980" class="cls-1" transform="translate(146 -1016)">
      <rect class="cls-4" width="14" height="19"/>
      <rect class="cls-5" x="0.5" y="0.5" width="13" height="18"/>
    </g>
    <g id="그룹_30189" data-name="그룹 30189">
      <rect id="사각형_15979" data-name="사각형 15979" class="cls-2" width="14" height="19" transform="translate(160 -1016)"/>
      <path id="패스_27735" data-name="패스 27735" class="cls-3" d="M-2.588,0h3c1.6,0,2.441-.83,2.441-1.953A1.643,1.643,0,0,0,1.3-3.672V-3.74a1.5,1.5,0,0,0,1.27-1.514c0-1.064-.781-1.816-2.344-1.816H-2.588ZM.117-1.211h-1.24V-3.105H.156A1.038,1.038,0,0,1,1.328-2.09C1.328-1.562.967-1.211.117-1.211ZM.01-4.111H-1.123V-5.879H.039c.674,0,1.045.352,1.045.859C1.084-4.453.625-4.111.01-4.111Z" transform="translate(167.088 -1002.93)"/>
    </g>
  </g>
</svg>
