<svg xmlns="http://www.w3.org/2000/svg" xmlns:xlink="http://www.w3.org/1999/xlink" width="16" height="16" viewBox="0 0 16 16"><defs><style>.a{fill:none;}.b{clip-path:url(#a);}.c{fill:#ff9d9d;opacity:0;}.d{fill:#ff2b2f;}</style><clipPath id="a"><rect class="a" width="16" height="16"/></clipPath></defs><g class="b"><g transform="translate(-40 -733)"><rect class="c" width="16" height="16" transform="translate(40 733)"/><g transform="translate(755.75 3839.25)"><path class="d" d="M4.488.841A3.65,3.65,0,0,0,.841,4.488V8.134H8.134V4.488A3.65,3.65,0,0,0,4.488.841m0-.841A4.488,4.488,0,0,1,8.976,4.488V8.819H0V4.488A4.488,4.488,0,0,1,4.488,0Z" transform="translate(-712.488 -3101.866)"/><path class="d" d="M10.329.091H-.329A.421.421,0,0,1-.75-.329.421.421,0,0,1-.329-.75H10.329a.421.421,0,0,1,.421.421A.421.421,0,0,1,10.329.091Z" transform="translate(-713 -3093.139)"/><path class="d" d="M-.329,1.774A.421.421,0,0,1-.75,1.354V-.329A.421.421,0,0,1-.329-.75a.421.421,0,0,1,.421.421V1.354A.421.421,0,0,1-.329,1.774Z" transform="translate(-707.671 -3098.451)"/><path class="d" d="M-.329,1.213A.421.421,0,0,1-.75.793V-.329A.421.421,0,0,1-.329-.75a.421.421,0,0,1,.421.421V.793A.421.421,0,0,1-.329,1.213Z" transform="translate(-707.671 -3103.5)"/><path class="d" d="M.421,1.963A.421.421,0,0,1,0,1.543V.421a.421.421,0,0,1,.841,0V1.543A.421.421,0,0,1,.421,1.963Z" transform="translate(-705.069 -3103.768) rotate(30)"/><path class="d" d="M.421,1.963A.421.421,0,0,1,0,1.543V.421a.421.421,0,1,1,.841,0V1.543A.421.421,0,0,1,.421,1.963Z" transform="matrix(-0.875, 0.485, -0.485, -0.875, -709.961, -3102.052)"/><path class="d" transform="translate(-708 -3095.415)"/><circle class="d" cx="0.421" cy="0.421" r="0.421" transform="translate(-708.421 -3096.256)"/></g></g></g></svg>