<svg xmlns="http://www.w3.org/2000/svg" width="18" height="18" viewBox="0 0 18 18">
  <g id="그룹_32275" data-name="그룹 32275" transform="translate(-316 -690)">
    <rect id="사각형_16279" data-name="사각형 16279" width="18" height="18" transform="translate(316 690)" fill="#ff9d9d" opacity="0"/>
    <path id="패스_28293" data-name="패스 28293" d="M9.858.845C8.966,0,7.692,0,5.379,0S1.8-.011.9.845,0,2.918,0,5.126v4.74c0,1.5,0,2.407.831,2.843a1.493,1.493,0,0,0,.708.169A5.284,5.284,0,0,0,4.21,11.589c.238-.172.462-.335.617-.427a3.844,3.844,0,0,1,.554-.3,3.749,3.749,0,0,1,.554.3c.155.091.379.254.617.428a5.286,5.286,0,0,0,2.667,1.288,1.493,1.493,0,0,0,.708-.169c.831-.436.831-1.343.831-2.843V5.126c0-2.208-.008-3.436-.9-4.281" transform="translate(320 693)" fill="#fff"/>
  </g>
</svg>
