<svg xmlns="http://www.w3.org/2000/svg" width="16" height="16" viewBox="0 0 16 16">
  <defs>
    <style>
      .cls-1 {
        fill: #ff9d9d;
        opacity: 0;
      }

      .cls-2 {
        fill: #333;
      }
    </style>
  </defs>
  <g id="그룹_29820" data-name="그룹 29820" transform="translate(-238 -765)">
    <g id="그룹_29813" data-name="그룹 29813" transform="translate(198 32)">
      <rect id="사각형_16281" data-name="사각형 16281" class="cls-1" width="16" height="16" transform="translate(40 733)"/>
    </g>
    <g id="그룹_29818" data-name="그룹 29818" transform="translate(65.5 3897.4)">
      <path id="패스_27565" data-name="패스 27565" class="cls-2" d="M9.921,1.852H7.553L7.3,1.329A2.582,2.582,0,0,0,6.613.288a1.455,1.455,0,0,0-.2-.125A2.587,2.587,0,0,0,5.177,0,2.6,2.6,0,0,0,3.912.17a1.449,1.449,0,0,0-.2.13,2.6,2.6,0,0,0-.68,1.08l-.215.471H.4a.4.4,0,1,0,0,.794h.42l.3,4.927A5.285,5.285,0,0,0,1.647,10.3a2.494,2.494,0,0,0,.754.71,5.285,5.285,0,0,0,2.754.368,5.283,5.283,0,0,0,2.75-.367A2.5,2.5,0,0,0,8.66,10.3,5.289,5.289,0,0,0,9.2,7.578l.3-4.932h.421a.4.4,0,1,0,0-.794M3.752,1.71a2.288,2.288,0,0,1,.44-.78A.676.676,0,0,1,4.285.871,2.289,2.289,0,0,1,5.177.794a2.279,2.279,0,0,1,.871.074.661.661,0,0,1,.091.057,2.28,2.28,0,0,1,.447.752l.085.175H3.687ZM8.4,7.53a5.073,5.073,0,0,1-.394,2.316,1.717,1.717,0,0,1-.516.485,5.069,5.069,0,0,1-2.338.251,5.073,5.073,0,0,1-2.34-.251A1.709,1.709,0,0,1,2.3,9.844a5.067,5.067,0,0,1-.392-2.321L1.612,2.645H8.705Z" transform="translate(175.5 -3130.4)"/>
      <path id="패스_27566" data-name="패스 27566" class="cls-2" d="M13.4,17a.4.4,0,0,0-.4.4v3.175a.4.4,0,0,0,.794,0V17.4a.4.4,0,0,0-.4-.4" transform="translate(165.939 -3142.903)"/>
      <path id="패스_27567" data-name="패스 27567" class="cls-2" d="M23.4,17a.4.4,0,0,0-.4.4v3.175a.4.4,0,0,0,.794,0V17.4a.4.4,0,0,0-.4-.4" transform="translate(158.585 -3142.903)"/>
    </g>
  </g>
</svg>
