<svg xmlns="http://www.w3.org/2000/svg" xmlns:xlink="http://www.w3.org/1999/xlink" width="16" height="16" viewBox="0 0 16 16"><defs><clipPath id="a"><rect width="16" height="16" fill="none"/></clipPath></defs><g clip-path="url(#a)"><g transform="translate(75 -524)"><g transform="translate(-75 524)"><rect width="16" height="16" fill="none"/><g transform="translate(4 4)"><path d="M2732.856,1339.382a.5.5,0,0,1-.354-.146l-7-7a.5.5,0,0,1,.707-.707l7,7a.5.5,0,0,1-.353.854Z" transform="translate(-2725.356 -1331.382)" fill="#ff2b2f"/><path d="M2725.856,1339.382a.5.5,0,0,1-.353-.854l7-7a.5.5,0,0,1,.707.707l-7,7A.5.5,0,0,1,2725.856,1339.382Z" transform="translate(-2725.356 -1331.382)" fill="#ff2b2f"/></g></g></g></g></svg>