<svg xmlns="http://www.w3.org/2000/svg" xmlns:xlink="http://www.w3.org/1999/xlink" width="36" height="36" viewBox="0 0 36 36"><defs><clipPath id="a"><rect width="36" height="36" fill="none"/></clipPath><clipPath id="b"><rect width="29.46" height="18.514" fill="none"/></clipPath></defs><g clip-path="url(#a)"><g transform="translate(-218 -734)"><rect width="36" height="36" transform="translate(218 734)" fill="#fff" opacity="0"/><g transform="translate(222 742)"><g transform="translate(0 0)" clip-path="url(#b)"><path d="M23.2,8.815h.836c.013,0,.026,0,.04,0a3.39,3.39,0,0,1,.142-1.329.55.55,0,0,1-.182.037H21.811a.5.5,0,0,1-.475-.343,2.044,2.044,0,0,0-2.1-1.276c-1.462,0-2.042.74-2.042,1.41,0,.648.453,1.04,1.539,1.409.832.277,1.917.555,2.952.877,1.792.579,3.026,1.641,3.026,3.628,0,2.588-2.371,4-5.5,4-2.938,0-5.044-1.344-5.543-3.639a.462.462,0,0,1,.489-.52H16.3a.505.505,0,0,1,.482.365c.308.982,1.338,1.391,2.673,1.391s2.093-.555,2.093-1.432c0-.785-.655-1.295-2.017-1.665a27.93,27.93,0,0,1-3.078-.969,3.647,3.647,0,0,1-2.023-1.63l1.684-4.134a1.784,1.784,0,0,0,.157-.739c0-.037-.009-.072-.012-.108A6.545,6.545,0,0,1,19.231,3.5a6.7,6.7,0,0,1,2.927.612,3.53,3.53,0,0,1,.411-1.23,8.1,8.1,0,0,0-3.339-.68,7.866,7.866,0,0,0-3.512.755c-.009-.01-.016-.021-.026-.031a1.858,1.858,0,0,0-1.281-.511H11.637a1.923,1.923,0,0,0-1.412.557,2.063,2.063,0,0,0-.55.909L8.13,9.032,6.593,3.857a2.081,2.081,0,0,0-.547-.892,1.932,1.932,0,0,0-1.409-.553H1.862a1.855,1.855,0,0,0-1.322.54A1.825,1.825,0,0,0,0,4.25a1.782,1.782,0,0,0,.159.744L2.8,11.466a.3.3,0,0,0,.011.032l0,.008a.65.65,0,0,0,1.242-.271A.66.66,0,0,0,4.006,11l-.014-.033,0-.008L1.346,4.471A.481.481,0,0,1,1.3,4.25a.517.517,0,0,1,.161-.381.548.548,0,0,1,.4-.16H4.637a.665.665,0,0,1,.492.173.814.814,0,0,1,.221.344l2.206,7.429a.6.6,0,0,0,1.143,0l2.227-7.431a.8.8,0,0,1,.221-.344.661.661,0,0,1,.491-.173h2.776a.546.546,0,0,1,.114.022.565.565,0,0,1,.278.138.507.507,0,0,1,.173.381.482.482,0,0,1-.05.221l-1.9,4.662-2.743,6.733A1.264,1.264,0,0,1,10,16.3a.79.79,0,0,1-.577.184h-2.6a.708.708,0,0,1-.541-.184,1.79,1.79,0,0,1-.294-.43l-.717-1.76v0L5.23,14a.647.647,0,0,0-1.225.3.635.635,0,0,0,.106.335l-.021.01.7,1.71.019.046.022.045a3.131,3.131,0,0,0,.508.736,1.949,1.949,0,0,0,1.488.595h2.6a2.035,2.035,0,0,0,1.494-.564,2.581,2.581,0,0,0,.569-.862l.954-2.342c.685,2.783,3.253,4.51,6.763,4.51,4.065,0,6.8-2.128,6.8-5.295a4.686,4.686,0,0,0-2.8-4.408m-9.347,1.733a5.087,5.087,0,0,0,1.668,1.217H14.153a1.832,1.832,0,0,0-.9.246Z" transform="translate(0 -0.004)" fill="#333"/><path d="M24.463,6.659l.006.021.006-.024-.012,0" transform="translate(-0.047 -0.013)" fill="#888"/><path d="M29.285,3.867a1.954,1.954,0,0,0-.692-.126c-.062,0-.124,0-.186.008a1.386,1.386,0,0,1-.144.007,1.633,1.633,0,0,1-.565-.1.522.522,0,0,1-.243-.453,1.664,1.664,0,0,1,.314-.649l.549-.9c.42-.681.629-1.022.487-1.287s-.539-.277-1.334-.3L26.459.033A2.329,2.329,0,0,0,26.069,0a2.3,2.3,0,0,0-.856.166c-.263.156-.405.453-.692,1.045L23.578,3.17c-.035.072-.059.126-.09.19-.248.519-.365.815-.236,1.031.146.243.506.254,1.226.277l.224.007c.074,0,.131,0,.2.008.459.017.717.046.848.221.15.2.076.491-.073,1.073l-.032.124-.35,1.376a4.864,4.864,0,0,0-.2,1.018c0,.107.02.19.081.224a.142.142,0,0,0,.073.019c.178,0,.446-.278.921-.771l2.778-2.884c.348-.359.522-.54.551-.694a.523.523,0,0,0-.21-.522" transform="translate(-0.045 0)" fill="#ff2b2f"/></g></g></g></g></svg>