<svg xmlns="http://www.w3.org/2000/svg" xmlns:xlink="http://www.w3.org/1999/xlink" width="24" height="24" viewBox="0 0 24 24"><defs><style>.a{fill:none;}.b{clip-path:url(#a);}.c{opacity:0;}.d{fill:#ff9d9d;}.e{fill:#333;}</style><clipPath id="a"><rect class="a" width="24" height="24"/></clipPath></defs><g class="b"><g class="b"><g class="b"><g class="c"><g class="b"><rect class="d" width="24" height="24"/></g></g><path class="e" d="M12,15.75c-.813,0-1.567-.88-2.543-2.123-.2-.257-.374-.481-.494-.6a.75.75,0,0,1,1.074-1.046c.146.149.357.414.6.724.145.185.374.477.613.758V5a.75.75,0,0,1,1.5,0v8.46c.24-.283.47-.576.615-.762.243-.308.453-.572.6-.72a.75.75,0,0,1,1.076,1.044c-.12.124-.291.345-.492.6C13.568,14.869,12.814,15.75,12,15.75"/><path class="e" d="M17,20.75H7c-2.909,0-3.75-.841-3.75-3.75a.75.75,0,0,1,1.5,0c0,2.061.189,2.25,2.25,2.25H17c2.061,0,2.25-.189,2.25-2.25a.75.75,0,0,1,1.5,0c0,2.909-.841,3.75-3.75,3.75"/></g></g></g></svg>