<svg xmlns="http://www.w3.org/2000/svg" width="24" height="24" viewBox="0 0 24 24">
  <g id="그룹_31983" data-name="그룹 31983" transform="translate(-53 -640)">
    <rect id="사각형_16802" data-name="사각형 16802" width="24" height="24" transform="translate(53 640)" fill="none"/>
    <path id="folder-open" d="M0,12.963V3.815A2.818,2.818,0,0,1,2.815,1H4.222a2.122,2.122,0,0,1,.944.222l2.22,1.11a.708.708,0,0,0,.315.074h3.558a3.523,3.523,0,0,1,3.519,3.519H7.054A4.247,4.247,0,0,0,3,8.953L1.124,15.525A3.5,3.5,0,0,1,0,12.962ZM16.532,8.049a1.78,1.78,0,0,0-1.413-.721c-.011,0-.019.006-.03.006H7.054a2.83,2.83,0,0,0-2.7,2.014L2.373,16.274a3.479,3.479,0,0,0,1.146.208h8.837a3.506,3.506,0,0,0,3.379-2.538l1.078-4.3a1.784,1.784,0,0,0-.28-1.59Z" transform="translate(57.556 643.26)" fill="#333"/>
  </g>
</svg>
