<svg xmlns="http://www.w3.org/2000/svg" xmlns:xlink="http://www.w3.org/1999/xlink" width="24" height="24" viewBox="0 0 24 24"><defs><clipPath id="a"><rect width="24" height="24" fill="none"/></clipPath></defs><g clip-path="url(#a)"><g transform="translate(-303 -67)"><g transform="translate(303 67)"><rect width="24" height="24" fill="red" opacity="0"/><g transform="translate(-0.67 1.144)"><path d="M5.239,16.106H2.053a2.067,2.067,0,0,1-1.72-3.192l1.263-1.9V6.448a6.448,6.448,0,1,1,12.9,0v4.563L15.75,12.9a2.067,2.067,0,0,1-1.716,3.208H10.848a2.837,2.837,0,0,1-5.609,0Zm2.8.745a1.178,1.178,0,0,0,1.094-.745H6.95A1.176,1.176,0,0,0,8.043,16.85ZM3.257,6.448v4.814a.825.825,0,0,1-.141.46l-1.4,2.1a.375.375,0,0,0-.065.215.4.4,0,0,0,.4.4h11.98a.4.4,0,0,0,.4-.4.381.381,0,0,0-.065-.219l0,0-1.4-2.1a.835.835,0,0,1-.14-.455V6.448a4.786,4.786,0,1,0-9.571,0Z" transform="translate(4.623 1.6)" fill="#333"/></g><circle cx="2.5" cy="2.5" r="2.5" transform="translate(15 4)" fill="#ff2b2f" stroke="#fff" stroke-width="1"/></g></g></g></svg>