<svg xmlns="http://www.w3.org/2000/svg" xmlns:xlink="http://www.w3.org/1999/xlink" width="36" height="36" viewBox="0 0 36 36"><defs><style>.a{fill:none;}.b{clip-path:url(#a);}.c{fill:#ffb9b9;opacity:0;}.d{clip-path:url(#b);}.e{fill:#888;}</style><clipPath id="a"><rect class="a" width="36" height="36"/></clipPath><clipPath id="b"><rect class="a" width="20" height="20"/></clipPath></defs><g class="b"><g transform="translate(-74 -435)"><g transform="translate(0 123)"><g transform="translate(-236 -422)"><rect class="c" width="36" height="36" transform="translate(310 734)"/></g></g><g transform="translate(82 443)"><g class="d"><path class="e" d="M10,0A10,10,0,1,0,20,10,10.011,10.011,0,0,0,10,0m0,18.6A8.6,8.6,0,1,1,18.6,10,8.614,8.614,0,0,1,10,18.6"/><path class="e" d="M10.523,11.047A3.023,3.023,0,1,0,7.5,8.023a3.027,3.027,0,0,0,3.023,3.023m0-4.651A1.628,1.628,0,1,1,8.9,8.023,1.63,1.63,0,0,1,10.523,6.4" transform="translate(-0.523 -0.349)"/><path class="e" d="M15.009,15.022a6.6,6.6,0,0,0-9.307.054.7.7,0,0,0,.992.982,5.212,5.212,0,0,1,7.382,0l.008-.008a.69.69,0,0,0,.453.177.7.7,0,0,0,.7-.7.691.691,0,0,0-.228-.509" transform="translate(-0.384 -0.916)"/></g></g></g></g></svg>