<svg id="그룹_32092" data-name="그룹 32092" xmlns="http://www.w3.org/2000/svg" xmlns:xlink="http://www.w3.org/1999/xlink" width="18" height="18" viewBox="0 0 18 18">
  <defs>
    <style>
      .cls-1 {
        fill: none;
      }

      .cls-2 {
        clip-path: url(#clip-path);
      }

      .cls-3 {
        fill: #ff2b2f;
      }
    </style>
    <clipPath id="clip-path">
      <rect id="사각형_16861" data-name="사각형 16861" class="cls-1" width="18" height="18"/>
    </clipPath>
  </defs>
  <g id="그룹_32091" data-name="그룹 32091" class="cls-2">
    <path id="패스_28341" data-name="패스 28341" class="cls-3" d="M18.718,8.127a2,2,0,0,0-.785-.639,3.6,3.6,0,0,0-1.589-.205H16.09a2.6,2.6,0,0,0,.484-1.512,1.7,1.7,0,0,0-1.7-1.7h-.23A3.032,3.032,0,0,0,12.16,5.365,3.032,3.032,0,0,0,9.677,4.07h-.23a1.7,1.7,0,0,0-1.7,1.7,2.6,2.6,0,0,0,.484,1.512H7.976a3.6,3.6,0,0,0-1.589.205,2,2,0,0,0-.786.639,2.4,2.4,0,0,0-.338,1.547A2.394,2.394,0,0,0,5.6,11.221a2,2,0,0,0,.786.639c.024.011.047.019.071.029V13.9c0,2.043,0,3.168.839,3.938.817.752,1.954.752,4.219.752H12.8c2.264,0,3.4,0,4.219-.752.838-.77.838-1.9.838-3.938V11.89c.024-.01.048-.018.072-.029a2,2,0,0,0,.786-.639,2.393,2.393,0,0,0,.338-1.547,2.393,2.393,0,0,0-.339-1.547M14.642,5.174h.23a.6.6,0,0,1,.6.6A1.516,1.516,0,0,1,14,7.283H12.712V7.1a1.932,1.932,0,0,1,1.93-1.93m-5.792.6a.6.6,0,0,1,.6-.6h.23A1.933,1.933,0,0,1,11.608,7.1v.179H10.316A1.516,1.516,0,0,1,8.85,5.771M8.044,17.029c-.463-.425-.481-1.217-.481-3.125v-1.84c.128,0,.264,0,.413,0h3.632v5.424h-.092c-1.978,0-2.971,0-3.472-.46M16.757,13.9c0,1.909-.018,2.7-.481,3.125-.5.46-1.494.46-3.472.46h-.091V12.066h3.631c.15,0,.285,0,.413,0Zm1.066-3.328a.893.893,0,0,1-.353.283,2.947,2.947,0,0,1-1.126.1H7.976a2.947,2.947,0,0,1-1.126-.1.9.9,0,0,1-.353-.283c-.129-.179-.129-.42-.129-.9s0-.722.129-.9a.9.9,0,0,1,.353-.283,2.947,2.947,0,0,1,1.126-.1h2.289c.034,0,.067.005.1.005h3.586c.034,0,.067,0,.1-.005h2.289a2.947,2.947,0,0,1,1.126.1.893.893,0,0,1,.353.283c.13.179.13.42.13.9s0,.722-.13.9" transform="translate(-3.326 -2.572)"/>
  </g>
</svg>
