<svg xmlns="http://www.w3.org/2000/svg" xmlns:xlink="http://www.w3.org/1999/xlink" width="24" height="24" viewBox="0 0 24 24"><defs><style>.a{fill:none;}.b{fill:#fff;}.c{clip-path:url(#a);}.d{clip-path:url(#b);}</style><clipPath id="a"><rect class="a" width="24" height="24"/></clipPath><clipPath id="b"><rect class="b" width="24" height="24"/></clipPath></defs><g class="c"><g class="d"><path class="b" d="M117.62,108.06a9.56,9.56,0,1,0-11.87,9.279v-6.357h-1.971V108.06h1.971V106.8c0-3.254,1.473-4.762,4.667-4.762a10.541,10.541,0,0,1,2.078.238v2.648c-.226-.024-.618-.036-1.1-.036-1.568,0-2.173.594-2.173,2.138v1.033h3.123l-.536,2.921h-2.586v6.569a9.561,9.561,0,0,0,8.4-9.49" transform="translate(-96.06 -96.057)"/></g></g></svg>