<svg xmlns="http://www.w3.org/2000/svg" width="16" height="16" viewBox="0 0 16 16">
  <defs>
    <style>
      .cls-1 {
        fill: #ffadad;
        opacity: 0;
      }

      .cls-2 {
        fill: #ff2b2f;
      }
    </style>
  </defs>
  <g id="그룹_30508" data-name="그룹 30508" transform="translate(-68 -518)">
    <rect id="사각형_16455" data-name="사각형 16455" class="cls-1" width="16" height="16" transform="translate(68 518)"/>
    <path id="favourite-stroke-rounded" class="cls-2" d="M5.257,2.25A3.738,3.738,0,0,1,7.486,3l.2.146L7.878,3a3.739,3.739,0,0,1,2.23-.75h0a4.232,4.232,0,0,1,2.226.672A3.992,3.992,0,0,1,14.109,6.21a6.263,6.263,0,0,1-.847,3.285,10.749,10.749,0,0,1-3.073,3.346,3.928,3.928,0,0,1-2.507,1.121,3.928,3.928,0,0,1-2.507-1.12A10.749,10.749,0,0,1,2.1,9.495a6.263,6.263,0,0,1-.847-3.285A3.992,3.992,0,0,1,3.031,2.922,4.232,4.232,0,0,1,5.257,2.25Z" transform="translate(68.417 518.083)"/>
  </g>
</svg>
