<svg xmlns="http://www.w3.org/2000/svg" xmlns:xlink="http://www.w3.org/1999/xlink" width="24" height="24" viewBox="0 0 24 24"><defs><clipPath id="a"><rect width="24" height="24" fill="none"/></clipPath></defs><g clip-path="url(#a)"><g transform="translate(-199 -106)"><rect width="24" height="24" transform="translate(199 106)" fill="#ffd0d0" opacity="0"/><path d="M3370.61-2842.129a1.14,1.14,0,0,1-.135-.008h-.01c-.412-.056-.671-.313-1.1-.739a2.552,2.552,0,0,0-1.811-.734,2.549,2.549,0,0,0-1.809.733l-.011.011c-.425.42-.682.674-1.092.729h-.01a1.142,1.142,0,0,1-.136.008,2,2,0,0,1-1-.365l-1.543-.869a1.764,1.764,0,0,1-.894-.8,1.987,1.987,0,0,1,.083-1.333l0-.018a2.383,2.383,0,0,0-.279-1.841,2.537,2.537,0,0,0-1.525-1.158c-.594-.158-.954-.253-1.211-.588a1.766,1.766,0,0,1-.257-1.175v-1.7a1.772,1.772,0,0,1,.258-1.177,2.023,2.023,0,0,1,1.21-.586,2.54,2.54,0,0,0,1.525-1.157,2.385,2.385,0,0,0,.281-1.84,2.017,2.017,0,0,1-.089-1.354,1.768,1.768,0,0,1,.9-.8l1.532-.864a2.009,2.009,0,0,1,1-.365,1.128,1.128,0,0,1,.135.008h.011c.412.056.671.313,1.1.739a2.55,2.55,0,0,0,1.81.734,2.547,2.547,0,0,0,1.807-.732l.009-.009c.428-.423.686-.678,1.1-.731a1.118,1.118,0,0,1,.141-.009,2,2,0,0,1,.993.364l1.531.863a1.763,1.763,0,0,1,.9.8,2.007,2.007,0,0,1-.087,1.356,2.385,2.385,0,0,0,.738,2.415l.025.018a2.872,2.872,0,0,0,1.042.564c.6.16.956.256,1.211.589a1.77,1.77,0,0,1,.256,1.175v1.7a1.771,1.771,0,0,1-.256,1.174c-.256.335-.616.431-1.211.589a2.535,2.535,0,0,0-1.524,1.158,2.386,2.386,0,0,0-.28,1.84,2.022,2.022,0,0,1,.089,1.353,1.758,1.758,0,0,1-.892.8l-.015.008-1.531.863A2,2,0,0,1,3370.61-2842.129Zm-3.057-3.073a4.13,4.13,0,0,1,2.928,1.193c.07.07.145.143.209.206l.135-.076,1.538-.867.127-.072c-.022-.089-.049-.192-.074-.289a3.967,3.967,0,0,1,.453-3.065,4.117,4.117,0,0,1,2.477-1.877l.289-.078c0-.048,0-.1,0-.148v-1.7c0-.049,0-.1,0-.149-.088-.025-.191-.052-.287-.078a4.415,4.415,0,0,1-1.562-.811,3.94,3.94,0,0,1-1.371-4.126c.026-.1.053-.2.076-.294l-.135-.076-1.532-.863-.135-.076c-.063.06-.135.131-.2.2l-.005.005a4.13,4.13,0,0,1-2.929,1.2,4.128,4.128,0,0,1-2.927-1.192c-.071-.07-.145-.143-.209-.205l-.136.076-1.53.862-.135.076c.023.091.05.2.076.293a3.963,3.963,0,0,1-.455,3.061,4.123,4.123,0,0,1-2.478,1.876c-.1.026-.2.053-.288.079,0,.048,0,.1,0,.149v1.7c0,.049,0,.1,0,.148l.287.077a4.121,4.121,0,0,1,2.479,1.878,3.962,3.962,0,0,1,.454,3.06l0,.012c-.025.1-.051.195-.072.282l.125.071.01.006,1.53.862.135.076c.063-.061.135-.132.2-.2l.011-.01A4.131,4.131,0,0,1,3367.553-2845.2Zm0-2.047a3.9,3.9,0,0,1-3.9-3.879,3.9,3.9,0,0,1,3.9-3.879,3.9,3.9,0,0,1,3.9,3.879A3.9,3.9,0,0,1,3367.552-2847.25Zm0-6.167a2.3,2.3,0,0,0-2.312,2.289,2.3,2.3,0,0,0,2.312,2.288,2.3,2.3,0,0,0,2.312-2.288A2.3,2.3,0,0,0,3367.552-2853.417Z" transform="translate(-3156.552 2969.488)" fill="#333"/></g></g></svg>