<svg xmlns="http://www.w3.org/2000/svg" xmlns:xlink="http://www.w3.org/1999/xlink" width="24" height="24" viewBox="0 0 24 24"><defs><clipPath id="a"><rect width="24" height="24" fill="none"/></clipPath></defs><g clip-path="url(#a)"><g transform="translate(1312 4973)"><rect width="24" height="24" transform="translate(-1312 -4973)" fill="#ff9d9d" opacity="0"/><g transform="translate(-1307.763 -4969.781)" fill="#f5f5f5" stroke-linejoin="round"><path d="M 13.02623462677002 16.89454460144043 L 13.00137615203857 16.8943977355957 C 11.67097473144531 16.68145561218262 10.43846702575684 16.12182235717773 9.436735153198242 15.27583789825439 L 9.391525268554688 15.23765754699707 L 9.342905044555664 15.20391750335693 C 9.023575782775879 14.98229789733887 8.742555618286133 14.78954792022705 8.537384986877441 14.67515754699707 C 8.48554515838623 14.64286708831787 8.428695678710938 14.60897731781006 8.372165679931641 14.57664775848389 L 7.75276517868042 14.22237777709961 L 7.132765293121338 14.57561779022217 C 7.075185298919678 14.60842800140381 7.01761531829834 14.64266777038574 6.961655139923096 14.67739772796631 C 6.760115146636963 14.79090785980225 6.470555305480957 14.98971748352051 6.163985252380371 15.20018768310547 L 6.11274528503418 15.23536777496338 L 6.064175128936768 15.27618789672852 C 5.060395240783691 16.1234016418457 3.826642751693726 16.68291282653809 2.496069431304932 16.89439582824707 L 2.471182584762573 16.89454460144043 C 2.153659105300903 16.89400672912598 1.837492942810059 16.82037734985352 1.556605339050293 16.68151664733887 C 1.053725361824036 16.43095779418945 0.7774853706359863 16.06537818908691 0.6364353895187378 15.46088790893555 C 0.5000053644180298 14.87619781494141 0.5000053644180298 14.11272716522217 0.5000053644180298 13.14614772796631 L 0.5000053644180298 6.992657661437988 C 0.5000053644180298 3.970877647399902 0.5474853515625 2.592027425765991 1.674275398254395 1.574237585067749 C 2.813045263290405 0.5456375479698181 4.373205184936523 0.4999875426292419 7.513765335083008 0.4999875426292419 L 7.748575210571289 0.5000075101852417 C 11.13285541534424 0.5000075101852417 12.6773157119751 0.5434575080871582 13.82329559326172 1.574417591094971 C 14.94988536834717 2.58796763420105 14.99736499786377 3.967937469482422 14.99736499786377 6.992657661437988 L 14.99736499786377 13.14614772796631 C 14.99736499786377 14.11272716522217 14.99736499786377 14.87619781494141 14.86093521118164 15.46088790893555 C 14.71988582611084 16.06537818908691 14.44462490081787 16.43046760559082 13.94054508209229 16.68161773681641 C 13.66100311279297 16.81980895996094 13.34373569488525 16.89400291442871 13.02623462677002 16.89454460144043 Z" stroke="none"/><path d="M 2.407735586166382 15.64178943634033 C 3.471916675567627 15.45372772216797 4.455321788787842 14.99837112426758 5.257935523986816 14.32095718383789 C 5.321946144104004 14.26692771911621 5.389673233032227 14.21544456481934 5.458820819854736 14.16808414459229 C 5.831601619720459 13.91215038299561 6.09707498550415 13.73194980621338 6.3260178565979 13.60079765319824 C 6.387767791748047 13.56284141540527 6.450880527496338 13.52547454833984 6.513965129852295 13.48952770233154 C 7.282425403594971 13.05169677734375 8.225035667419434 13.05248737335205 8.992765426635742 13.49158763885498 C 9.053593635559082 13.52638053894043 9.114703178405762 13.56262588500977 9.17476749420166 13.59952449798584 C 9.423787117004395 13.74113082885742 9.721601486206055 13.94520092010498 10.05559539794922 14.17698764801025 C 10.12038516998291 14.22194766998291 10.18300533294678 14.26995754241943 10.24325561523438 14.32083797454834 C 11.0439338684082 14.99703311920166 12.02610397338867 15.45236968994141 13.09010410308838 15.64170932769775 C 13.19339752197266 15.63307857513428 13.29700183868408 15.60497570037842 13.3878345489502 15.56044578552246 C 13.50924015045166 15.49991130828857 13.57686805725098 15.46298980712891 13.64363574981689 15.17684745788574 C 13.74736499786377 14.73228740692139 13.74736499786377 14.03232765197754 13.74736499786377 13.14614772796631 L 13.74736499786377 6.992657661437988 C 13.74736499786377 5.665237426757812 13.74736499786377 4.518837451934814 13.59335517883301 3.713477611541748 C 13.46554565429688 3.04514741897583 13.26668548583984 2.755087614059448 12.98727512359619 2.503707647323608 C 12.18337535858154 1.780487537384033 10.80033493041992 1.750007510185242 7.748475551605225 1.750007510185242 L 7.513765335083008 1.749987483024597 C 4.698025226593018 1.749987483024597 3.309175252914429 1.781937479972839 2.512155294418335 2.501837491989136 C 2.231525421142578 2.755327463150024 2.031875371932983 3.046997547149658 1.903855323791504 3.716837644577026 C 1.75000536441803 4.521857738494873 1.75000536441803 5.666857719421387 1.75000536441803 6.992657661437988 L 1.75000536441803 13.14614772796631 C 1.75000536441803 14.03232765197754 1.75000536441803 14.73228740692139 1.853735327720642 15.17683792114258 C 1.920519113540649 15.46306133270264 1.985292077064514 15.49849891662598 2.11269998550415 15.5620174407959 C 2.201951503753662 15.60576820373535 2.30461311340332 15.63335418701172 2.407735586166382 15.64178943634033 M 13.02273559570312 18.1445484161377 C 13.02267551422119 18.1445484161377 13.022705078125 18.1445484161377 13.02264499664307 18.1445484161377 L 12.98393535614014 18.14431762695312 C 12.9249849319458 18.14362716674805 12.86618518829346 18.13863754272461 12.80804538726807 18.12935829162598 C 11.25036525726318 17.88081741333008 9.807055473327637 17.22470664978027 8.630215644836426 16.23083686828613 C 8.381585121154785 16.05828666687012 8.088245391845703 15.85589790344238 7.928685188293457 15.76693725585938 C 7.912905216217041 15.75814723968506 7.897335529327393 15.74897766113281 7.88199520111084 15.73945713043213 C 7.838845252990723 15.71267795562744 7.795345306396484 15.68674755096436 7.751565456390381 15.66170787811279 C 7.707335472106934 15.68690776824951 7.663705348968506 15.71285724639893 7.620795249938965 15.73948764801025 C 7.607015132904053 15.74802780151367 7.593055248260498 15.75628757476807 7.578905582427979 15.76426792144775 C 7.42231559753418 15.85254764556885 7.142285346984863 16.04477691650391 6.871485233306885 16.23069763183594 L 6.870415210723877 16.2314281463623 C 5.691225528717041 17.22668838500977 4.246415138244629 17.88266754150391 2.68802547454834 18.12957763671875 C 2.63031530380249 18.13871765136719 2.571945428848267 18.14364814758301 2.513435363769531 18.14431762695312 L 2.474695444107056 18.1445484161377 C 1.964905381202698 18.1445484161377 1.455875396728516 18.0261173248291 1.002665400505066 17.80207824707031 C 0.161345362663269 17.38288688659668 -0.3555546402931213 16.71051788330078 -0.5808646678924561 15.74492740631104 C -0.7499946355819702 15.02009773254395 -0.7499946355819702 14.19312763214111 -0.7499946355819702 13.14614772796631 L -0.7499946355819702 6.992657661437988 C -0.7499946355819702 4.034097671508789 -0.7499946355819702 2.079567432403564 0.8363953828811646 0.6466275453567505 C 2.382625341415405 -0.7500124573707581 4.423915386199951 -0.7500124573707581 7.513765335083008 -0.7500124573707581 L 7.748685359954834 -0.7499924898147583 C 11.09110546112061 -0.7499924898147583 13.10855579376221 -0.7499924898147583 14.65931510925293 0.6451375484466553 C 16.24736595153809 2.073837518692017 16.24736595153809 4.030647754669189 16.24736595153809 6.992657661437988 L 16.24736595153809 13.14614772796631 C 16.24736595153809 14.19312763214111 16.24736595153809 15.02009773254395 16.0782356262207 15.74492740631104 C 15.85292530059814 16.71051788330078 15.33602523803711 17.38288688659668 14.49799537658691 17.80043792724609 C 14.04152488708496 18.02610778808594 13.5324649810791 18.1445484161377 13.02273559570312 18.1445484161377 Z" stroke="none" fill="#ddd"/></g></g></g></svg>