<svg xmlns="http://www.w3.org/2000/svg" xmlns:xlink="http://www.w3.org/1999/xlink" width="24" height="24" viewBox="0 0 24 24"><defs><style>.a{fill:none;}.b{clip-path:url(#a);}.c{fill:#ff9d9d;opacity:0;}.d{fill:#333;}</style><clipPath id="a"><rect class="a" width="24" height="24"/></clipPath></defs><g class="b"><g transform="translate(-315 -689)"><rect class="c" width="24" height="24" transform="translate(315 689)"/><path class="d" d="M14.438,17.054c-1.059,0-2.245-.877-3.2-1.581-.295-.218-.573-.424-.768-.541a3.126,3.126,0,0,0-.75-.392,3.126,3.126,0,0,0-.75.392c-.2.117-.474.323-.768.541-.953.7-2.139,1.581-3.2,1.581A1.691,1.691,0,0,1,4.2,16.86c-.949-.507-.949-1.607-.949-3.431V7.513c0-2.719,0-4.217,1.068-5.245s2.6-1.017,5.4-1.017,4.348,0,5.4,1.017,1.068,2.526,1.068,5.245V13.43c0,1.823,0,2.923-.949,3.431A1.691,1.691,0,0,1,14.438,17.054ZM9.722,13.04a2.917,2.917,0,0,1,1.524.607c.256.154.548.37.886.62a6.17,6.17,0,0,0,2.306,1.287.233.233,0,0,0,.1-.017s.074-.084.116-.488.04-.932.04-1.62V7.513c0-2.546-.023-3.6-.608-4.165-.62-.6-1.871-.6-4.363-.6s-3.743,0-4.363.6c-.585.564-.608,1.619-.608,4.165V13.43c0,.687,0,1.23.04,1.62s.113.485.116.489a.244.244,0,0,0,.1.016,6.171,6.171,0,0,0,2.306-1.288c.338-.25.63-.466.886-.62A2.917,2.917,0,0,1,9.722,13.04Z" transform="translate(317.5 691.5)"/></g></g></svg>