<svg xmlns="http://www.w3.org/2000/svg" xmlns:xlink="http://www.w3.org/1999/xlink" width="24" height="24" viewBox="0 0 24 24"><defs><clipPath id="a"><rect width="24" height="24" fill="none"/></clipPath></defs><g clip-path="url(#a)"><g transform="translate(4 3)"><rect width="24" height="24" transform="translate(-4 -3)" fill="none"/><path d="M3169.4-111.4l-3.951-3.951A7.962,7.962,0,0,1,3161-114a8,8,0,0,1-8-8,8,8,0,0,1,8-8,8,8,0,0,1,8,8,7.973,7.973,0,0,1-2.243,5.555l3.844,3.845a.849.849,0,0,1,0,1.2.845.845,0,0,1-.6.249A.846.846,0,0,1,3169.4-111.4ZM3154.7-122a6.307,6.307,0,0,0,6.3,6.3,6.307,6.307,0,0,0,6.3-6.3,6.307,6.307,0,0,0-6.3-6.3A6.307,6.307,0,0,0,3154.7-122Z" transform="translate(-3154 130)" fill="#333"/></g></g></svg>