<svg xmlns="http://www.w3.org/2000/svg" xmlns:xlink="http://www.w3.org/1999/xlink" width="26" height="26" viewBox="0 0 26 26"><defs><clipPath id="a"><rect width="26" height="26" fill="none"/></clipPath><clipPath id="c"><rect width="17.171" height="10.644" fill="none"/></clipPath></defs><g clip-path="url(#a)"><g transform="translate(-146.658 -58.933)"><g transform="translate(146.658 58.933)" clip-path="url(#a)"><g transform="translate(-146.658 -58.933)"><rect width="26" height="26" rx="13" transform="translate(146.658 58.933)" fill="#ff2b2f"/></g></g><g transform="translate(150.915 66.415)"><g transform="translate(0 0)" clip-path="url(#c)"><path d="M12.916,8.246a2.744,2.744,0,0,1-2.851-2.924A2.744,2.744,0,0,1,12.916,2.4a3.025,3.025,0,0,1,2.412,1.2L17.171,1.93A5.413,5.413,0,0,0,12.77,0,5.3,5.3,0,0,0,7.162,4.846a7.08,7.08,0,0,0-1.154-.4c-1.472-.389-2.967-.479-2.967-1.273,0-.512.439-.921,1.652-.921a5.414,5.414,0,0,1,1.787.325A6.743,6.743,0,0,1,7.044,1.54,6.979,6.979,0,0,1,7.8.589,8.159,8.159,0,0,0,4.708,0C1.667,0,.175,1.491.175,3.319c0,3.8,5.819,2.617,5.819,4.24,0,.5-.468.833-1.667.833A6.452,6.452,0,0,1,.95,7.383L0,9.518a8.062,8.062,0,0,0,4.313,1.126,4.715,4.715,0,0,0,3.953-1.55,2.954,2.954,0,0,0,.169-.256,5.707,5.707,0,0,0,4.334,1.805,5.413,5.413,0,0,0,4.4-1.93L15.329,7.047a3.025,3.025,0,0,1-2.412,1.2" transform="translate(0 0)" fill="#fff"/></g></g></g></g></svg>