<svg xmlns="http://www.w3.org/2000/svg" xmlns:xlink="http://www.w3.org/1999/xlink" width="36" height="36" viewBox="0 0 36 36"><defs><clipPath id="a"><rect width="36" height="36" fill="none"/></clipPath></defs><g clip-path="url(#a)"><g transform="translate(-29 -734)"><rect width="36" height="36" transform="translate(29 734)" fill="#ffb9b9" opacity="0"/><g transform="translate(3372 5403)"><path d="M10,25.25a10,10,0,0,1,0-20,9.908,9.908,0,0,1,4.317.977A4.748,4.748,0,0,0,19.9,13.847a10.122,10.122,0,0,1,.1,1.4A10.012,10.012,0,0,1,10,25.25ZM8.74,12.331a.556.556,0,0,0-.321.095c-.381.257-.381.892-.381,2.157v1.335c0,1.266,0,1.9.381,2.157a.556.556,0,0,0,.32.094,4.412,4.412,0,0,0,1.619-.688l1.225-.668.01-.005c1.244-.678,1.868-1.019,1.868-1.558s-.624-.879-1.868-1.557l-.01-.005-1.225-.668A4.425,4.425,0,0,0,8.74,12.331ZM17.5,13a3.249,3.249,0,0,1-1.79-5.961,10.074,10.074,0,0,1,1.263,1.043,1.75,1.75,0,1,0,1.962,2.671,9.962,9.962,0,0,1,.615,1.519A3.256,3.256,0,0,1,17.5,13Z" transform="translate(-3336 -4665.25)" fill="#333"/><path d="M17,12.25a3.25,3.25,0,1,1,1.75-5.988V1.5a.75.75,0,0,1,1.374-.416,3.2,3.2,0,0,1,.282.6A2.748,2.748,0,0,0,22.623,3.76a.75.75,0,0,1-.247,1.48,3.994,3.994,0,0,1-2.127-1V9A3.254,3.254,0,0,1,17,12.25Z" transform="translate(-3335.5 -4664.5)" fill="#ff2b2f"/></g></g></g></svg>