<svg xmlns="http://www.w3.org/2000/svg" width="20" height="20" viewBox="0 0 20 20">
  <defs>
    <style>
      .cls-1 {
        fill: #ff8b8b;
        opacity: 0;
      }

      .cls-2 {
        fill: #ff8207;
      }
    </style>
  </defs>
  <g id="그룹_30130" data-name="그룹 30130" transform="translate(-125.386)">
    <rect id="사각형_16206" data-name="사각형 16206" class="cls-1" width="20" height="20" transform="translate(125.386)"/>
    <path id="합치기_61" data-name="합치기 61" class="cls-2" d="M5.489,14.351c-.453,0-.794-.628-.556-1.2A2.928,2.928,0,0,1,7.5,11.136a2.928,2.928,0,0,1,2.568,2.013c.238.573-.1,1.2-.556,1.2ZM4.971,9.064c-.011,0-.021.005-.031.005a.522.522,0,0,1-.082-.006A5.224,5.224,0,0,1,.491,5.207L.2,4c-.216-.915-.346-1.466.056-1.938S1.248,1.6,2.23,1.6h.518a1.525,1.525,0,0,1,.3-1.117C3.457,0,4.118,0,5.442,0H9.559c1.324,0,1.985,0,2.4.483a1.525,1.525,0,0,1,.3,1.117h.518c.983,0,1.576,0,1.969.462S15.013,3.083,14.8,4l-.287,1.21a5.224,5.224,0,0,1-4.367,3.856.525.525,0,0,1-.083.006c-.011,0-.02-.005-.031-.005A3.269,3.269,0,0,1,7.5,10.669,3.271,3.271,0,0,1,4.971,9.064Zm7.161-6.225a16.144,16.144,0,0,1-1.363,4.975,4.066,4.066,0,0,0,2.672-2.845l.286-1.209a3.543,3.543,0,0,0,.167-1.018,3.984,3.984,0,0,0-1.123-.074h-.618C12.146,2.725,12.14,2.778,12.132,2.839Zm-11.027-.1a3.557,3.557,0,0,0,.169,1.017l.286,1.209A4.063,4.063,0,0,0,4.232,7.814,16.169,16.169,0,0,1,2.869,2.839c-.007-.06-.013-.114-.021-.171H2.23A3.957,3.957,0,0,0,1.106,2.742ZM7.674,6.275l.817.413A.374.374,0,0,0,9.036,6.3l-.152-.883a.36.36,0,0,1,.107-.32l.657-.627A.364.364,0,0,0,9.44,3.85l-.911-.132a.376.376,0,0,1-.281-.2l-.41-.8a.382.382,0,0,0-.673,0l-.411.8a.376.376,0,0,1-.281.2l-.911.132a.364.364,0,0,0-.208.623l.657.627a.36.36,0,0,1,.107.32L5.967,6.3a.374.374,0,0,0,.544.385l.816-.413A.387.387,0,0,1,7.5,6.234.383.383,0,0,1,7.674,6.275Z" transform="translate(128.103 3.649)"/>
  </g>
</svg>
