<svg xmlns="http://www.w3.org/2000/svg" xmlns:xlink="http://www.w3.org/1999/xlink" width="32" height="32" viewBox="0 0 32 32"><defs><style>.a{fill:none;}.b{fill:#fc373b;}.c{clip-path:url(#a);}.d{fill:#ff9395;opacity:0;}.e{clip-path:url(#b);}</style><clipPath id="a"><rect class="a" width="32" height="32"/></clipPath><clipPath id="b"><rect class="b" width="17" height="24.691" transform="translate(0 0)"/></clipPath></defs><g class="c"><g transform="translate(-174 -830.285)"><rect class="d" width="32" height="32" transform="translate(174 830.285)"/><g class="e" transform="translate(181.5 833.939)"><path class="b" d="M8.168,22.83a7.878,7.878,0,0,1-1.954-2.5L.333,29.818a2.728,2.728,0,0,0,.6,1.492,3.57,3.57,0,0,0,1.927.829l8.106-7.911a9.635,9.635,0,0,1-2.8-1.4M2.73,31.346l-.65-.355,6.405-6.664.768.376Z" transform="translate(-0.215 -13.107)"/><path class="b" d="M28.769,4.944A4.706,4.706,0,1,0,23.831,9.4a4.706,4.706,0,0,0,4.938-4.461M21.332,3.118,20.984,2.9c.307-.657.37-.691.8-.381l-.454.6m.914-.615.329.294-.75,1c-.537-.163-.453-.3.421-1.3m-1.16,2.784L23.8,1.721l.384.3L21.46,5.6l-.375-.311m1.109-.141c.593-.777,1.089-1.434,1.6-2.081a.26.26,0,0,1,.256,0c.067.065.136.233.1.283-.45.625-.91,1.244-1.395,1.842-.053.065-.285-.016-.561-.041M21.851,6.9,25.58,2.013l.373.312-3.729,4.9L21.851,6.9m1.4-.516,2.165-2.854.392.291L23.664,6.645l-.411-.256m1.112-.143,1.2-1.595.439.227L24.7,6.591l-.338-.345m-.126,1.47,2.724-3.575c.22.138.47.2.237.508-.843,1.1-1.682,2.193-2.546,3.322l-.415-.255M26,7.54l-.376-.313c.371-.492.718-.95,1.061-1.412.185-.249.352-.213.557.067L26,7.54m1.039-.059-.39-.281.452-.6.4.252-.465.629" transform="translate(-12.483 0)"/><path class="b" d="M16.466,51.7a.533.533,0,0,1-.518-.412l-.093-.4a9.558,9.558,0,0,0-.776-2.426,3.863,3.863,0,0,0-4.635-2.078,13.779,13.779,0,0,0-2.551,1.33c-1.725,1.051-3.509,2.139-5.659,1.7a2.928,2.928,0,0,1-1.448-.713,2.849,2.849,0,0,1-.723-2.614,5.194,5.194,0,0,1,1.163-2.243c.21-.259.431-.509.653-.758.293-.329.57-.64.819-.974a.533.533,0,1,1,.855.638c-.277.371-.582.713-.877,1.045-.211.237-.422.473-.621.72a4.192,4.192,0,0,0-.946,1.782,1.805,1.805,0,0,0,.414,1.634,1.871,1.871,0,0,0,.925.44c1.74.356,3.271-.578,4.892-1.565A14.707,14.707,0,0,1,10.1,45.37a4.91,4.91,0,0,1,5.923,2.583,10.512,10.512,0,0,1,.875,2.692l.091.4a.533.533,0,0,1-.4.64.553.553,0,0,1-.122.014" transform="translate(0 -27.006)"/></g></g></g></svg>