<svg xmlns="http://www.w3.org/2000/svg" xmlns:xlink="http://www.w3.org/1999/xlink" width="24" height="24" viewBox="0 0 24 24"><defs><clipPath id="a"><rect width="24" height="24" fill="none"/></clipPath></defs><g clip-path="url(#a)"><g transform="translate(-307 -6)"><g transform="translate(307 6)"><rect width="24" height="24" fill="none"/><g transform="translate(4.5 4)"><path d="M2740.356,1347.382a1,1,0,0,1-.707-.293l-14-14a1,1,0,1,1,1.414-1.414l14,14a1,1,0,0,1-.707,1.707Z" transform="translate(-2725.356 -1331.382)"/><path d="M2726.356,1347.382a1,1,0,0,1-.707-1.707l14-14a1,1,0,0,1,1.414,1.414l-14,14A1,1,0,0,1,2726.356,1347.382Z" transform="translate(-2725.356 -1331.382)"/></g></g></g></g></svg>