<svg xmlns="http://www.w3.org/2000/svg" xmlns:xlink="http://www.w3.org/1999/xlink" width="32" height="32" viewBox="0 0 32 32"><defs><style>.a{fill:none;}.b{clip-path:url(#a);}.c{fill:#ff9395;opacity:0;}.d{fill:#fff;}</style><clipPath id="a"><rect class="a" width="32" height="32"/></clipPath></defs><g class="b"><g transform="translate(-267 -564)"><rect class="c" width="32" height="32" transform="translate(267 564)"/><path class="d" d="M23.111,20.455v2.656H21.185V20.455a3.123,3.123,0,0,0-5.331-2.207l-2.889,2.889A6.694,6.694,0,0,1,8.2,23.111H3.006A3.005,3.005,0,0,1,.88,17.981l.295-.295a2.589,2.589,0,0,1,.547-2.846L7.5,9.063a7.3,7.3,0,0,0,1.041,1.658,7.7,7.7,0,0,0,2.607,2.016L5.382,18.5a2.581,2.581,0,0,1-2.848.549l-.289.289a1.079,1.079,0,0,0,.761,1.847H8.2a4.783,4.783,0,0,0,3.4-1.411l2.889-2.889a5.049,5.049,0,0,1,8.619,3.57Zm-8.667-8.9A5.778,5.778,0,1,0,8.667,5.778,5.778,5.778,0,0,0,14.445,11.556Z" transform="translate(271.824 568.824)"/></g></g></svg>