<svg xmlns="http://www.w3.org/2000/svg" xmlns:xlink="http://www.w3.org/1999/xlink" width="24" height="24" viewBox="0 0 24 24"><defs><style>.a{fill:none;}.b{fill:#fff;}.c{clip-path:url(#a);}.d{fill:#ffe5e5;opacity:0;}.e{clip-path:url(#b);}</style><clipPath id="a"><rect class="a" width="24" height="24"/></clipPath><clipPath id="b"><rect class="b" width="15.471" height="18.999"/></clipPath></defs><g class="c"><path class="d" d="M0,0H24V24H0Z"/><g transform="translate(4 2)"><g class="e"><path class="b" d="M12.922,45.731a4.291,4.291,0,0,1,2.051-3.612A4.447,4.447,0,0,0,11.5,40.231c-1.481-.149-2.89.873-3.639.873s-1.91-.849-3.135-.824A4.65,4.65,0,0,0,.8,42.66C-.879,45.567.365,49.876,2,52.233c.8,1.154,1.747,2.45,3,2.4,1.205-.046,1.66-.778,3.115-.778s1.863.778,3.137.758c1.294-.027,2.115-1.181,2.905-2.335a10.539,10.539,0,0,0,1.317-2.7,4.191,4.191,0,0,1-2.549-3.847" transform="translate(0 -35.639)"/><path class="b" d="M70.374,3.031A4.166,4.166,0,0,0,71.363,0a4.255,4.255,0,0,0-2.8,1.438,3.981,3.981,0,0,0-1.01,2.942,3.526,3.526,0,0,0,2.817-1.347" transform="translate(-59.846 0.001)"/></g></g></g></svg>