<svg xmlns="http://www.w3.org/2000/svg" xmlns:xlink="http://www.w3.org/1999/xlink" width="24" height="24" viewBox="0 0 24 24"><defs><style>.a{fill:none;}.b{clip-path:url(#a);}.c{opacity:0;}.d{fill:#ff9d9d;}.e{fill:#333;}</style><clipPath id="a"><rect class="a" width="24" height="24"/></clipPath></defs><g class="b"><g class="b"><g class="b"><g class="c"><g class="b"><rect class="d" width="24" height="24"/></g></g><path class="e" d="M9.9,16.429h0c-2.576,0-3.971-.044-5.036-.918A4.027,4.027,0,0,1,4.3,14.95c-.918-1.12-.918-2.567-.918-5.45s0-4.329.913-5.447a4.034,4.034,0,0,1,.562-.562c1.122-.917,2.569-.917,5.452-.917s4.331,0,5.449.914a4.166,4.166,0,0,1,.56.559c.88,1.07.921,2.464.921,5.041a.75.75,0,0,1-1.5,0c0-2.4-.052-3.447-.577-4.086a2.59,2.59,0,0,0-.356-.354c-.7-.574-1.969-.574-4.5-.574s-3.8,0-4.5.578A2.433,2.433,0,0,0,5.458,5c-.573.7-.573,1.97-.573,4.5s0,3.793.579,4.5a2.5,2.5,0,0,0,.352.353c.638.523,1.681.576,4.087.578a.75.75,0,0,1,0,1.5"/><path class="e" d="M14.056,20.59a.75.75,0,0,1-.01-1.5l2.449-.035a.75.75,0,0,1,.021,1.5l-2.449.035Zm-2.3-.062a2.7,2.7,0,0,1-2.558-2.259A.75.75,0,1,1,10.671,18c.143.8.6.917,1.339,1.046l.1.017a.75.75,0,1,1-.264,1.477Zm6.921.013a.787.787,0,0,1-.784-.621.711.711,0,0,1,.57-.854l.1-.016c.739-.118,1.2-.231,1.352-1.024a.749.749,0,0,1,1.472.282A2.7,2.7,0,0,1,18.8,20.531a.764.764,0,0,1-.126.01M9.9,16.457H9.893A.75.75,0,0,1,9.15,15.7l.023-2.445a.778.778,0,0,1,.757-.743.75.75,0,0,1,.743.757l-.023,2.445a.75.75,0,0,1-.75.743m10.7-.013H20.6a.75.75,0,0,1-.743-.757l.024-2.443a.749.749,0,0,1,.75-.743h.006a.751.751,0,0,1,.744.757L21.354,15.7a.75.75,0,0,1-.75.743M18.806,8.4h0a2.7,2.7,0,0,1,2.557,2.261.75.75,0,0,1-1.477.264c-.142-.8-.6-.919-1.34-1.048l-.1-.018a.75.75,0,1,1,.263-1.476ZM9.924,11.547a.752.752,0,0,1-.739-.882A2.7,2.7,0,0,1,11.744,8.4a.793.793,0,0,1,.915.6.71.71,0,0,1-.559.86l-.1.018c-.738.128-1.2.248-1.34,1.048a.75.75,0,0,1-.738.618m4.143-1.673a.75.75,0,0,1-.011-1.5L16.5,8.339h.011a.75.75,0,0,1,.011,1.5l-2.449.035Z"/></g></g></g></svg>