<svg xmlns="http://www.w3.org/2000/svg" xmlns:xlink="http://www.w3.org/1999/xlink" width="36" height="36" viewBox="0 0 36 36"><defs><clipPath id="a"><rect width="36" height="36" fill="none"/></clipPath></defs><g clip-path="url(#a)"><g transform="translate(-123 -734)"><rect width="36" height="36" transform="translate(123 734)" fill="#ffb9b9" opacity="0"/><g transform="translate(129 740)"><path d="M17,7v4A5,5,0,0,1,7,11V7A5,5,0,0,1,17,7Z" fill="none" stroke="#888" stroke-width="1.5"/><path d="M17,7H14m3,4H14" fill="none" stroke="#888" stroke-linecap="round" stroke-width="1.5"/><path d="M20,11a8,8,0,0,1-8,8m0,0a8,8,0,0,1-8-8m8,8v3m0,0h3m-3,0H9" fill="none" stroke="#888" stroke-linecap="round" stroke-width="1.5"/></g></g></g></svg>