<svg xmlns="http://www.w3.org/2000/svg" width="18" height="18" viewBox="0 0 18 18">
  <g id="그룹_32276" data-name="그룹 32276" transform="translate(-316 -690)">
    <rect id="사각형_16279" data-name="사각형 16279" width="18" height="18" transform="translate(316 690)" fill="#ff9d9d" opacity="0"/>
    <path id="패스_28293" data-name="패스 28293" d="M8.266,12.274H8.24a.749.749,0,0,1-.115-.01A5.473,5.473,0,0,1,5.39,10.955c-.163-.119-.355-.258-.459-.32L4.9,10.616l-.085-.054-.086.054-.027.017c-.1.061-.286.193-.463.322h0A5.469,5.469,0,0,1,1.5,12.264a.75.75,0,0,1-.114.01H1.361A2.1,2.1,0,0,1,.4,12.038,1.979,1.979,0,0,1-.639,10.62,8.6,8.6,0,0,1-.75,8.829V4.587C-.75,2.548-.75,1.2.288.213,1.3-.75,2.637-.75,4.66-.75h.154C7-.75,8.322-.75,9.337.212c1.04.985,1.04,2.334,1.04,4.375V8.829a8.6,8.6,0,0,1-.111,1.791,1.978,1.978,0,0,1-1.034,1.417A2.1,2.1,0,0,1,8.266,12.274ZM4.66.75c-1.914,0-2.783.022-3.337.55S.75,2.636.75,4.587V8.829c0,1.338.043,1.723.342,1.88a.587.587,0,0,0,.228.064,3.971,3.971,0,0,0,1.945-.959.753.753,0,0,1,.063-.051l.032-.023c.207-.15.4-.292.562-.387a4.208,4.208,0,0,1,.591-.319.75.75,0,0,1,.6,0,4.113,4.113,0,0,1,.592.319c.16.1.35.233.6.415a.75.75,0,0,1,.06.049,3.974,3.974,0,0,0,1.942.958.591.591,0,0,0,.23-.065c.3-.156.34-.541.34-1.879V4.587c0-1.9-.023-2.767-.571-3.286S6.832.75,4.813.75Z" transform="translate(320.566 693.677)" fill="#fff"/>
  </g>
</svg>
