<svg xmlns="http://www.w3.org/2000/svg" xmlns:xlink="http://www.w3.org/1999/xlink" width="36" height="36" viewBox="0 0 36 36"><defs><clipPath id="a"><rect width="36" height="36" fill="none"/></clipPath></defs><g clip-path="url(#a)"><g transform="translate(-29 -734)"><rect width="36" height="36" transform="translate(29 734)" fill="#ffb9b9" opacity="0"/><g transform="translate(34.5 740.5)"><path d="M21.5,12.5a9.99,9.99,0,1,1-6.667-9.431" fill="none" stroke="#888" stroke-linecap="round" stroke-width="1.5"/><path d="M19.5,9A2.5,2.5,0,1,1,17,6.5,2.5,2.5,0,0,1,19.5,9Zm0,0V1.5c.333.5.6,2.6,3,3" transform="translate(1 -1)" fill="none" stroke="#888" stroke-linecap="round" stroke-linejoin="round" stroke-width="1.5"/><path d="M9.5,10.752v1.335c0,1.267,0,1.9.38,2.157s.9-.027,1.94-.594l1.225-.668c1.251-.682,1.877-1.023,1.877-1.563s-.626-.881-1.877-1.563L11.82,9.189c-1.04-.567-1.56-.85-1.94-.594S9.5,9.485,9.5,10.752Z" transform="translate(0.039 1.081)" fill="#888"/></g></g></g></svg>