<svg xmlns="http://www.w3.org/2000/svg" width="24" height="24" viewBox="0 0 24 24">
  <g id="그룹_30263" data-name="그룹 30263" transform="translate(-265 0.112)">
    <rect id="사각형_16206" data-name="사각형 16206" width="24" height="24" transform="translate(265 -0.112)" fill="#888888" opacity="0"/>
    <path id="합치기_70" data-name="합치기 70" d="M5.727,20.5a.715.715,0,1,1,0-1.429H7.969V17.613A8.509,8.509,0,0,1,0,9.3a.731.731,0,0,1,.747-.715.731.731,0,0,1,.746.715,7.081,7.081,0,0,0,7.223,6.915A7.081,7.081,0,0,0,15.939,9.3a.747.747,0,0,1,1.494,0,8.509,8.509,0,0,1-7.97,8.315v1.461H11.7a.715.715,0,1,1,0,1.429ZM2.989,9.3V5.483A5.616,5.616,0,0,1,8.716,0,5.654,5.654,0,0,1,14.39,4.768H10.708a.717.717,0,1,0,0,1.432h3.737V8.584H10.708a.715.715,0,1,0,0,1.429H14.39a5.652,5.652,0,0,1-5.674,4.768A5.614,5.614,0,0,1,2.989,9.3Z" transform="translate(268.327 1.915)" fill="#888"/>
  </g>
</svg>
