<svg xmlns="http://www.w3.org/2000/svg" xmlns:xlink="http://www.w3.org/1999/xlink" width="24" height="24" viewBox="0 0 24 24"><defs><style>.a{fill:none;}.b{clip-path:url(#a);}.c{opacity:0;}.d{fill:#ff9d9d;}.e{fill:#333;}</style><clipPath id="a"><rect class="a" width="24" height="24"/></clipPath></defs><g class="b"><g class="b"><g class="b"><g class="c"><g class="b"><rect class="d" width="24" height="24"/></g></g><path class="e" d="M19.439,4.682C17.429,2.521,8.252,6.123,7.862,6.276,2.983,8.21,2.989,9.284,2.992,9.688c.014,2.178,3.521,2.891,6.081,3.412.471.1.871.176,1.135.25.6.169.629.2.771.84,1.048,4.768,1.482,6.741,3.1,6.813h.06c.611,0,1.431-.461,2.829-3.474,1.281-2.763,4.247-10.938,2.474-12.848M18.347,8.357c-.715,4.321-3.261,10.29-4.268,11.111-.487-.377-1.07-3.03-1.635-5.6a3.481,3.481,0,0,0-.324-.926l2.361-2.36A.75.75,0,1,0,13.42,9.52l-2.489,2.489c-.1-.036-.2-.071-.317-.1-.291-.081-.727-.171-1.242-.276C8.2,11.392,4.7,10.68,4.5,9.759c.724-1.019,7.048-3.613,11.4-4.174,2.053-.264,2.434.115,2.438.118h0s.375.432.008,2.653"/></g></g></g></svg>