<svg xmlns="http://www.w3.org/2000/svg" xmlns:xlink="http://www.w3.org/1999/xlink" width="16" height="16" viewBox="0 0 16 16"><defs><clipPath id="a"><rect width="16" height="16" fill="none"/></clipPath></defs><g clip-path="url(#a)"><g transform="translate(-265)"><rect width="16" height="16" transform="translate(265)" fill="#ff8b8b" opacity="0"/><path d="M3.509,12.666a.442.442,0,1,1,0-.884H4.883v-.9A5.238,5.238,0,0,1,0,5.744.451.451,0,0,1,.457,5.3a.451.451,0,0,1,.458.442,4.355,4.355,0,0,0,4.426,4.271A4.354,4.354,0,0,0,9.766,5.744a.458.458,0,0,1,.916,0A5.238,5.238,0,0,1,5.8,10.88v.9H7.172a.442.442,0,1,1,0,.884ZM1.832,5.744V3.388A3.454,3.454,0,0,1,5.341,0,3.475,3.475,0,0,1,8.818,2.946H6.562a.442.442,0,1,0,0,.884H8.851V5.3H6.562a.442.442,0,1,0,0,.884H8.818A3.474,3.474,0,0,1,5.341,9.131,3.453,3.453,0,0,1,1.832,5.744Z" transform="translate(267.443 1.53)" fill="#ff2b2f"/></g></g></svg>