<svg xmlns="http://www.w3.org/2000/svg" xmlns:xlink="http://www.w3.org/1999/xlink" width="25.843" height="24.918" viewBox="0 0 25.843 24.918"><defs><clipPath id="a"><rect width="25.843" height="24.918" fill="none"/></clipPath></defs><g clip-path="url(#a)"><g transform="translate(-80.88 -3.532)"><g transform="translate(90.786 0.346) rotate(34)"><path d="M18.314,10.773l-2.544.635a.288.288,0,0,1-.3-.1L12.684,7.821a1.74,1.74,0,0,0-2.635,0L7.26,11.308a.3.3,0,0,1-.3.1l-2.542-.635a1.193,1.193,0,0,0-1.446,1.445l1.592,6.367A1.684,1.684,0,0,0,6.2,19.864h10.33a1.684,1.684,0,0,0,1.637-1.279l1.592-6.367a1.192,1.192,0,0,0-1.446-1.445Z" transform="translate(-0.118 -0.295)" fill="#c07136"/><circle cx="1.395" cy="1.395" r="1.395" transform="translate(1.25 6.953)" fill="#c07136"/><circle cx="1.395" cy="1.395" r="1.395" transform="translate(18.457 6.953)" fill="#c07136"/><circle cx="1.395" cy="1.395" r="1.395" transform="translate(9.853 3)" fill="#c07136"/></g></g></g></svg>