<svg xmlns="http://www.w3.org/2000/svg" xmlns:xlink="http://www.w3.org/1999/xlink" width="205" height="194" viewBox="0 0 205 194"><defs><clipPath id="a"><rect width="205" height="194" fill="none"/></clipPath><clipPath id="b"><rect width="200.015" height="193.097" fill="none"/></clipPath></defs><g clip-path="url(#a)"><g transform="translate(-86 -219)"><rect width="205" height="194" transform="translate(86 219)" fill="none"/><g transform="translate(88 219)"><g clip-path="url(#b)"><path d="M188.946,55.282A50.377,50.377,0,1,1,143.71.242a50.376,50.376,0,0,1,45.236,55.039" transform="translate(-7.839 0)" fill="#030912"/><path d="M163.477,55.281a22.015,22.015,0,1,1-19.768-24.052,22.015,22.015,0,0,1,19.768,24.052" transform="translate(-10.597 -2.759)" fill="#fff"/><path d="M138.57,78.991a26.405,26.405,0,1,1,28.849-23.71,26.436,26.436,0,0,1-28.849,23.71m5.111-52.277a26.121,26.121,0,1,0,23.456,28.539,26.151,26.151,0,0,0-23.456-28.539" transform="translate(-10.17 -2.332)" fill="#fff"/><path d="M138.57,78.991a26.405,26.405,0,1,1,28.849-23.71A26.436,26.436,0,0,1,138.57,78.991Zm5.111-52.277a26.121,26.121,0,1,0,23.456,28.539A26.151,26.151,0,0,0,143.681,26.714Z" transform="translate(-10.17 -2.332)" fill="none" stroke="#fff" stroke-miterlimit="10" stroke-width="1"/><path d="M19.393,28.645a4.018,4.018,0,0,1-1.814-2.666,7.54,7.54,0,0,1,.215-4.134c.02-.065.042-.13.062-.2a.073.073,0,0,0,0-.038l-1.342-.132a1.393,1.393,0,0,0-.076.159C16.3,22,16.3,22,15.9,21.962l-.412-.041c-.483-.046-.48-.046-.61.427-.2.723-.4,1.445-.606,2.167-.119.412-.022.573.407.653.109.02.221.046.331.06s.221.025.382.041c-.177.664-.348,1.3-.523,1.952A14.406,14.406,0,0,1,12,26.9a1.094,1.094,0,0,1-.808-1.427c.315-1.254.651-2.5.977-3.755.007-.026.009-.052.02-.12-.3-.03-.6-.063-.892-.083a.372.372,0,0,0-.183.085,4.753,4.753,0,0,1-.548.342,1.168,1.168,0,0,0-.691.881c-.3,1.187-.653,2.362-.973,3.544-.054.2-.123.28-.351.254-.736-.09-1.478-.151-2.218-.224l-.286-.027.8-2.927a9.939,9.939,0,0,1-1.183-.125,2.027,2.027,0,0,1-1.344-1.095,4.73,4.73,0,0,1-.42-3.073A8.747,8.747,0,0,1,6.13,14.693a10.2,10.2,0,0,1,3.13-2.435c.038-.018.074-.04.108-.059,0-.026,0-.052,0-.055a.713.713,0,0,1-.224-.779c.28-1.467.53-2.938.792-4.41.089-.5.174-1,.273-1.565a3.526,3.526,0,0,0,3.441.92c-.049.142-.071.221-.1.3-.771,1.856-1.547,3.707-2.314,5.566a.479.479,0,0,1-.416.329c-.262.028-.528.019-.794.035a1.178,1.178,0,0,0-.443.065A9.688,9.688,0,0,0,4.42,18.674,4.263,4.263,0,0,0,4.525,21.6a2.107,2.107,0,0,0,2.256,1.377.262.262,0,0,0,.271-.217c.266-1,.543-2,.818-2.994.031-.119.054-.23.228-.212.843.089,1.686.17,2.529.254a.381.381,0,0,1,.094.042q-.234.863-.472,1.727l.051.039c.353-.24.725-.463,1.053-.732.114-.093.13-.307.186-.468a1.135,1.135,0,0,0,.051-.225c.031-.244.15-.347.4-.283a2.225,2.225,0,0,0,.36.039c.463.035.34.09.472-.337.154-.5.277-1.015.431-1.518.025-.078.141-.193.208-.189.825.067,1.653.155,2.478.238a.5.5,0,0,1,.112.043l-.577,2.07,1.293.127-.154.652c.467.044.912.091,1.357.127a.206.206,0,0,0,.152-.1,15.33,15.33,0,0,1,4.982-5.217.4.4,0,0,1,.074-.033,9.258,9.258,0,0,1-1.2-.8,1.5,1.5,0,0,1-.367-1.337l2.5.244a.489.489,0,0,0,.452.5.94.94,0,0,0,1.053-.379,6.439,6.439,0,0,0,.5-1.233,3.287,3.287,0,0,1-1.744.48H24.35a2.242,2.242,0,0,1-2.234-2.25,5.22,5.22,0,0,1,1-3.1,3.094,3.094,0,0,1,2.934-1.356,1.793,1.793,0,0,1,1.375.86c.058.084.1.176.185.31.06-.235.094-.427.161-.609.029-.081.125-.194.184-.191h0c.678.052,1.355.124,2.075.193-.081.33-.147.631-.226.928-.436,1.676-.87,3.354-1.315,5.031a5.578,5.578,0,0,1-.791,1.786,2.547,2.547,0,0,1-2.05,1.1c-.555.032-1.118-.035-1.677-.05a.546.546,0,0,0-.291.05,17.407,17.407,0,0,0-4.414,4.074c-.262.36-.481.748-.749,1.163.362.076.658.128.948.2a6.362,6.362,0,0,1,3.567,1.912,3.73,3.73,0,0,1,.89,3.659,3.089,3.089,0,0,1-.331.713,3.042,3.042,0,0,1-4.2.952Zm-1.471-5.658a5.873,5.873,0,0,0,.7,4.3,2.67,2.67,0,0,0,2.377,1.369,2.578,2.578,0,0,0,2.549-1.919,3.392,3.392,0,0,0-1.02-3.263,7.912,7.912,0,0,0-4.213-1.831C18.174,22.1,18.013,22.537,17.921,22.987ZM12.183,7.4c-.069.168-.136.337-.2.5l-1.668,4.108c.387.112.385.112.521-.213q.905-2.156,1.811-4.316c.04-.1.076-.206.114-.309a1.126,1.126,0,0,0-.293-.061C12.327,7.109,12.267,7.191,12.183,7.4ZM25.244,9.032a6.793,6.793,0,0,0-.519,1.343A.835.835,0,0,0,25.7,11.42a.9.9,0,0,0,.729-.475c.192-.389.34-.8.505-1.2A1.038,1.038,0,0,0,26.526,8.7l-.009,0a.933.933,0,0,0-1.273.337Zm-17.1,9.611c.168-.614.329-1.214.5-1.808a.209.209,0,0,1,.157-.119c.874.078,1.748.165,2.672.255-.179.664-.349,1.3-.523,1.946Zm12.213-5.51c-.7-.089-1.406-.145-2.16-.219h0c.139-.538.271-1.038.394-1.539.2-.82.418-1.639.59-2.464.107-.514-.029-.772-.376-.9a.907.907,0,0,0-1.125.393,8.66,8.66,0,0,0-.5,1.407c-.271.964-.51,1.933-.765,2.913l-2.52-.246c.109-.427.208-.844.315-1.257q.7-2.69,1.4-5.383c.031-.126.062-.21.214-.192.68.072,1.357.137,2.04.206a.3.3,0,0,1,.094.043l-.237.928c.255-.188.474-.37.709-.522A2.585,2.585,0,0,1,20.667,6,1.693,1.693,0,0,1,21.96,7.818a10.333,10.333,0,0,1-.461,2.305c-.233.9-.485,1.8-.7,2.7-.055.222-.135.314-.329.314A.706.706,0,0,1,20.356,13.134ZM1.864,11.385A2.742,2.742,0,0,1,.03,8.315c.018-.133.043-.232.215-.215.816.085,1.635.166,2.451.246a.256.256,0,0,1,.069.03A1.281,1.281,0,0,0,4.543,9.445a.938.938,0,0,0,.355-.2.535.535,0,0,0,.094-.753.526.526,0,0,0-.168-.144c-.436-.243-.9-.429-1.349-.655a16.058,16.058,0,0,1-1.5-.793A1.922,1.922,0,0,1,1.16,4.768,3.48,3.48,0,0,1,4.415,1.8a5.12,5.12,0,0,1,2.547.275A2.49,2.49,0,0,1,8.626,5.113L5.963,4.854A1.142,1.142,0,0,0,4.628,3.94a1.1,1.1,0,0,0-.3.1.51.51,0,0,0-.273.669.481.481,0,0,0,.161.207,4.321,4.321,0,0,0,.805.457c.639.3,1.3.546,1.92.886A1.894,1.894,0,0,1,8,7.774,3.526,3.526,0,0,1,6.256,11.1a5.359,5.359,0,0,1-4.392.284Zm10.505-5.9A2.75,2.75,0,1,1,15.39,3.029v.006A2.752,2.752,0,0,1,12.659,5.5,2.826,2.826,0,0,1,12.369,5.486Zm-.259-.863c.322-1.153.637-2.285.955-3.428L12.8,1.108c-.317,1.142-.632,2.273-.952,3.424ZM13.3,4.458l.28.046c.219-.791.436-1.559.655-2.328.058-.214-.09-.194-.237-.223C13.762,2.79,13.534,3.612,13.3,4.458Zm-.811-.5.275.052c.183-.662.364-1.311.55-1.975l-.275-.071C12.85,2.636,12.669,3.287,12.485,3.955ZM14.2,2.916c-.087.321-.174.642-.268.983l.268.087.313-1.156a.355.355,0,0,0-.173-.065C14.275,2.765,14.229,2.813,14.2,2.916Zm-3.117.912.266.087.7-2.5-.27-.077C11.544,2.173,11.316,3,11.085,3.828Zm1.966-.188.255.113c.116-.409.222-.8.333-1.2l-.284-.027C13.252,2.906,13.154,3.269,13.051,3.64Zm1.427.027.268.067.116-.439-.27-.048C14.549,3.4,14.516,3.521,14.478,3.667Zm-2.415-1.61c-.134.454-.261.914-.414,1.459.154-.046.3-.053.311-.1.132-.425.246-.854.353-1.289.009-.034-.063-.109-.114-.13h-.018A.153.153,0,0,0,12.063,2.057Zm-.9.816c.06-.226.123-.463.188-.7l-.239-.09C10.857,2.809,10.842,2.9,11.164,2.873Zm-.644-.3.233.039c.04-.142.076-.272.116-.417a.843.843,0,0,0-.181-.031C10.558,2.162,10.538,2.26,10.52,2.571Z" transform="translate(116.31 36.865)" fill="#ff2b2f" stroke="rgba(0,0,0,0)" stroke-miterlimit="10" stroke-width="1"/><path d="M169.488,157.374c3.938,2.282,5.832,6.43,4.043,10.835a4.173,4.173,0,0,1-1.986,2.123,2.891,2.891,0,0,1-2.268.158,2.966,2.966,0,0,1-1.627-1.718c-.761-1.943-.11-4.673,1.989-5.465,1.858-.7,4.075.084,5.8.83,10.139,4.4,3.211,18.348-7.074,20.239s-24.356,2.4-19.224,22.559" transform="translate(-13.123 -13.95)" fill="none" stroke="#ff2b2f" stroke-miterlimit="10" stroke-width="1"/><path d="M122.157,139.454,65.821,112.689,76.343,85.561q.581-1.747,1.176-3.491,1.487-4.379,3.021-8.744,2.01-5.72,4.108-11.408c1.426-3.85,2.889-7.687,4.441-11.489.887-2.173,1.768-4.348,2.755-6.478.487-1.051,1.015-2.082,1.531-3.12A7,7,0,0,1,95.4,38.119c2.207-1.577,5.587-.911,7.992-.234,1.271.358,3.054,1.014,3.474,2.437a9.688,9.688,0,0,1,.065,3.172,58.728,58.728,0,0,1-1.313,7.1q-.666,3.34-1.387,6.667-1.491,6.943-3.089,13.863-1.077,4.7-2.182,9.386c-.087.367-.175.734-.26,1.1l.03-.033c.4-.4,3.814-3.727,6.116-3.12,2.452.644,10.856,3.577,10.595,9.912,0,0,9.554-.165,10.584,9.919" transform="translate(-5.835 -3.293)" fill="#fdbcbe"/><path d="M33.511,91.1l110.052,61.735a5.363,5.363,0,0,0,6.659-1.116,31.218,31.218,0,0,0,6.025-10.572,5.41,5.41,0,0,0-2.057-6.2L52.045,65.127Z" transform="translate(-2.971 -5.773)" fill="#030912"/><path d="M65.15,72.68A32.623,32.623,0,1,1,35.156,37.623,32.624,32.624,0,0,1,65.15,72.68" transform="translate(0 -3.326)" fill="#030912"/><path d="M160.576,157.447l5.629,2.046a2.938,2.938,0,0,0,3.554-1.305l1.936-3.393a2.936,2.936,0,0,0-.678-3.717l-4.362-3.61Z" transform="translate(-14.234 -13.072)" fill="#030912"/><path d="M130.458,101.992a10.47,10.47,0,0,0-2.364-.416c0,.016.013.03.007.045-.015.039-.031.078-.045.118-1.034-10.078-10.584-9.914-10.584-9.914a7.778,7.778,0,0,0-3.232-6.307,18,18,0,0,0-6.364-3.3,5.8,5.8,0,0,0-5.7,1.611,19.743,19.743,0,0,0-3.62,4.857q-1.569,2.664-3.064,5.372c-1.142,2.074-2.32,4.131-3.325,6.277a29.807,29.807,0,0,0-1.6,4.046,5.2,5.2,0,0,0-.176,2.717,5.431,5.431,0,0,0,1.417,2.343,33.161,33.161,0,0,0,3.917,3.625c1.366,1.046,3.028,2.253,4.793,2.41a6.529,6.529,0,0,0,1.5-.188s6.879,9.391,11.486,7.141a11.831,11.831,0,0,0,2.8-2.148,4.343,4.343,0,0,0,.939,4.579,20.407,20.407,0,0,0,3.281,2.83c3.184,2.071,6.084-1.467,7.69-3.863,2.337-3.488,4.507-7.116,6.606-10.751a7.589,7.589,0,0,0-4.358-11.078" transform="translate(-8.003 -7.269)" fill="#fdbcbe"/><path d="M160.9,139.071a22.607,22.607,0,0,1-10.368,18.446" transform="translate(-13.344 -12.328)" fill="none" stroke="#ff2b2f" stroke-linecap="round" stroke-miterlimit="10" stroke-width="1"/><path d="M71.095,77.557s-1.507,7.152-4.186,8.959" transform="translate(-5.931 -6.875)" fill="none" stroke="#ff2b2f" stroke-linecap="round" stroke-miterlimit="10" stroke-width="1"/><path d="M121.706,141.391l-9.869,21.568L109.173,196l-50.5-3.932,7.91-45.024s-20.257-34.526-19.285-38.312a26.982,26.982,0,0,1,2.246-4.622c3.333-5.5,12.613-21.324,17.139-22.5,4.153.97,8.873,5.147,7.6,10.364-1.376,6.025-4.619,15.545-4.619,15.545.032-.008,16.607,8.059,23.8,18.22Z" transform="translate(-4.189 -7.234)" fill="#fdbcbe"/><path d="M102.612,81.691s-9.285,17-13.1,24.094" transform="translate(-7.935 -7.241)" fill="none" stroke="#030912" stroke-linecap="round" stroke-miterlimit="10" stroke-width="1"/><path d="M117.8,88.91a5.754,5.754,0,0,1-.168,5.829c-1.934,2.771-12.33,20.6-15.422,21.723" transform="translate(-9.061 -7.881)" fill="none" stroke="#030912" stroke-linecap="round" stroke-miterlimit="10" stroke-width="1"/><path d="M129.343,106.321c-1.934,2.771-10.419,17.928-13.511,19.051" transform="translate(-10.268 -9.425)" fill="none" stroke="#030912" stroke-linecap="round" stroke-miterlimit="10" stroke-width="1"/><path d="M103.732,103.955l-1.748-1.227a3.424,3.424,0,0,0-4.222.477l-2.908,2.577c-1.416,1.256-1.486,3.43-.139,4.375l4.415,3.1c1.317.924,3.293.172,4.028-1.533l1.516-3.516A3.444,3.444,0,0,0,103.732,103.955Z" transform="translate(-8.31 -9.06)" fill="none" stroke="#030912" stroke-linecap="round" stroke-miterlimit="10" stroke-width="1"/><path d="M116.333,114.337l-1.511-1.06a2.956,2.956,0,0,0-3.649.412l-2.514,2.227a2.447,2.447,0,0,0-.121,3.781l3.816,2.677a2.434,2.434,0,0,0,3.481-1.325l1.311-3.039A2.977,2.977,0,0,0,116.333,114.337Z" transform="translate(-9.547 -10.001)" fill="none" stroke="#030912" stroke-linecap="round" stroke-miterlimit="10" stroke-width="1"/><path d="M127.829,123.158l-1.075-.819a2.166,2.166,0,0,0-2.682.2l-1.9,1.558a1.791,1.791,0,0,0-.2,2.763l2.715,2.069a1.782,1.782,0,0,0,2.586-.869l1.047-2.186A2.179,2.179,0,0,0,127.829,123.158Z" transform="translate(-10.762 -10.811)" fill="none" stroke="#030912" stroke-linecap="round" stroke-miterlimit="10" stroke-width="1"/><path d="M64.722,82.529a4.412,4.412,0,0,1,.757,4.984c-1.373,2.929-5.146,10.2-11.838,10.075" transform="translate(-4.755 -7.316)" fill="none" stroke="#030912" stroke-linecap="round" stroke-miterlimit="10" stroke-width="1"/><path d="M179.153,86.831,181.3,80.61a.273.273,0,0,1,.531.073l.376,6.012a.273.273,0,0,0,.232.253l5.8.869a.273.273,0,0,1,.024.536l-5.113,1.226a.272.272,0,0,0-.2.34l1.513,5.315a.273.273,0,0,1-.486.231L180.6,90.68a.273.273,0,0,0-.417-.035l-3.656,3.7a.273.273,0,0,1-.446-.3l1.888-4.407a.274.274,0,0,0-.124-.349l-5.964-3.163a.273.273,0,0,1,.183-.509l6.779,1.4a.274.274,0,0,0,.313-.179" transform="translate(-15.223 -7.129)" fill="#ffa007"/><path d="M49.137,167.618l2.146-6.221a.273.273,0,0,1,.531.072l.376,6.013a.274.274,0,0,0,.232.253l5.8.869a.273.273,0,0,1,.024.536l-5.113,1.225a.274.274,0,0,0-.2.341l1.513,5.314a.273.273,0,0,1-.486.233l-3.377-4.786a.274.274,0,0,0-.418-.035l-3.656,3.7a.273.273,0,0,1-.446-.3l1.888-4.406a.275.275,0,0,0-.124-.35l-5.964-3.162a.273.273,0,0,1,.183-.509l6.779,1.4a.273.273,0,0,0,.314-.179" transform="translate(-3.698 -14.291)" fill="#fde522"/><path d="M102.607,14.164,102.2,7.6a.274.274,0,0,1,.519-.138l2.657,5.407a.274.274,0,0,0,.312.145l5.686-1.424a.273.273,0,0,1,.228.486l-4.251,3.095a.273.273,0,0,0-.053.391l3.438,4.326a.273.273,0,0,1-.359.4l-4.957-3.121a.273.273,0,0,0-.4.129l-1.958,4.817a.273.273,0,0,1-.526-.106l.051-4.795a.275.275,0,0,0-.248-.275l-6.722-.63a.273.273,0,0,1-.026-.54l6.8-1.313a.274.274,0,0,0,.221-.285" transform="translate(-10.399 -0.461)" fill="#fde522"/><path d="M29.128,103.384l-4.163-7.756a.273.273,0,0,1,.413-.341l6.275,5.108a.273.273,0,0,0,.343,0l6.157-4.94a.274.274,0,0,1,.41.347l-3.491,6.231a.274.274,0,0,0,.115.378l6.726,3.4a.273.273,0,0,1-.159.515l-7.9-1.044a.274.274,0,0,0-.309.283l.318,7.081a.273.273,0,0,1-.522.124l-2.673-5.984a.275.275,0,0,0-.341-.147l-8.652,3.035a.273.273,0,0,1-.25-.479l7.626-5.464a.273.273,0,0,0,.082-.352" transform="translate(-1.888 -8.441)" fill="#ffa007"/><path d="M215.862,34.892c-.279-.34-2.027.476-2.027.476a3.783,3.783,0,0,0-.614-.307,3.964,3.964,0,0,1-.8-.381,4.8,4.8,0,0,1-1.573-1.667,37.2,37.2,0,0,1-1.655-3.773,6.574,6.574,0,0,0-2.4-2.867c-1.126-.722-2.44-1.131-3.233-2.273-.4-.581-3.189.554-3.1,1.25a72.434,72.434,0,0,1,.02,17.793c-3.153-.627-8.016,1.383-7.094,5.254.833,3.509,5.758,4.254,8.2,1.979,1.23-1.148,1.254-3.52,1.522-5.086q.553-3.229.806-6.5a72.039,72.039,0,0,0,.018-10.974c.086.056.17.115.253.175,1.614,1.174,2.126,3.113,2.865,4.861a5.122,5.122,0,0,0,7.936,2.99c.286-.154,1.205-.549.876-.952" transform="translate(-12.772 -33.77) rotate(8)" fill="#ff2b2f"/><path d="M176.382,126.735a.1.1,0,0,0,.007-.036.32.32,0,0,0,.024-.046q1.521-4.608,3.041-9.216c.036-.108-.326-.173-.337-.176a71.152,71.152,0,0,1-9.4-2.5c-.409-.139-1.825-.177-2,.346a45.608,45.608,0,0,1-3.846,8.461,4.285,4.285,0,0,0-4.5.354,2.13,2.13,0,0,0-.643,2.1,2.093,2.093,0,0,0,2.2,1.249,4.551,4.551,0,0,0,3.035-.955,11.847,11.847,0,0,0,2.271-3.271q1.128-1.982,2.048-4.069,4.1.6,8.2,1.15l-1.926,5.837a5.766,5.766,0,0,0-2.878.167c-1.018.335-2.139,1.442-1.628,2.615.568,1.3,2.589,1.055,3.676.762a4.267,4.267,0,0,0,1.866-.991,4.491,4.491,0,0,0,.8-1.777m-7.475-8.45c-.1-.015-.209-.026-.32-.032q.518-1.218.971-2.463a74.24,74.24,0,0,0,7.7,1.961q-.269.817-.54,1.637-3.906-.532-7.807-1.1" transform="translate(-14.063 -10.165)"/></g></g></g></g></svg>