<svg xmlns="http://www.w3.org/2000/svg" xmlns:xlink="http://www.w3.org/1999/xlink" width="44.57" height="26.944" viewBox="0 0 44.57 26.944"><defs><style>.a{fill:none;}.b{clip-path:url(#a);}.c{clip-path:url(#b);}.d{fill:#fff;}</style><clipPath id="a"><rect class="a" width="44.57" height="26.944"/></clipPath><clipPath id="b"><rect class="a" width="44.57" height="26.944" transform="translate(0 0)"/></clipPath></defs><g class="b"><g transform="translate(0 0)"><g class="c"><path class="d" d="M7.982,9.31l.035-.579a1.906,1.906,0,0,0-.654-1.514,4.6,4.6,0,0,0-1.88-.895l-.934-.257a2.44,2.44,0,0,1-.74-.363.6.6,0,0,1-.194-.538q.109-.523.946-.524,1.068,0,1.067.822l2.731,0A2.793,2.793,0,0,0,7.5,3.124,3.814,3.814,0,0,0,5.108,2.4a5.406,5.406,0,0,0-2.1.384A3.608,3.608,0,0,0,1.54,3.847a3.278,3.278,0,0,0-.691,1.5L.813,5.67l-.037.379a1.938,1.938,0,0,0,.74,1.675,6.313,6.313,0,0,0,2.123.909,7.971,7.971,0,0,1,1.25.478.506.506,0,0,1,.291.451v.175Q5,10.4,3.955,10.4a1.5,1.5,0,0,1-.816-.236.873.873,0,0,1-.373-.8H.014L0,9.7a2.7,2.7,0,0,0,.824,2.035,3.584,3.584,0,0,0,2.561.9,5.7,5.7,0,0,0,3-.787A3.445,3.445,0,0,0,7.982,9.31"/><path class="d" d="M17.027,12.364l.57-3.612a2.285,2.285,0,0,1,.425-1.132,1.014,1.014,0,0,1,.776-.31q.715,0,.716.835l-.012.243L19.49,8.6,18.9,12.365H21.4l.691-4.259a5.251,5.251,0,0,0,.073-.849A2.138,2.138,0,0,0,21.609,5.6a2.177,2.177,0,0,0-1.5-.5,3.027,3.027,0,0,0-2.378,1.32l.194-1.132H15.608l-1.116,7.077Z"/><path class="d" d="M26.385,12.923a1.058,1.058,0,0,1-.764.28c-.422,0-.631-.161-.631-.485H22.455a1.6,1.6,0,0,0,.941,1.6,4.77,4.77,0,0,0,2.017.428A5.3,5.3,0,0,0,27.5,14.4a2.429,2.429,0,0,0,1.2-1.1,5.73,5.73,0,0,0,.643-2.019l.945-5.99H28.069l-.145.948a2,2,0,0,0-.7-.822A1.738,1.738,0,0,0,26.169,5.1a3.149,3.149,0,0,0-2.159.89,4.565,4.565,0,0,0-1.274,2.789l-.036.378-.037.31a2.579,2.579,0,0,0,.667,1.874,2.171,2.171,0,0,0,1.614.688,2.738,2.738,0,0,0,1.99-.769l-.1.634a1.879,1.879,0,0,1-.448,1.027m-.263-2.85q-.9,0-.9-1.025a5.734,5.734,0,0,1,.406-1.429.912.912,0,0,1,.9-.525h.007q.849,0,.848,1.052a2.836,2.836,0,0,1-.309,1.334,1.01,1.01,0,0,1-.952.593"/><path class="d" d="M35.711,4.508h2.817l.337-2H36.049Z"/><path class="d" d="M34.322,12.47h2.79l1.253-7.062H35.549Z"/><path class="d" d="M42.935,7.025h1.344l.29-1.631H43.228l.4-2.2H40.856l-.392,2.2H39.4L39.13,7.035h.985l-.526,3.073a9.917,9.917,0,0,0-.134,1.1,1.084,1.084,0,0,0,.5,1.052,4.053,4.053,0,0,0,1.767.27l.943-.054h.647l.337-2c-.17,0-.341-.007-.512-.007a2.126,2.126,0,0,1-.471-.061.4.4,0,0,1-.257-.418l.054-.337Z"/><path class="d" d="M13.553,6.249a5.681,5.681,0,0,1-1.84.025l-.005,0a4.632,4.632,0,0,1-1.7-.778L9.5,12.049s.349.536.717.619a2.108,2.108,0,0,0,1.232-.087Zm-2.818,5.937,1.548-5.215.5-.011L11.171,12.2Z"/><path class="d" d="M12.5,5.5A2.749,2.749,0,1,0,9.752,2.751,2.751,2.751,0,0,0,12.5,5.5m1.813-3.409a.284.284,0,0,1,.05.006.2.2,0,0,1,.14.246l-.412,1.537a.2.2,0,0,1-.194.149.324.324,0,0,1-.052-.007h0a.2.2,0,0,1-.141-.246l.411-1.537a.2.2,0,0,1,.2-.148m-.664-.557a.179.179,0,0,1,.051.007.2.2,0,0,1,.142.244l-.57,2.132a.2.2,0,0,1-.194.149.233.233,0,0,1-.053-.006h0a.2.2,0,0,1-.138-.246l.571-2.131a.2.2,0,0,1,.193-.148M12.709,1.1A.2.2,0,0,1,12.9.951a.19.19,0,0,1,.053.009h0a.2.2,0,0,1,.14.246l-.856,3.2a.2.2,0,0,1-.194.149.232.232,0,0,1-.052-.007.2.2,0,0,1-.123-.1.194.194,0,0,1-.019-.149Zm-.747-.016a.2.2,0,0,1,.054.006.2.2,0,0,1,.121.091.2.2,0,0,1,.021.153l-.573,2.132a.2.2,0,0,1-.192.147.46.46,0,0,1-.052-.006.2.2,0,0,1-.141-.245l.572-2.132a.2.2,0,0,1,.19-.146M10.5,2.918l.413-1.537a.2.2,0,0,1,.191-.147.2.2,0,0,1,.054.007.2.2,0,0,1,.122.093.2.2,0,0,1,.02.152l-.412,1.536a.2.2,0,0,1-.194.148.232.232,0,0,1-.052-.007h0a.2.2,0,0,1-.141-.245"/><path class="d" d="M16.955,21.914v-.093a2.167,2.167,0,0,0,1.854-2.108c-.007-1.475-1.163-2.428-3.363-2.428H11.31v9.659h4.484c2.109,0,3.39-1.147,3.39-2.721v-.066a2.235,2.235,0,0,0-2.229-2.243m-3.11-2.627h1.174c.688,0,1.175.348,1.175.961s-.5.96-1.215.96H13.845Zm1.294,5.621H13.845V22.8h1.334c.814,0,1.321.407,1.321,1.107,0,.653-.448,1.006-1.361,1"/><path class="d" d="M24.22,17.552a4.478,4.478,0,0,0-1.158,8.8,4.529,4.529,0,0,0,1.163.153l-.005.005a4.479,4.479,0,1,0,0-8.958m-3.044,5.231a.3.3,0,0,1-.291-.379l.694-2.585a.3.3,0,0,1,.288-.222v0a.276.276,0,0,1,.081.009.3.3,0,0,1,.182.14.293.293,0,0,1,.029.226l-.692,2.585a.3.3,0,0,1-.29.223m1.462.523a.306.306,0,0,1-.368.214.3.3,0,0,1-.213-.369l.962-3.587a.3.3,0,0,1,.29-.223v0a.347.347,0,0,1,.079.006h0a.3.3,0,0,1,.211.367Zm1.1,1.575a.3.3,0,0,1-.29.223.346.346,0,0,1-.078-.009h0a.3.3,0,0,1-.21-.368l1.44-5.377a.3.3,0,0,1,.289-.222h0a.349.349,0,0,1,.079.01h0a.3.3,0,0,1,.211.368Zm1.449-.59a.3.3,0,0,1-.26-.15.307.307,0,0,1-.03-.228l.962-3.587a.3.3,0,0,1,.29-.223h0a.34.34,0,0,1,.078.01.3.3,0,0,1,.181.14.3.3,0,0,1,.031.229l-.961,3.587a.3.3,0,0,1-.291.223M26.864,24a.3.3,0,0,1-.367.213h0a.3.3,0,0,1-.212-.367l.694-2.586a.3.3,0,0,1,.29-.222h0a.332.332,0,0,1,.077.01.3.3,0,0,1,.213.367Z"/><path class="d" d="M6.712,17.8c2.64-.871,3.563-3.947,3.6-4.078a.3.3,0,0,0-.577-.168c-.008.029-.87,2.9-3.211,3.676a3.18,3.18,0,0,0-2.12,3.381c.119.832.826,2.78,4.779,2.908h.009a.3.3,0,0,0,.01-.6c-2.464-.08-4-.952-4.2-2.394A2.6,2.6,0,0,1,6.712,17.8"/></g></g></g></svg>