<svg xmlns="http://www.w3.org/2000/svg" width="100" height="100" viewBox="0 0 100 100">
  <g id="그룹_30434" data-name="그룹 30434" transform="translate(-19.588 -19.586)">
    <g id="그룹_30435" data-name="그룹 30435" transform="translate(19.417 19.415)">
      <rect id="사각형_16492" data-name="사각형 16492" width="100" height="100" transform="translate(0.171 0.171)" fill="none"/>
      <path id="패스_27748" data-name="패스 27748" d="M35.907,36.389A6.166,6.166,0,0,0,32,31.827c-2.1-.9-4.338-1.488-6.5-2.261a13.506,13.506,0,0,1-2.749-1.219,1.66,1.66,0,0,1,.075-2.875,3.72,3.72,0,0,1,5.571,2.1h8.7c.153-5.562-2.11-8.1-6.347-9.321a16.645,16.645,0,0,0-8.337-.089c-4.456.993-9.143,3.962-9.6,10.66-.2,2.873.629,5.274,3.31,6.643a53.931,53.931,0,0,0,5.123,2.1c1.515.586,3.084,1.042,4.568,1.692a1.75,1.75,0,0,1,.53,2.881,3.12,3.12,0,0,1-1.094.753c-2.874,1.187-5.282.033-6.093-2.9a.847.847,0,0,0-.233-.068c-2.671-.009-5.342-.006-8.012-.022-.564,0-.613.317-.629.76A8.911,8.911,0,0,0,17.2,50.02a17.427,17.427,0,0,0,14.128-2.31c3.889-2.483,5.266-7.643,4.584-11.322" transform="translate(-8.409 -5.159)" fill="#fff" fill-rule="evenodd"/>
      <path id="패스_27749" data-name="패스 27749" d="M42.319,47.007h8.233c.517-3.258.984-6.478,1.551-9.68a29.037,29.037,0,0,1,1.163-4.715,2.944,2.944,0,0,1,3.516-1.628c1.173.311,1.7,1.105,1.511,2.8-.3,2.73-.734,5.446-1.128,8.164-.242,1.662-.514,3.317-.793,5.11,2.467,0,4.769-.046,7.068.024.9.027,1.19-.269,1.315-1.131.433-3,.967-5.981,1.43-8.976a33.458,33.458,0,0,0,.764-7.6,5.517,5.517,0,0,0-4.764-5.5,8.4,8.4,0,0,0-7.135,1.692c-.718.568-1.37,1.223-2.134,1.913.17-1.089.327-2.093.481-3.086a1.408,1.408,0,0,0-.327-.1c-2.221-.009-4.441-.006-6.663-.022-.5,0-.571.282-.636.692q-1.4,8.939-2.832,17.873c-.216,1.373-.409,2.75-.62,4.171" transform="translate(5.662 -2.519)" fill="#fff" fill-rule="evenodd"/>
      <path id="패스_27750" data-name="패스 27750" d="M31.81,50.869c-.366,1.979-.7,3.966-1.045,6.013h9.164c.361-2.156.714-4.264,1.082-6.466-3.019,0-5.879-.007-8.737.02a.667.667,0,0,0-.465.433" transform="translate(0.588 9.218)" fill="#fff" fill-rule="evenodd"/>
      <path id="패스_27751" data-name="패스 27751" d="M95.287,24.3c-.19,0-.471.409-.538.672-.157.609-.209,1.245-.327,2.023-.3-.412-.489-.688-.7-.946A5.824,5.824,0,0,0,89,23.705a10.065,10.065,0,0,0-9.072,5.31A17.008,17.008,0,0,0,77.672,39.38,7.3,7.3,0,0,0,85.7,45.954a10.6,10.6,0,0,0,5.492-2.111A20.618,20.618,0,0,1,89.974,48c-.606,1.318-1.89,1.638-3.286,1.556a1.6,1.6,0,0,1-1.626-1.468H76.895c.013,1.661.278,3.244,1.606,4.217a32.041,32.041,0,0,0,4.129,2.213,1,1,0,0,0-.232.131c-6.026,5.213-11.392,10.942-14.473,18.464a.672.672,0,0,1-.466.368c-1.452.029-2.9.017-4.433.017.088-.636.184-1.338.3-2.156h-4.23c.416-2.373.81-4.623,1.207-6.892a1.767,1.767,0,0,0-.37-.1c-2.7-.006-5.4-.023-8.1.02-.216,0-.561.41-.615.676-.338,1.677-.574,3.375-.915,5.051-.289,1.425.089,1.215-1.418,1.245a7,7,0,0,1-1.179-.009c-.835-.13-1.189.236-1.215,1.035a3.991,3.991,0,0,1-.1.751c-.127.538-.109,1.239-.448,1.574-.983.98-2.111,1.813-3.183,2.7l-.176-.114q.492-2.869.984-5.736a1.346,1.346,0,0,0-.321-.107c-2.756-.007-5.512,0-8.266-.023-.577,0-.61.363-.676.758-.57,3.317-1.151,6.633-1.7,9.955a.855.855,0,0,1-.812.787,6.854,6.854,0,0,1-7.735-3.748,13.852,13.852,0,0,1-1.268-9.422,31.537,31.537,0,0,1,14.78-21.3,3.9,3.9,0,0,1,1.415-.347c.851-.135,1.717-.184,2.557-.36a1.58,1.58,0,0,0,1.246-1.207c1.891-6.256,3.818-12.5,5.731-18.749.078-.252.125-.514.24-1-4.23,1.622-7.912.632-11.433-1.882-.141,1.855-.263,3.5-.391,5.154-.377,4.844-.72,9.691-1.166,14.528a2.319,2.319,0,0,0,.97,2.447c.027.019.014.1.023.178-.1.069-.212.154-.328.226a33.21,33.21,0,0,0-9.37,8.874,28.486,28.486,0,0,0-5.794,15.125,15.407,15.407,0,0,0,2.341,9.816,6.583,6.583,0,0,0,4.7,3.119,31.311,31.311,0,0,0,3.868.03c-.551,3.222-1.1,6.414-1.665,9.731h.937c2.418,0,4.837-.033,7.253.02.745.017.941-.269,1.053-.931.663-3.929,1.423-7.842,2.028-11.779a3.817,3.817,0,0,1,1.954-3.074,14.889,14.889,0,0,0,1.669-1.284c.174-.132.371-.322.563-.328.967-.035,1.936-.016,2.92-.016-.017.227-.017.311-.03.391-.661,4.156-1.351,8.308-1.972,12.47a3.554,3.554,0,0,0,3.062,4.359c3.1.681,6.206.1,9.369.15.363-2.176.712-4.284,1.081-6.491-.531,0-.894.013-1.253,0s-.727-.059-1.091-.092c-1.41-.13-1.774-.616-1.525-1.986q.652-3.6,1.278-7.209c.272-1.573.26-1.574,1.835-1.574H61c1.318,0,1.317,0,1.633-1.223.04-.154.111-.3.2-.532h4.386a.287.287,0,0,1,.027.124c-.04.22-.094.439-.141.659a24.58,24.58,0,0,0,.612,13.456,13.074,13.074,0,0,0,6.721,8.053,9.9,9.9,0,0,0,14.137-6.827c.935-4.571-.783-8.423-4.038-11.566-3.365-3.247-7.658-4.441-12.152-5.057-.964-.132-1.936-.207-3.132-.332.731-1.435,1.325-2.76,2.055-4a56.592,56.592,0,0,1,13-14.593,1.712,1.712,0,0,1,.925-.252c1.816-.128,3.657-.095,5.449-.374a8.281,8.281,0,0,0,6.289-4.192,18.072,18.072,0,0,0,2-6.039q1.358-8.35,2.665-16.708c.157-.984.281-1.973.436-3.071-2.353,0-4.568-.017-6.783.03M43.861,32.461c.167-.564.33-1.13.5-1.694.314-1.045.535-1.166,1.789-.914-.091.348-.167.7-.272,1.035q-2.245,7.273-4.494,14.545c-.338,1.092-.332,1.094-1.622.856,1.376-4.64,2.739-9.234,4.1-13.829m39.068,47.07a11.053,11.053,0,0,1,4.338,10.247c-.338,3.594-3.8,6.7-7.652,7.016a8.661,8.661,0,0,1-8.128-3.681A19.081,19.081,0,0,1,67.88,79.428c.15-1.488.538-2.953.829-4.49,5.214.491,10.124,1.361,14.22,4.592M91.61,37.742a2.9,2.9,0,0,1-2.2,1.776,2.715,2.715,0,0,1-3.487-3.078,22.428,22.428,0,0,1,1.255-4.51,3.025,3.025,0,0,1,4.038-1.482,3.372,3.372,0,0,1,1.656,3.244c-.412,1.353-.756,2.733-1.258,4.051" transform="translate(-3.598 -2.512)" fill="#fff" fill-rule="evenodd"/>
      <path id="패스_27752" data-name="패스 27752" d="M40.192,30.032A8.949,8.949,0,1,0,31.241,21a8.923,8.923,0,0,0,8.951,9.031m6.365-7.961.892.073c-.079.488-.151.934-.235,1.452l-.9-.132c.082-.478.15-.879.237-1.393m-.383-1.321c-.206,1.228-.414,2.478-.643,3.841l-.9-.2c.193-1.141.377-2.206.553-3.274.095-.574.406-.659.989-.368M45.05,18.723c-.463,2.557-.915,5.116-1.384,7.745l-.914-.068,1.464-8.323c.486.04.963-.065.835.645m-1.793,1.412c-.236,1.338-.462,2.628-.7,3.986l-.862-.284c.213-1.242.417-2.441.633-3.7Zm-1.238-1.587c-.389,2.206-.767,4.365-1.153,6.561l-.908-.072c.387-2.226.763-4.388,1.153-6.637l.908.148M40.96,15.918c-.665,3.8-1.325,7.563-2,11.4l-.9-.212c.674-3.825,1.337-7.59,2.006-11.388l.892.2m-2.543,2.873c.168.05.427.272.41.387-.212,1.432-.443,2.862-.74,4.28-.032.154-.491.219-.971.416.319-1.809.581-3.336.875-4.857a.49.49,0,0,1,.426-.226m-.679-1.854c-.488,2.789-.97,5.538-1.458,8.324l-.9-.2c.484-2.757.964-5.5,1.454-8.3l.9.167m-2.816,2.477.8.207c-.131.792-.26,1.573-.386,2.326-1.038.191-1.012-.1-.417-2.533m-.751.429c-.085.484-.161.914-.245,1.387l-.767-.059c-.053-1.363.02-1.472,1.012-1.328" transform="translate(0.797 -7.592)" fill="#fff" fill-rule="evenodd"/>
    </g>
  </g>
</svg>
