<svg xmlns="http://www.w3.org/2000/svg" xmlns:xlink="http://www.w3.org/1999/xlink" width="200.143" height="90" viewBox="0 0 200.143 90"><defs><clipPath id="a"><rect width="200.143" height="90" fill="none"/></clipPath><clipPath id="b"><rect width="200.143" height="85.076" fill="#fc2b2f"/></clipPath></defs><g clip-path="url(#a)"><g transform="translate(-87 -191)"><rect width="200" height="90" transform="translate(87 191)" fill="none"/><g transform="translate(87 193)"><g transform="translate(0 0)" clip-path="url(#b)"><path d="M22.193,29.448q0-3.24-4.209-3.242-3.3,0-3.731,2.069a2.386,2.386,0,0,0,.765,2.122,9.65,9.65,0,0,0,2.918,1.434l3.683,1.008a18.243,18.243,0,0,1,7.414,3.528,7.533,7.533,0,0,1,2.583,5.967l-.143,2.282q-1.149,6.9-6.29,10a22.452,22.452,0,0,1-11.838,3.1q-6.313,0-10.092-3.56A10.655,10.655,0,0,1,0,46.136l.047-1.329H10.9a3.443,3.443,0,0,0,1.474,3.161,5.9,5.9,0,0,0,3.212.93q4.108,0,4.832-2.6V45.61a2,2,0,0,0-1.148-1.776,31.139,31.139,0,0,0-4.926-1.885,24.937,24.937,0,0,1-8.371-3.581Q3.061,36.22,3.061,31.762L3.2,30.278,3.347,29a12.934,12.934,0,0,1,2.727-5.915A14.265,14.265,0,0,1,11.861,18.9a21.382,21.382,0,0,1,8.275-1.513,15.055,15.055,0,0,1,9.422,2.857q3.4,2.645,3.4,9.207Z" transform="translate(0 4.768)" fill="#fc2b2f"/><path d="M48.99,26.47h9.135l-.766,4.464q4.163-5.207,9.375-5.208a8.575,8.575,0,0,1,5.93,1.966q2.2,1.967,2.2,6.537a20.785,20.785,0,0,1-.287,3.349L71.852,54.37h-9.9L64.3,39.544l.048-.851.047-.957q0-3.293-2.822-3.294a4,4,0,0,0-3.061,1.222q-1,.958-1.673,4.464L54.587,54.37h-10Z" transform="translate(12.229 7.055)" fill="#fc2b2f"/><path d="M91.245,26.47H100L96.267,50.085a22.552,22.552,0,0,1-2.535,7.96A9.509,9.509,0,0,1,89,62.4a20.775,20.775,0,0,1-8.227,1.38,18.864,18.864,0,0,1-7.964-1.7q-3.706-1.7-3.707-6.324h10q0,1.913,2.487,1.914a4.164,4.164,0,0,0,3.012-1.1q1.149-1,1.771-4.052l.382-2.5a10.784,10.784,0,0,1-7.844,3.029,8.538,8.538,0,0,1-6.361-2.71,10.151,10.151,0,0,1-2.631-7.387l.144-1.222.144-1.488q1.147-7.493,5.022-11a12.424,12.424,0,0,1,8.513-3.508,6.871,6.871,0,0,1,4.16,1.223,7.932,7.932,0,0,1,2.774,3.242Zm-6.074,7.121a3.593,3.593,0,0,0-3.564,2.072,22.67,22.67,0,0,0-1.6,5.634q0,4.041,3.54,4.039A3.985,3.985,0,0,0,87.3,43a11.205,11.205,0,0,0,1.218-5.261q0-4.146-3.347-4.145" transform="translate(18.951 7.055)" fill="#fc2b2f"/><path d="M109.893,29.144H121l-4.942,27.846h-11Zm1.966-11.426h11.106l-1.328,7.866H110.53Z" transform="translate(28.813 4.859)" fill="#fc2b2f"/><path d="M120.9,28.5l4.2,0,1.543-8.662h10.908L136,28.5l5.291.006-1.154,6.424-5.292,0L132.989,45.3l-.213,1.329a1.563,1.563,0,0,0,1.009,1.648,8.535,8.535,0,0,0,1.86.238c.672.019,1.346.027,2.02.027l-1.329,7.866h-2.551l-3.72.212q-5,0-6.963-1.061t-1.966-4.145a38.267,38.267,0,0,1,.531-4.358l2.072-12.117-3.88-.009Z" transform="translate(32.873 5.442)" fill="#fc2b2f"/><path d="M37.934,30.035a18.292,18.292,0,0,1-6.691-3.07L29.227,52.788s1.376,2.11,2.826,2.439a8.281,8.281,0,0,0,4.854-.344L45.19,29.937a22.356,22.356,0,0,1-7.256.1M35.8,53.383l-1.719-.039,6.1-20.56,1.985-.043Z" transform="translate(8.016 7.395)" fill="#fc2b2f"/><path d="M31.893,47.609a45.23,45.23,0,0,0-3.112,8.954c-.965,4.1-1.755,9.892,1.771,13.068,4.155,3.743,10.474,3.532,15.5,2.01A33.448,33.448,0,0,0,62.61,60,34.475,34.475,0,0,0,67.6,50.635a25.608,25.608,0,0,0,1.217-4.415c.159-.982-1.344-1.4-1.5-.414a30.526,30.526,0,0,1-4.117,10.556A32.117,32.117,0,0,1,48.3,69.173c-4.691,1.979-10.7,3.061-15.315.307a6.585,6.585,0,0,1-3.256-4.745,17.786,17.786,0,0,1,.3-6.6A42.83,42.83,0,0,1,33.24,48.4c.428-.9-.917-1.7-1.347-.787" transform="translate(7.669 12.407)" fill="#fc2b2f"/><path d="M135.465,38.961a82.044,82.044,0,0,0,6.506-13.066,42.646,42.646,0,0,0,2.949-10.886c.345-3.088.144-6.551-1.744-9.152C141,2.863,137.288,1.118,133.739.431a30.351,30.351,0,0,0-13.259.747A57.06,57.06,0,0,0,92.56,18.822,60.443,60.443,0,0,0,80.884,38.641c-.042.122-.084.245-.122.368-.3.961,1.205,1.371,1.5.415a40.082,40.082,0,0,1,1.952-4.842,63.849,63.849,0,0,1,6.653-11.2A57.087,57.087,0,0,1,116.889,3.924c7.245-2.614,17.228-4.266,23.588,1.319,5.142,4.515,2.723,12.7.757,18.2a88.987,88.987,0,0,1-6.971,14.491c-.046.08-.1.158-.144.237-.533.855.817,1.64,1.347.787" transform="translate(22.139 -0.001)" fill="#fc2b2f"/><path d="M161.45,24.392c-1.919,1.352-3.757,2.834-5.552,4.343a77.891,77.891,0,0,0-10.448,10.4,34.54,34.54,0,0,0-6.557,12.03,25.385,25.385,0,0,0,.041,15.5c1.826,5.3,5.482,10.7,11.408,11.616a12.391,12.391,0,0,0,11.2-3.886c3.164-3.693,3.657-9.023,2.032-13.5-1.736-4.791-5.746-8.06-10.26-10.152-6.769-3.135-14.723-4.117-22.135-3.68-.14.008-.282.017-.423.028-.994.083-1,1.644,0,1.561a48.1,48.1,0,0,1,17.7,1.9c4.289,1.31,8.832,3.49,11.63,7.126a13.458,13.458,0,0,1,2.044,12.777,10.28,10.28,0,0,1-9.055,6.394,10.481,10.481,0,0,1-6.115-1.421c-2.55-1.53-4.241-4.125-5.518-6.747-4.257-8.741-1.829-19.017,3.683-26.587A66.993,66.993,0,0,1,155,31.57c2.211-1.959,4.5-3.841,6.89-5.576.117-.085.233-.171.352-.255.816-.573.036-1.927-.786-1.347" transform="translate(35.657 6.651)" fill="#fc2b2f"/><path d="M50.037,16.055a10.919,10.919,0,1,0-5.428,14.456,10.918,10.918,0,0,0,5.428-14.456M32.758,20.213l-.947-.074c-.065-1.681.027-1.817,1.249-1.64-.1.6-.2,1.129-.3,1.714m1.23-2.243.991.256c-.161.976-.32,1.942-.477,2.87-1.279.236-1.249-.125-.515-3.126m.573,6.975c.6-3.4,1.189-6.788,1.794-10.239l1.11.205c-.6,3.443-1.2,6.835-1.8,10.276l-1.1-.242M36.7,23.474c.4-2.233.717-4.117,1.079-5.994A.611.611,0,0,1,38.3,17.2c.206.064.526.336.507.477-.261,1.769-.549,3.535-.914,5.283-.041.19-.607.27-1.2.514m1.167,3.992c.832-4.721,1.651-9.368,2.477-14.055l1.1.246c-.821,4.684-1.637,9.333-2.468,14.07l-1.109-.261m2.343-2.556c.477-2.747.939-5.417,1.422-8.192l1.119.182c-.478,2.724-.947,5.388-1.423,8.1l-1.118-.089m2.141-1.479c.261-1.533.515-3.014.781-4.569h1.148c-.291,1.651-.572,3.243-.865,4.92l-1.064-.35m1.3,3.164c.609-3.466,1.2-6.848,1.808-10.273.6.051,1.188-.08,1.03.8-.572,3.155-1.132,6.314-1.71,9.561l-1.128-.084m3.432-2.235-1.107-.245c.238-1.409.464-2.723.683-4.042.116-.708.5-.813,1.219-.455-.255,1.516-.512,3.059-.8,4.742m2.08-1.227-1.106-.163c.1-.59.186-1.087.293-1.72l1.1.09c-.1.6-.186,1.153-.289,1.793" transform="translate(8.001 2.645)" fill="#fc2b2f"/></g></g></g></g></svg>